G04 #@! TF.GenerationSoftware,KiCad,Pcbnew,(5.0.0)*
G04 #@! TF.CreationDate,2021-05-18T20:46:35-04:00*
G04 #@! TF.ProjectId,CustomSID_PCB,437573746F6D5349445F5043422E6B69,rev?*
G04 #@! TF.SameCoordinates,Original*
G04 #@! TF.FileFunction,Copper,L2,Bot,Signal*
G04 #@! TF.FilePolarity,Positive*
%FSLAX46Y46*%
G04 Gerber Fmt 4.6, Leading zero omitted, Abs format (unit mm)*
G04 Created by KiCad (PCBNEW (5.0.0)) date 05/18/21 20:46:35*
%MOMM*%
%LPD*%
G01*
G04 APERTURE LIST*
G04 #@! TA.AperFunction,ComponentPad*
%ADD10R,1.500000X1.500000*%
G04 #@! TD*
G04 #@! TA.AperFunction,ComponentPad*
%ADD11C,1.500000*%
G04 #@! TD*
G04 #@! TA.AperFunction,ComponentPad*
%ADD12C,2.000000*%
G04 #@! TD*
G04 #@! TA.AperFunction,ComponentPad*
%ADD13C,1.440000*%
G04 #@! TD*
G04 #@! TA.AperFunction,ComponentPad*
%ADD14C,2.500000*%
G04 #@! TD*
G04 #@! TA.AperFunction,ComponentPad*
%ADD15C,1.600000*%
G04 #@! TD*
G04 #@! TA.AperFunction,ComponentPad*
%ADD16O,1.600000X1.600000*%
G04 #@! TD*
G04 #@! TA.AperFunction,ComponentPad*
%ADD17R,1.600000X1.600000*%
G04 #@! TD*
G04 #@! TA.AperFunction,ComponentPad*
%ADD18C,1.778000*%
G04 #@! TD*
G04 #@! TA.AperFunction,ComponentPad*
%ADD19R,2.500000X1.500000*%
G04 #@! TD*
G04 #@! TA.AperFunction,ComponentPad*
%ADD20O,2.500000X1.500000*%
G04 #@! TD*
G04 #@! TA.AperFunction,ComponentPad*
%ADD21C,4.000000*%
G04 #@! TD*
G04 #@! TA.AperFunction,ViaPad*
%ADD22C,1.524000*%
G04 #@! TD*
G04 #@! TA.AperFunction,Conductor*
%ADD23C,0.457200*%
G04 #@! TD*
G04 #@! TA.AperFunction,Conductor*
%ADD24C,0.762000*%
G04 #@! TD*
G04 #@! TA.AperFunction,Conductor*
%ADD25C,0.304800*%
G04 #@! TD*
G04 APERTURE END LIST*
D10*
G04 #@! TO.P,J1,1*
G04 #@! TO.N,GND*
X191135000Y-75565000D03*
D11*
G04 #@! TO.P,J1,3*
G04 #@! TO.N,/TX*
X191135000Y-77605000D03*
G04 #@! TO.P,J1,5*
G04 #@! TO.N,Net-(J1-Pad5)*
X191135000Y-79645000D03*
G04 #@! TO.P,J1,7*
G04 #@! TO.N,Net-(J1-Pad7)*
X191135000Y-81685000D03*
G04 #@! TO.P,J1,2*
G04 #@! TO.N,+5V*
X189355000Y-76585000D03*
G04 #@! TO.P,J1,4*
G04 #@! TO.N,Net-(J1-Pad4)*
X189355000Y-78625000D03*
G04 #@! TO.P,J1,6*
G04 #@! TO.N,Net-(J1-Pad6)*
X189355000Y-80665000D03*
G04 #@! TO.P,J1,8*
G04 #@! TO.N,Net-(J1-Pad8)*
X189355000Y-82705000D03*
D12*
G04 #@! TO.P,J1,SH*
G04 #@! TO.N,GND*
X190245000Y-87255000D03*
X190245000Y-70995000D03*
D11*
G04 #@! TO.P,J1,9*
G04 #@! TO.N,Net-(J1-Pad9)*
X184535000Y-72265000D03*
G04 #@! TO.P,J1,10*
G04 #@! TO.N,Net-(J1-Pad10)*
X184535000Y-74555000D03*
G04 #@! TO.P,J1,11*
G04 #@! TO.N,Net-(J1-Pad11)*
X184535000Y-83695000D03*
G04 #@! TO.P,J1,12*
G04 #@! TO.N,Net-(J1-Pad12)*
X184535000Y-85985000D03*
G04 #@! TD*
D13*
G04 #@! TO.P,RV2,1*
G04 #@! TO.N,+3V3*
X147955000Y-72390000D03*
G04 #@! TO.P,RV2,2*
G04 #@! TO.N,Net-(RV2-Pad2)*
X150495000Y-74930000D03*
G04 #@! TO.P,RV2,3*
G04 #@! TO.N,GND*
X153035000Y-72390000D03*
G04 #@! TD*
D14*
G04 #@! TO.P,J3,T*
G04 #@! TO.N,Net-(J3-PadT)*
X159385000Y-74295000D03*
G04 #@! TO.P,J3,TN*
G04 #@! TO.N,Net-(J3-PadTN)*
X169545000Y-74295000D03*
G04 #@! TO.P,J3,S*
G04 #@! TO.N,GND*
X164465000Y-69215000D03*
G04 #@! TD*
D15*
G04 #@! TO.P,R5,1*
G04 #@! TO.N,Net-(J3-PadT)*
X159385000Y-80010000D03*
D16*
G04 #@! TO.P,R5,2*
G04 #@! TO.N,Net-(R5-Pad2)*
X169545000Y-80010000D03*
G04 #@! TD*
D15*
G04 #@! TO.P,R4,1*
G04 #@! TO.N,/RES*
X142240000Y-113030000D03*
D16*
G04 #@! TO.P,R4,2*
G04 #@! TO.N,GND*
X142240000Y-123190000D03*
G04 #@! TD*
D13*
G04 #@! TO.P,RV1,3*
G04 #@! TO.N,GND*
X139700000Y-72390000D03*
G04 #@! TO.P,RV1,2*
G04 #@! TO.N,Net-(RV1-Pad2)*
X137160000Y-74930000D03*
G04 #@! TO.P,RV1,1*
G04 #@! TO.N,+3V3*
X134620000Y-72390000D03*
G04 #@! TD*
D17*
G04 #@! TO.P,U4,1*
G04 #@! TO.N,/SPEED_BUF*
X146685000Y-113665000D03*
D16*
G04 #@! TO.P,U4,8*
G04 #@! TO.N,/REF_BUF*
X161925000Y-106045000D03*
G04 #@! TO.P,U4,2*
G04 #@! TO.N,/SPEED_BUF*
X149225000Y-113665000D03*
G04 #@! TO.P,U4,9*
G04 #@! TO.N,/REF_BUF*
X159385000Y-106045000D03*
G04 #@! TO.P,U4,3*
G04 #@! TO.N,/SPEED*
X151765000Y-113665000D03*
G04 #@! TO.P,U4,10*
G04 #@! TO.N,/REF*
X156845000Y-106045000D03*
G04 #@! TO.P,U4,4*
G04 #@! TO.N,+12V*
X154305000Y-113665000D03*
G04 #@! TO.P,U4,11*
G04 #@! TO.N,GND*
X154305000Y-106045000D03*
G04 #@! TO.P,U4,5*
G04 #@! TO.N,/DIR*
X156845000Y-113665000D03*
G04 #@! TO.P,U4,12*
G04 #@! TO.N,N/C*
X151765000Y-106045000D03*
G04 #@! TO.P,U4,6*
G04 #@! TO.N,/DIR_BUF*
X159385000Y-113665000D03*
G04 #@! TO.P,U4,13*
G04 #@! TO.N,N/C*
X149225000Y-106045000D03*
G04 #@! TO.P,U4,7*
G04 #@! TO.N,/DIR_BUF*
X161925000Y-113665000D03*
G04 #@! TO.P,U4,14*
G04 #@! TO.N,N/C*
X146685000Y-106045000D03*
G04 #@! TD*
D18*
G04 #@! TO.P,U1,1*
G04 #@! TO.N,Net-(U1-Pad1)*
X105410000Y-69850000D03*
G04 #@! TO.P,U1,3*
G04 #@! TO.N,Net-(U1-Pad3)*
X105410000Y-74930000D03*
G04 #@! TO.P,U1,4*
G04 #@! TO.N,GND*
X105410000Y-77470000D03*
G04 #@! TO.P,U1,5*
G04 #@! TO.N,Net-(RV1-Pad2)*
X105410000Y-80010000D03*
G04 #@! TO.P,U1,6*
G04 #@! TO.N,Net-(RV2-Pad2)*
X105410000Y-82550000D03*
G04 #@! TO.P,U1,7*
G04 #@! TO.N,Net-(R5-Pad2)*
X105410000Y-85090000D03*
G04 #@! TO.P,U1,8*
G04 #@! TO.N,Net-(U1-Pad8)*
X105410000Y-87630000D03*
G04 #@! TO.P,U1,9*
G04 #@! TO.N,Net-(U1-Pad9)*
X105410000Y-90170000D03*
G04 #@! TO.P,U1,10*
G04 #@! TO.N,Net-(U1-Pad10)*
X105410000Y-92710000D03*
G04 #@! TO.P,U1,11*
G04 #@! TO.N,/SCK*
X105410000Y-95250000D03*
G04 #@! TO.P,U1,12*
G04 #@! TO.N,/MOSI*
X105410000Y-97790000D03*
G04 #@! TO.P,U1,13*
G04 #@! TO.N,Net-(U1-Pad13)*
X105410000Y-100330000D03*
G04 #@! TO.P,U1,14*
G04 #@! TO.N,Net-(U1-Pad14)*
X105410000Y-102870000D03*
G04 #@! TO.P,U1,15*
G04 #@! TO.N,Net-(U1-Pad15)*
X105410000Y-105410000D03*
G04 #@! TO.P,U1,16*
G04 #@! TO.N,Net-(U1-Pad16)*
X105410000Y-107950000D03*
G04 #@! TO.P,U1,17*
G04 #@! TO.N,Net-(U1-Pad17)*
X125730000Y-107950000D03*
G04 #@! TO.P,U1,18*
G04 #@! TO.N,Net-(U1-Pad18)*
X125730000Y-105410000D03*
G04 #@! TO.P,U1,19*
G04 #@! TO.N,Net-(U1-Pad19)*
X125730000Y-102870000D03*
G04 #@! TO.P,U1,20*
G04 #@! TO.N,/TX*
X125730000Y-100330000D03*
G04 #@! TO.P,U1,21*
G04 #@! TO.N,/CS*
X125730000Y-97790000D03*
G04 #@! TO.P,U1,22*
G04 #@! TO.N,/RES*
X125730000Y-95250000D03*
G04 #@! TO.P,U1,23*
G04 #@! TO.N,/MODE*
X125730000Y-92710000D03*
G04 #@! TO.P,U1,24*
G04 #@! TO.N,Net-(U1-Pad24)*
X125730000Y-90170000D03*
G04 #@! TO.P,U1,25*
G04 #@! TO.N,Net-(U1-Pad25)*
X125730000Y-87630000D03*
G04 #@! TO.P,U1,26*
G04 #@! TO.N,+5V*
X125730000Y-85090000D03*
G04 #@! TO.P,U1,27*
G04 #@! TO.N,Net-(U1-Pad27)*
X125730000Y-82550000D03*
G04 #@! TO.P,U1,28*
G04 #@! TO.N,Net-(U1-Pad28)*
X125730000Y-80010000D03*
G04 #@! TO.P,U1,2*
G04 #@! TO.N,+3V3*
X105410000Y-72390000D03*
G04 #@! TD*
D19*
G04 #@! TO.P,U2,1*
G04 #@! TO.N,+12V*
X142875000Y-90170000D03*
D20*
G04 #@! TO.P,U2,2*
G04 #@! TO.N,GND*
X142875000Y-87630000D03*
G04 #@! TO.P,U2,3*
G04 #@! TO.N,+5V*
X142875000Y-85090000D03*
G04 #@! TD*
D17*
G04 #@! TO.P,J2,1*
G04 #@! TO.N,Net-(J2-Pad1)*
X185420000Y-102235000D03*
D15*
G04 #@! TO.P,J2,2*
G04 #@! TO.N,Net-(J2-Pad2)*
X185420000Y-105005000D03*
G04 #@! TO.P,J2,3*
G04 #@! TO.N,Net-(J2-Pad3)*
X185420000Y-107775000D03*
G04 #@! TO.P,J2,4*
G04 #@! TO.N,Net-(J2-Pad4)*
X185420000Y-110545000D03*
G04 #@! TO.P,J2,5*
G04 #@! TO.N,Net-(J2-Pad5)*
X185420000Y-113315000D03*
G04 #@! TO.P,J2,6*
G04 #@! TO.N,/MODE*
X188260000Y-103620000D03*
G04 #@! TO.P,J2,7*
G04 #@! TO.N,+12V*
X188260000Y-106390000D03*
G04 #@! TO.P,J2,8*
G04 #@! TO.N,GND*
X188260000Y-109160000D03*
G04 #@! TO.P,J2,9*
G04 #@! TO.N,Net-(J2-Pad9)*
X188260000Y-111930000D03*
D21*
G04 #@! TO.P,J2,0*
G04 #@! TO.N,N/C*
X186840000Y-120275000D03*
X186840000Y-95275000D03*
G04 #@! TD*
D15*
G04 #@! TO.P,R3,1*
G04 #@! TO.N,/REF_BUF*
X168910000Y-115570000D03*
D16*
G04 #@! TO.P,R3,2*
G04 #@! TO.N,Net-(J2-Pad3)*
X179070000Y-115570000D03*
G04 #@! TD*
G04 #@! TO.P,R2,2*
G04 #@! TO.N,Net-(J2-Pad2)*
X179070000Y-110490000D03*
D15*
G04 #@! TO.P,R2,1*
G04 #@! TO.N,/DIR_BUF*
X168910000Y-110490000D03*
G04 #@! TD*
G04 #@! TO.P,R1,1*
G04 #@! TO.N,/SPEED_BUF*
X168910000Y-106045000D03*
D16*
G04 #@! TO.P,R1,2*
G04 #@! TO.N,Net-(J2-Pad1)*
X179070000Y-106045000D03*
G04 #@! TD*
D22*
G04 #@! TO.N,GND*
X108585000Y-77470000D03*
X147955000Y-87630000D03*
X144145000Y-72390000D03*
X190754000Y-109220000D03*
X189230000Y-73660000D03*
X157480000Y-72390000D03*
G04 #@! TO.N,Net-(RV1-Pad2)*
X117475000Y-74295000D03*
X122555000Y-74295000D03*
G04 #@! TO.N,+3V3*
X128270000Y-111125000D03*
G04 #@! TO.N,Net-(RV2-Pad2)*
X122555000Y-76835000D03*
X117475000Y-76835000D03*
G04 #@! TO.N,+12V*
X142875000Y-99060000D03*
G04 #@! TO.N,/SPEED*
X130810000Y-106680000D03*
G04 #@! TO.N,/REF*
X131445000Y-102235000D03*
G04 #@! TO.N,/DIR*
X144780000Y-108712000D03*
G04 #@! TO.N,/MOSI*
X128905000Y-113665000D03*
G04 #@! TO.N,/SCK*
X130810000Y-115570000D03*
G04 #@! TO.N,/CS*
X140970000Y-115570000D03*
G04 #@! TO.N,/SPEED_BUF*
X173990000Y-116205000D03*
X173990000Y-120015000D03*
G04 #@! TO.N,Net-(R5-Pad2)*
X117475000Y-80010000D03*
X133350000Y-81915000D03*
G04 #@! TD*
D23*
G04 #@! TO.N,Net-(J2-Pad3)*
X184325000Y-107775000D02*
X185420000Y-107775000D01*
X182245000Y-109855000D02*
X184325000Y-107775000D01*
X179070000Y-115570000D02*
X182245000Y-112395000D01*
X182245000Y-112395000D02*
X182245000Y-109855000D01*
D24*
G04 #@! TO.N,GND*
X105410000Y-77470000D02*
X108585000Y-77470000D01*
X142875000Y-87630000D02*
X147955000Y-87630000D01*
X139700000Y-72390000D02*
X144145000Y-72390000D01*
X190694000Y-109160000D02*
X188260000Y-109160000D01*
X190754000Y-109220000D02*
X190694000Y-109160000D01*
X191135000Y-75565000D02*
X189230000Y-73660000D01*
X161925000Y-72390000D02*
X157480000Y-72390000D01*
X153035000Y-72390000D02*
X157480000Y-72390000D01*
X164465000Y-69850000D02*
X161925000Y-72390000D01*
X164465000Y-69215000D02*
X164465000Y-69850000D01*
D23*
G04 #@! TO.N,Net-(RV1-Pad2)*
X114681000Y-74295000D02*
X116397370Y-74295000D01*
X116397370Y-74295000D02*
X117475000Y-74295000D01*
X105410000Y-80010000D02*
X108966000Y-80010000D01*
X108966000Y-80010000D02*
X114681000Y-74295000D01*
X136525000Y-74295000D02*
X122555000Y-74295000D01*
X137160000Y-74930000D02*
X136525000Y-74295000D01*
G04 #@! TO.N,+3V3*
X134620000Y-72390000D02*
X120650000Y-72390000D01*
X119634000Y-72390000D02*
X105410000Y-72390000D01*
X120015000Y-72390000D02*
X119634000Y-72390000D01*
X120015000Y-72771000D02*
X120396000Y-72390000D01*
X120396000Y-72390000D02*
X120015000Y-72390000D01*
X120650000Y-72390000D02*
X120396000Y-72390000D01*
D25*
X120015000Y-72898000D02*
X120015000Y-72390000D01*
D23*
X120015000Y-72771000D02*
X119634000Y-72390000D01*
D25*
X120015000Y-72898000D02*
X120015000Y-72771000D01*
D23*
X120015000Y-109220000D02*
X120015000Y-72898000D01*
X128270000Y-111125000D02*
X121920000Y-111125000D01*
X121920000Y-111125000D02*
X120015000Y-109220000D01*
X135255000Y-70485000D02*
X134620000Y-71120000D01*
X134620000Y-71120000D02*
X134620000Y-72390000D01*
X147955000Y-71120000D02*
X147320000Y-70485000D01*
X147955000Y-72390000D02*
X147955000Y-71120000D01*
X147320000Y-70485000D02*
X135255000Y-70485000D01*
G04 #@! TO.N,Net-(RV2-Pad2)*
X123190000Y-76200000D02*
X122555000Y-76835000D01*
X108712000Y-82550000D02*
X105410000Y-82550000D01*
X117475000Y-76835000D02*
X114427000Y-76835000D01*
X131445000Y-77470000D02*
X130175000Y-76200000D01*
X130175000Y-76200000D02*
X123190000Y-76200000D01*
X114427000Y-76835000D02*
X108712000Y-82550000D01*
X150495000Y-74930000D02*
X147955000Y-77470000D01*
X147955000Y-77470000D02*
X131445000Y-77470000D01*
D24*
G04 #@! TO.N,+12V*
X142875000Y-97790000D02*
X142875000Y-90170000D01*
X144145000Y-99060000D02*
X142875000Y-97790000D01*
X144780000Y-99060000D02*
X144145000Y-99060000D01*
X144780000Y-99060000D02*
X189230000Y-99060000D01*
X189230000Y-99060000D02*
X193040000Y-102870000D01*
X192695000Y-106390000D02*
X193040000Y-106045000D01*
X192060000Y-106390000D02*
X193040000Y-105410000D01*
X191770000Y-106390000D02*
X192060000Y-106390000D01*
X193040000Y-105410000D02*
X193040000Y-106045000D01*
X193040000Y-102870000D02*
X193040000Y-105410000D01*
X191770000Y-106390000D02*
X192695000Y-106390000D01*
X188260000Y-106390000D02*
X191770000Y-106390000D01*
X192115000Y-106390000D02*
X193040000Y-107315000D01*
X191770000Y-106390000D02*
X192115000Y-106390000D01*
X193040000Y-106045000D02*
X193040000Y-107315000D01*
X154305000Y-114935000D02*
X154305000Y-113665000D01*
X193040000Y-113665000D02*
X190500000Y-116205000D01*
X193040000Y-107315000D02*
X193040000Y-113665000D01*
X190500000Y-116205000D02*
X183515000Y-116205000D01*
X183515000Y-116205000D02*
X181610000Y-118110000D01*
X181610000Y-118110000D02*
X157480000Y-118110000D01*
X157480000Y-118110000D02*
X154305000Y-114935000D01*
X144145000Y-99060000D02*
X142875000Y-99060000D01*
X142875000Y-97790000D02*
X142875000Y-99060000D01*
D23*
G04 #@! TO.N,/SPEED*
X151765000Y-112395000D02*
X151765000Y-113665000D01*
X149860000Y-110490000D02*
X151765000Y-112395000D01*
X136525000Y-110490000D02*
X149860000Y-110490000D01*
X130810000Y-106680000D02*
X132715000Y-106680000D01*
X132715000Y-106680000D02*
X136525000Y-110490000D01*
G04 #@! TO.N,/REF*
X156845000Y-104521000D02*
X156845000Y-106045000D01*
X132842000Y-103632000D02*
X155956000Y-103632000D01*
X131445000Y-102235000D02*
X132842000Y-103632000D01*
X155956000Y-103632000D02*
X156845000Y-104521000D01*
G04 #@! TO.N,/DIR*
X156845000Y-113665000D02*
X156845000Y-111633000D01*
X145857630Y-108712000D02*
X144780000Y-108712000D01*
X153924000Y-108712000D02*
X145857630Y-108712000D01*
X156845000Y-111633000D02*
X153924000Y-108712000D01*
D24*
G04 #@! TO.N,+5V*
X142875000Y-85090000D02*
X130175000Y-85090000D01*
X174625000Y-85090000D02*
X142875000Y-85090000D01*
X178435000Y-85090000D02*
X174625000Y-85090000D01*
X189355000Y-76585000D02*
X186940000Y-76585000D01*
X186940000Y-76585000D02*
X178435000Y-85090000D01*
X130175000Y-85090000D02*
X125730000Y-85090000D01*
D23*
G04 #@! TO.N,Net-(J2-Pad1)*
X184150000Y-102235000D02*
X185420000Y-102235000D01*
X179070000Y-106045000D02*
X180340000Y-106045000D01*
X180340000Y-106045000D02*
X184150000Y-102235000D01*
G04 #@! TO.N,Net-(J2-Pad2)*
X184555000Y-105005000D02*
X185420000Y-105005000D01*
X179070000Y-110490000D02*
X184555000Y-105005000D01*
D25*
G04 #@! TO.N,/MOSI*
X105410000Y-97790000D02*
X106172000Y-97790000D01*
D23*
X107442000Y-109220000D02*
X111887000Y-113665000D01*
X111887000Y-113665000D02*
X126990975Y-113665000D01*
X106172000Y-97790000D02*
X107442000Y-99060000D01*
X107442000Y-99060000D02*
X107442000Y-109220000D01*
X126990975Y-113665000D02*
X128905000Y-113665000D01*
G04 #@! TO.N,/SCK*
X104140000Y-95250000D02*
X105410000Y-95250000D01*
X103505000Y-95885000D02*
X104140000Y-95250000D01*
X103505000Y-111760000D02*
X103505000Y-95885000D01*
X130810000Y-115570000D02*
X107315000Y-115570000D01*
X107315000Y-115570000D02*
X103505000Y-111760000D01*
G04 #@! TO.N,/CS*
X132207000Y-109982000D02*
X129667000Y-109982000D01*
X137795000Y-115570000D02*
X132207000Y-109982000D01*
X140970000Y-115570000D02*
X137795000Y-115570000D01*
X127635000Y-98425000D02*
X127000000Y-97790000D01*
X127000000Y-97790000D02*
X125730000Y-97790000D01*
X129667000Y-109982000D02*
X127635000Y-107950000D01*
X127635000Y-107950000D02*
X127635000Y-98425000D01*
G04 #@! TO.N,/SPEED_BUF*
X146685000Y-113665000D02*
X149225000Y-113665000D01*
X168910000Y-106045000D02*
X168910000Y-105410000D01*
X168910000Y-106045000D02*
X172085000Y-106045000D01*
X172085000Y-106045000D02*
X173990000Y-107950000D01*
X173990000Y-107950000D02*
X173990000Y-116205000D01*
X173990000Y-120015000D02*
X151765000Y-120015000D01*
X149225000Y-117475000D02*
X149225000Y-113665000D01*
X151765000Y-120015000D02*
X149225000Y-117475000D01*
G04 #@! TO.N,/DIR_BUF*
X159385000Y-113665000D02*
X161925000Y-113665000D01*
X165100000Y-110490000D02*
X161925000Y-113665000D01*
X168910000Y-110490000D02*
X165100000Y-110490000D01*
G04 #@! TO.N,/REF_BUF*
X161925000Y-106045000D02*
X159385000Y-106045000D01*
X161925000Y-106045000D02*
X163830000Y-106045000D01*
X163830000Y-106045000D02*
X166370000Y-108585000D01*
X166370000Y-108585000D02*
X170180000Y-108585000D01*
X170180000Y-108585000D02*
X171450000Y-109855000D01*
X171450000Y-109855000D02*
X171450000Y-114300000D01*
X170180000Y-115570000D02*
X168910000Y-115570000D01*
X171450000Y-114300000D02*
X170180000Y-115570000D01*
G04 #@! TO.N,/RES*
X128905000Y-107315000D02*
X130175000Y-108585000D01*
X127635000Y-95250000D02*
X128905000Y-96520000D01*
X128905000Y-96520000D02*
X128905000Y-107315000D01*
X125730000Y-95250000D02*
X127635000Y-95250000D01*
X130175000Y-108585000D02*
X132715000Y-108585000D01*
X142240000Y-113030000D02*
X142240000Y-112649000D01*
X132715000Y-108585000D02*
X136144000Y-112014000D01*
X136144000Y-112014000D02*
X141605000Y-112014000D01*
X142240000Y-112649000D02*
X141605000Y-112014000D01*
G04 #@! TO.N,Net-(J3-PadT)*
X159385000Y-80010000D02*
X159385000Y-74295000D01*
G04 #@! TO.N,Net-(R5-Pad2)*
X117475000Y-80010000D02*
X113665000Y-80010000D01*
X108585000Y-85090000D02*
X105410000Y-85090000D01*
X113665000Y-80010000D02*
X108585000Y-85090000D01*
X147320000Y-81915000D02*
X133350000Y-81915000D01*
X167640000Y-81915000D02*
X169545000Y-80010000D01*
X147320000Y-81915000D02*
X167640000Y-81915000D01*
G04 #@! TO.N,/TX*
X123698000Y-99568000D02*
X123698000Y-92075000D01*
X125730000Y-100330000D02*
X124460000Y-100330000D01*
X124460000Y-100330000D02*
X123698000Y-99568000D01*
X133985000Y-91440000D02*
X136525000Y-88900000D01*
X123698000Y-92075000D02*
X124333000Y-91440000D01*
X136525000Y-88900000D02*
X140335000Y-88900000D01*
X127000000Y-91440000D02*
X133985000Y-91440000D01*
D25*
X124333000Y-91440000D02*
X127000000Y-91440000D01*
X140335000Y-88900000D02*
X145415000Y-88900000D01*
D23*
X192540000Y-77605000D02*
X191135000Y-77605000D01*
X193040000Y-78105000D02*
X192540000Y-77605000D01*
X147320000Y-90805000D02*
X182880000Y-90805000D01*
X145415000Y-88900000D02*
X147320000Y-90805000D01*
X182880000Y-90805000D02*
X189230000Y-84455000D01*
X189230000Y-84455000D02*
X190500000Y-84455000D01*
X190500000Y-84455000D02*
X193040000Y-81915000D01*
X193040000Y-81915000D02*
X193040000Y-78105000D01*
G04 #@! TO.N,/MODE*
X125730000Y-92710000D02*
X128905000Y-92710000D01*
X128905000Y-92710000D02*
X137795000Y-101600000D01*
X137795000Y-101600000D02*
X182245000Y-101600000D01*
X182245000Y-101600000D02*
X183515000Y-100330000D01*
X183515000Y-100330000D02*
X186690000Y-100330000D01*
X188260000Y-101900000D02*
X188260000Y-103620000D01*
X186690000Y-100330000D02*
X188260000Y-101900000D01*
G04 #@! TD*
M02*
