M48
;DRILL file {KiCad (5.0.0)} date 05/18/21 20:46:47
;FORMAT={-:-/ absolute / inch / decimal}
FMAT,2
INCH,TZ
T1C0.0315
T2C0.0320
T3C0.0350
T4C0.0394
T5C0.0400
T6C0.0591
T7C0.0618
T8C0.1260
T9C0.0472
T10C0.1280
%
G90
G05
M72
T1
X6.65Y-4.35
X7.05Y-4.35
X6.65Y-4.175
X7.05Y-4.175
X6.275Y-3.15
X6.675Y-3.15
X5.775Y-4.175
X5.775Y-4.475
X5.875Y-4.175
X5.875Y-4.475
X5.975Y-4.175
X5.975Y-4.475
X6.075Y-4.175
X6.075Y-4.475
X6.175Y-4.175
X6.175Y-4.475
X6.275Y-4.175
X6.275Y-4.475
X6.375Y-4.175
X6.375Y-4.475
X5.3Y-2.85
X5.4Y-2.95
X5.5Y-2.85
X6.65Y-4.55
X7.05Y-4.55
X5.825Y-2.85
X5.925Y-2.95
X6.025Y-2.85
X5.6Y-4.45
X5.6Y-4.85
T2
X4.275Y-3.05
X4.625Y-2.925
X4.625Y-3.025
X4.625Y-3.15
X4.825Y-2.925
X4.825Y-3.025
X5.05Y-4.375
X5.075Y-4.475
X5.15Y-4.2
X5.15Y-4.55
X5.175Y-4.025
X5.25Y-3.225
X5.55Y-4.55
X5.625Y-3.9
X5.675Y-2.85
X5.7Y-4.28
X5.825Y-3.45
X6.2Y-2.85
X6.85Y-4.575
X6.85Y-4.725
X7.45Y-2.9
X7.51Y-4.3
T3
X7.2652Y-2.8451
X7.2652Y-2.9352
X7.2652Y-3.2951
X7.2652Y-3.3852
X7.4549Y-3.0152
X7.4549Y-3.0955
X7.4549Y-3.1758
X7.4549Y-3.2561
X7.525Y-2.975
X7.525Y-3.0553
X7.525Y-3.1356
X7.525Y-3.2159
T4
X5.625Y-3.35
X5.625Y-3.45
X5.625Y-3.55
X7.3Y-4.025
X7.3Y-4.1341
X7.3Y-4.2431
X7.3Y-4.3522
X7.3Y-4.4612
X7.4118Y-4.0795
X7.4118Y-4.1886
X7.4118Y-4.2976
X7.4118Y-4.4067
T5
X4.15Y-2.75
X4.15Y-2.85
X4.15Y-2.95
X4.15Y-3.05
X4.15Y-3.15
X4.15Y-3.25
X4.15Y-3.35
X4.15Y-3.45
X4.15Y-3.55
X4.15Y-3.65
X4.15Y-3.75
X4.15Y-3.85
X4.15Y-3.95
X4.15Y-4.05
X4.15Y-4.15
X4.15Y-4.25
X4.95Y-3.15
X4.95Y-3.25
X4.95Y-3.35
X4.95Y-3.45
X4.95Y-3.55
X4.95Y-3.65
X4.95Y-3.75
X4.95Y-3.85
X4.95Y-3.95
X4.95Y-4.05
X4.95Y-4.15
X4.95Y-4.25
T6
X6.275Y-2.925
X6.475Y-2.725
X6.675Y-2.925
T7
X7.49Y-2.7951
X7.49Y-3.4352
T8
X7.3559Y-3.751
X7.3559Y-4.7352
T9
X6.2781Y-2.6297
X6.2781Y-2.7281
X6.475Y-2.925
X6.6719Y-2.6297
X6.6719Y-2.7281
T10
X7.625Y-2.8652
X7.625Y-3.3652
T0
M30
