G04 #@! TF.GenerationSoftware,KiCad,Pcbnew,(5.0.0)*
G04 #@! TF.CreationDate,2021-05-18T20:46:35-04:00*
G04 #@! TF.ProjectId,CustomSID_PCB,437573746F6D5349445F5043422E6B69,rev?*
G04 #@! TF.SameCoordinates,Original*
G04 #@! TF.FileFunction,Copper,L1,Top,Signal*
G04 #@! TF.FilePolarity,Positive*
%FSLAX46Y46*%
G04 Gerber Fmt 4.6, Leading zero omitted, Abs format (unit mm)*
G04 Created by KiCad (PCBNEW (5.0.0)) date 05/18/21 20:46:35*
%MOMM*%
%LPD*%
G01*
G04 APERTURE LIST*
G04 #@! TA.AperFunction,ComponentPad*
%ADD10R,1.500000X1.500000*%
G04 #@! TD*
G04 #@! TA.AperFunction,ComponentPad*
%ADD11C,1.500000*%
G04 #@! TD*
G04 #@! TA.AperFunction,ComponentPad*
%ADD12C,2.000000*%
G04 #@! TD*
G04 #@! TA.AperFunction,ComponentPad*
%ADD13C,1.440000*%
G04 #@! TD*
G04 #@! TA.AperFunction,ComponentPad*
%ADD14C,2.500000*%
G04 #@! TD*
G04 #@! TA.AperFunction,ComponentPad*
%ADD15C,1.600000*%
G04 #@! TD*
G04 #@! TA.AperFunction,ComponentPad*
%ADD16O,1.600000X1.600000*%
G04 #@! TD*
G04 #@! TA.AperFunction,SMDPad,CuDef*
%ADD17R,1.100000X0.400000*%
G04 #@! TD*
G04 #@! TA.AperFunction,ComponentPad*
%ADD18R,1.600000X1.600000*%
G04 #@! TD*
G04 #@! TA.AperFunction,ComponentPad*
%ADD19C,1.778000*%
G04 #@! TD*
G04 #@! TA.AperFunction,ComponentPad*
%ADD20R,2.500000X1.500000*%
G04 #@! TD*
G04 #@! TA.AperFunction,ComponentPad*
%ADD21O,2.500000X1.500000*%
G04 #@! TD*
G04 #@! TA.AperFunction,ComponentPad*
%ADD22C,4.000000*%
G04 #@! TD*
G04 #@! TA.AperFunction,ViaPad*
%ADD23C,1.524000*%
G04 #@! TD*
G04 #@! TA.AperFunction,Conductor*
%ADD24C,0.304800*%
G04 #@! TD*
G04 #@! TA.AperFunction,Conductor*
%ADD25C,0.457200*%
G04 #@! TD*
G04 #@! TA.AperFunction,Conductor*
%ADD26C,0.254000*%
G04 #@! TD*
G04 APERTURE END LIST*
D10*
G04 #@! TO.P,J1,1*
G04 #@! TO.N,GND*
X191135000Y-75565000D03*
D11*
G04 #@! TO.P,J1,3*
G04 #@! TO.N,/TX*
X191135000Y-77605000D03*
G04 #@! TO.P,J1,5*
G04 #@! TO.N,Net-(J1-Pad5)*
X191135000Y-79645000D03*
G04 #@! TO.P,J1,7*
G04 #@! TO.N,Net-(J1-Pad7)*
X191135000Y-81685000D03*
G04 #@! TO.P,J1,2*
G04 #@! TO.N,+5V*
X189355000Y-76585000D03*
G04 #@! TO.P,J1,4*
G04 #@! TO.N,Net-(J1-Pad4)*
X189355000Y-78625000D03*
G04 #@! TO.P,J1,6*
G04 #@! TO.N,Net-(J1-Pad6)*
X189355000Y-80665000D03*
G04 #@! TO.P,J1,8*
G04 #@! TO.N,Net-(J1-Pad8)*
X189355000Y-82705000D03*
D12*
G04 #@! TO.P,J1,SH*
G04 #@! TO.N,GND*
X190245000Y-87255000D03*
X190245000Y-70995000D03*
D11*
G04 #@! TO.P,J1,9*
G04 #@! TO.N,Net-(J1-Pad9)*
X184535000Y-72265000D03*
G04 #@! TO.P,J1,10*
G04 #@! TO.N,Net-(J1-Pad10)*
X184535000Y-74555000D03*
G04 #@! TO.P,J1,11*
G04 #@! TO.N,Net-(J1-Pad11)*
X184535000Y-83695000D03*
G04 #@! TO.P,J1,12*
G04 #@! TO.N,Net-(J1-Pad12)*
X184535000Y-85985000D03*
G04 #@! TD*
D13*
G04 #@! TO.P,RV2,1*
G04 #@! TO.N,+3V3*
X147955000Y-72390000D03*
G04 #@! TO.P,RV2,2*
G04 #@! TO.N,Net-(RV2-Pad2)*
X150495000Y-74930000D03*
G04 #@! TO.P,RV2,3*
G04 #@! TO.N,GND*
X153035000Y-72390000D03*
G04 #@! TD*
D14*
G04 #@! TO.P,J3,T*
G04 #@! TO.N,Net-(J3-PadT)*
X159385000Y-74295000D03*
G04 #@! TO.P,J3,TN*
G04 #@! TO.N,Net-(J3-PadTN)*
X169545000Y-74295000D03*
G04 #@! TO.P,J3,S*
G04 #@! TO.N,GND*
X164465000Y-69215000D03*
G04 #@! TD*
D15*
G04 #@! TO.P,R5,1*
G04 #@! TO.N,Net-(J3-PadT)*
X159385000Y-80010000D03*
D16*
G04 #@! TO.P,R5,2*
G04 #@! TO.N,Net-(R5-Pad2)*
X169545000Y-80010000D03*
G04 #@! TD*
D17*
G04 #@! TO.P,U3,1*
G04 #@! TO.N,GND*
X133675000Y-106280000D03*
G04 #@! TO.P,U3,2*
G04 #@! TO.N,+12V*
X133675000Y-106930000D03*
G04 #@! TO.P,U3,3*
G04 #@! TO.N,/SPEED*
X133675000Y-107580000D03*
G04 #@! TO.P,U3,4*
G04 #@! TO.N,GND*
X133675000Y-108230000D03*
G04 #@! TO.P,U3,5*
G04 #@! TO.N,+12V*
X133675000Y-108880000D03*
G04 #@! TO.P,U3,6*
G04 #@! TO.N,/REF*
X133675000Y-109530000D03*
G04 #@! TO.P,U3,7*
G04 #@! TO.N,+12V*
X133675000Y-110180000D03*
G04 #@! TO.P,U3,8*
G04 #@! TO.N,GND*
X133675000Y-110830000D03*
G04 #@! TO.P,U3,9*
X133675000Y-111480000D03*
G04 #@! TO.P,U3,10*
G04 #@! TO.N,+3V3*
X133675000Y-112130000D03*
G04 #@! TO.P,U3,11*
G04 #@! TO.N,/MOSI*
X133675000Y-112780000D03*
G04 #@! TO.P,U3,12*
G04 #@! TO.N,/SCK*
X133675000Y-113430000D03*
G04 #@! TO.P,U3,13*
G04 #@! TO.N,/CS*
X139375000Y-113430000D03*
G04 #@! TO.P,U3,14*
G04 #@! TO.N,/RES*
X139375000Y-112780000D03*
G04 #@! TO.P,U3,15*
G04 #@! TO.N,+3V3*
X139375000Y-112130000D03*
G04 #@! TO.P,U3,16*
G04 #@! TO.N,Net-(U3-Pad16)*
X139375000Y-111480000D03*
G04 #@! TO.P,U3,17*
G04 #@! TO.N,Net-(U3-Pad17)*
X139375000Y-110830000D03*
G04 #@! TO.P,U3,18*
G04 #@! TO.N,GND*
X139375000Y-110180000D03*
G04 #@! TO.P,U3,19*
G04 #@! TO.N,Net-(U3-Pad19)*
X139375000Y-109530000D03*
G04 #@! TO.P,U3,20*
G04 #@! TO.N,Net-(U3-Pad20)*
X139375000Y-108880000D03*
G04 #@! TO.P,U3,21*
G04 #@! TO.N,Net-(U3-Pad21)*
X139375000Y-108230000D03*
G04 #@! TO.P,U3,22*
G04 #@! TO.N,/DIR*
X139375000Y-107580000D03*
G04 #@! TO.P,U3,23*
G04 #@! TO.N,+12V*
X139375000Y-106930000D03*
G04 #@! TO.P,U3,24*
G04 #@! TO.N,GND*
X139375000Y-106280000D03*
G04 #@! TD*
D15*
G04 #@! TO.P,R4,1*
G04 #@! TO.N,/RES*
X142240000Y-113030000D03*
D16*
G04 #@! TO.P,R4,2*
G04 #@! TO.N,GND*
X142240000Y-123190000D03*
G04 #@! TD*
D13*
G04 #@! TO.P,RV1,3*
G04 #@! TO.N,GND*
X139700000Y-72390000D03*
G04 #@! TO.P,RV1,2*
G04 #@! TO.N,Net-(RV1-Pad2)*
X137160000Y-74930000D03*
G04 #@! TO.P,RV1,1*
G04 #@! TO.N,+3V3*
X134620000Y-72390000D03*
G04 #@! TD*
D18*
G04 #@! TO.P,U4,1*
G04 #@! TO.N,/SPEED_BUF*
X146685000Y-113665000D03*
D16*
G04 #@! TO.P,U4,8*
G04 #@! TO.N,/REF_BUF*
X161925000Y-106045000D03*
G04 #@! TO.P,U4,2*
G04 #@! TO.N,/SPEED_BUF*
X149225000Y-113665000D03*
G04 #@! TO.P,U4,9*
G04 #@! TO.N,/REF_BUF*
X159385000Y-106045000D03*
G04 #@! TO.P,U4,3*
G04 #@! TO.N,/SPEED*
X151765000Y-113665000D03*
G04 #@! TO.P,U4,10*
G04 #@! TO.N,/REF*
X156845000Y-106045000D03*
G04 #@! TO.P,U4,4*
G04 #@! TO.N,+12V*
X154305000Y-113665000D03*
G04 #@! TO.P,U4,11*
G04 #@! TO.N,GND*
X154305000Y-106045000D03*
G04 #@! TO.P,U4,5*
G04 #@! TO.N,/DIR*
X156845000Y-113665000D03*
G04 #@! TO.P,U4,12*
G04 #@! TO.N,N/C*
X151765000Y-106045000D03*
G04 #@! TO.P,U4,6*
G04 #@! TO.N,/DIR_BUF*
X159385000Y-113665000D03*
G04 #@! TO.P,U4,13*
G04 #@! TO.N,N/C*
X149225000Y-106045000D03*
G04 #@! TO.P,U4,7*
G04 #@! TO.N,/DIR_BUF*
X161925000Y-113665000D03*
G04 #@! TO.P,U4,14*
G04 #@! TO.N,N/C*
X146685000Y-106045000D03*
G04 #@! TD*
D19*
G04 #@! TO.P,U1,1*
G04 #@! TO.N,Net-(U1-Pad1)*
X105410000Y-69850000D03*
G04 #@! TO.P,U1,3*
G04 #@! TO.N,Net-(U1-Pad3)*
X105410000Y-74930000D03*
G04 #@! TO.P,U1,4*
G04 #@! TO.N,GND*
X105410000Y-77470000D03*
G04 #@! TO.P,U1,5*
G04 #@! TO.N,Net-(RV1-Pad2)*
X105410000Y-80010000D03*
G04 #@! TO.P,U1,6*
G04 #@! TO.N,Net-(RV2-Pad2)*
X105410000Y-82550000D03*
G04 #@! TO.P,U1,7*
G04 #@! TO.N,Net-(R5-Pad2)*
X105410000Y-85090000D03*
G04 #@! TO.P,U1,8*
G04 #@! TO.N,Net-(U1-Pad8)*
X105410000Y-87630000D03*
G04 #@! TO.P,U1,9*
G04 #@! TO.N,Net-(U1-Pad9)*
X105410000Y-90170000D03*
G04 #@! TO.P,U1,10*
G04 #@! TO.N,Net-(U1-Pad10)*
X105410000Y-92710000D03*
G04 #@! TO.P,U1,11*
G04 #@! TO.N,/SCK*
X105410000Y-95250000D03*
G04 #@! TO.P,U1,12*
G04 #@! TO.N,/MOSI*
X105410000Y-97790000D03*
G04 #@! TO.P,U1,13*
G04 #@! TO.N,Net-(U1-Pad13)*
X105410000Y-100330000D03*
G04 #@! TO.P,U1,14*
G04 #@! TO.N,Net-(U1-Pad14)*
X105410000Y-102870000D03*
G04 #@! TO.P,U1,15*
G04 #@! TO.N,Net-(U1-Pad15)*
X105410000Y-105410000D03*
G04 #@! TO.P,U1,16*
G04 #@! TO.N,Net-(U1-Pad16)*
X105410000Y-107950000D03*
G04 #@! TO.P,U1,17*
G04 #@! TO.N,Net-(U1-Pad17)*
X125730000Y-107950000D03*
G04 #@! TO.P,U1,18*
G04 #@! TO.N,Net-(U1-Pad18)*
X125730000Y-105410000D03*
G04 #@! TO.P,U1,19*
G04 #@! TO.N,Net-(U1-Pad19)*
X125730000Y-102870000D03*
G04 #@! TO.P,U1,20*
G04 #@! TO.N,/TX*
X125730000Y-100330000D03*
G04 #@! TO.P,U1,21*
G04 #@! TO.N,/CS*
X125730000Y-97790000D03*
G04 #@! TO.P,U1,22*
G04 #@! TO.N,/RES*
X125730000Y-95250000D03*
G04 #@! TO.P,U1,23*
G04 #@! TO.N,/MODE*
X125730000Y-92710000D03*
G04 #@! TO.P,U1,24*
G04 #@! TO.N,Net-(U1-Pad24)*
X125730000Y-90170000D03*
G04 #@! TO.P,U1,25*
G04 #@! TO.N,Net-(U1-Pad25)*
X125730000Y-87630000D03*
G04 #@! TO.P,U1,26*
G04 #@! TO.N,+5V*
X125730000Y-85090000D03*
G04 #@! TO.P,U1,27*
G04 #@! TO.N,Net-(U1-Pad27)*
X125730000Y-82550000D03*
G04 #@! TO.P,U1,28*
G04 #@! TO.N,Net-(U1-Pad28)*
X125730000Y-80010000D03*
G04 #@! TO.P,U1,2*
G04 #@! TO.N,+3V3*
X105410000Y-72390000D03*
G04 #@! TD*
D20*
G04 #@! TO.P,U2,1*
G04 #@! TO.N,+12V*
X142875000Y-90170000D03*
D21*
G04 #@! TO.P,U2,2*
G04 #@! TO.N,GND*
X142875000Y-87630000D03*
G04 #@! TO.P,U2,3*
G04 #@! TO.N,+5V*
X142875000Y-85090000D03*
G04 #@! TD*
D18*
G04 #@! TO.P,J2,1*
G04 #@! TO.N,Net-(J2-Pad1)*
X185420000Y-102235000D03*
D15*
G04 #@! TO.P,J2,2*
G04 #@! TO.N,Net-(J2-Pad2)*
X185420000Y-105005000D03*
G04 #@! TO.P,J2,3*
G04 #@! TO.N,Net-(J2-Pad3)*
X185420000Y-107775000D03*
G04 #@! TO.P,J2,4*
G04 #@! TO.N,Net-(J2-Pad4)*
X185420000Y-110545000D03*
G04 #@! TO.P,J2,5*
G04 #@! TO.N,Net-(J2-Pad5)*
X185420000Y-113315000D03*
G04 #@! TO.P,J2,6*
G04 #@! TO.N,/MODE*
X188260000Y-103620000D03*
G04 #@! TO.P,J2,7*
G04 #@! TO.N,+12V*
X188260000Y-106390000D03*
G04 #@! TO.P,J2,8*
G04 #@! TO.N,GND*
X188260000Y-109160000D03*
G04 #@! TO.P,J2,9*
G04 #@! TO.N,Net-(J2-Pad9)*
X188260000Y-111930000D03*
D22*
G04 #@! TO.P,J2,0*
G04 #@! TO.N,N/C*
X186840000Y-120275000D03*
X186840000Y-95275000D03*
G04 #@! TD*
D15*
G04 #@! TO.P,R3,1*
G04 #@! TO.N,/REF_BUF*
X168910000Y-115570000D03*
D16*
G04 #@! TO.P,R3,2*
G04 #@! TO.N,Net-(J2-Pad3)*
X179070000Y-115570000D03*
G04 #@! TD*
G04 #@! TO.P,R2,2*
G04 #@! TO.N,Net-(J2-Pad2)*
X179070000Y-110490000D03*
D15*
G04 #@! TO.P,R2,1*
G04 #@! TO.N,/DIR_BUF*
X168910000Y-110490000D03*
G04 #@! TD*
G04 #@! TO.P,R1,1*
G04 #@! TO.N,/SPEED_BUF*
X168910000Y-106045000D03*
D16*
G04 #@! TO.P,R1,2*
G04 #@! TO.N,Net-(J2-Pad1)*
X179070000Y-106045000D03*
G04 #@! TD*
D23*
G04 #@! TO.N,GND*
X108585000Y-77470000D03*
X147955000Y-87630000D03*
X144145000Y-72390000D03*
X190754000Y-109220000D03*
X189230000Y-73660000D03*
X157480000Y-72390000D03*
G04 #@! TO.N,Net-(RV1-Pad2)*
X117475000Y-74295000D03*
X122555000Y-74295000D03*
G04 #@! TO.N,+3V3*
X128270000Y-111125000D03*
G04 #@! TO.N,Net-(RV2-Pad2)*
X122555000Y-76835000D03*
X117475000Y-76835000D03*
G04 #@! TO.N,+12V*
X142875000Y-99060000D03*
G04 #@! TO.N,/SPEED*
X130810000Y-106680000D03*
G04 #@! TO.N,/REF*
X131445000Y-102235000D03*
G04 #@! TO.N,/DIR*
X144780000Y-108712000D03*
G04 #@! TO.N,/MOSI*
X128905000Y-113665000D03*
G04 #@! TO.N,/SCK*
X130810000Y-115570000D03*
G04 #@! TO.N,/CS*
X140970000Y-115570000D03*
G04 #@! TO.N,/SPEED_BUF*
X173990000Y-116205000D03*
X173990000Y-120015000D03*
G04 #@! TO.N,Net-(R5-Pad2)*
X117475000Y-80010000D03*
X133350000Y-81915000D03*
G04 #@! TD*
D24*
G04 #@! TO.N,GND*
X133675000Y-110830000D02*
X133675000Y-111480000D01*
X136312000Y-110830000D02*
X133675000Y-110830000D01*
X139375000Y-110180000D02*
X136962000Y-110180000D01*
X136962000Y-110180000D02*
X136312000Y-110830000D01*
X140179000Y-110180000D02*
X140184200Y-110185200D01*
X139375000Y-110180000D02*
X140179000Y-110180000D01*
X140184200Y-110185200D02*
X141351000Y-110185200D01*
X133675000Y-110830000D02*
X131816200Y-110830000D01*
X133675000Y-106280000D02*
X133675000Y-105237400D01*
X139375000Y-106280000D02*
X139375000Y-105161200D01*
X131064000Y-104394000D02*
X131318000Y-104394000D01*
X129387610Y-106070390D02*
X131064000Y-104394000D01*
X129387610Y-107289610D02*
X129387610Y-106070390D01*
X133675000Y-108230000D02*
X130328000Y-108230000D01*
X130328000Y-108230000D02*
X129387610Y-107289610D01*
X133675000Y-111480000D02*
X133025000Y-111480000D01*
X133675000Y-106280000D02*
X133025000Y-106280000D01*
X139375000Y-106280000D02*
X140175000Y-106280000D01*
D25*
G04 #@! TO.N,Net-(RV1-Pad2)*
X117475000Y-74295000D02*
X122555000Y-74295000D01*
D24*
G04 #@! TO.N,+3V3*
X133675000Y-112130000D02*
X134529800Y-112130000D01*
X134529800Y-112130000D02*
X139375000Y-112130000D01*
X129275000Y-112130000D02*
X133675000Y-112130000D01*
X128270000Y-111125000D02*
X129275000Y-112130000D01*
X139375000Y-112130000D02*
X140175000Y-112130000D01*
D25*
G04 #@! TO.N,Net-(RV2-Pad2)*
X122555000Y-76835000D02*
X117475000Y-76835000D01*
D24*
G04 #@! TO.N,+12V*
X134529800Y-110180000D02*
X135255000Y-109454800D01*
X133675000Y-110180000D02*
X134529800Y-110180000D01*
X133675000Y-106930000D02*
X135255000Y-106930000D01*
X135255000Y-106930000D02*
X139375000Y-106930000D01*
X135087000Y-108880000D02*
X135255000Y-108712000D01*
X133675000Y-108880000D02*
X135087000Y-108880000D01*
X135255000Y-109454800D02*
X135255000Y-108712000D01*
X135255000Y-108712000D02*
X135255000Y-106930000D01*
X133675000Y-106930000D02*
X133025000Y-106930000D01*
X133675000Y-108880000D02*
X133025000Y-108880000D01*
X133675000Y-110180000D02*
X133025000Y-110180000D01*
X139375000Y-106930000D02*
X141990000Y-106930000D01*
X141990000Y-106930000D02*
X142875000Y-106045000D01*
X142875000Y-106045000D02*
X142875000Y-99060000D01*
G04 #@! TO.N,/SPEED*
X130810000Y-106680000D02*
X131826000Y-106680000D01*
X131826000Y-106680000D02*
X132726000Y-107580000D01*
X132726000Y-107580000D02*
X133675000Y-107580000D01*
G04 #@! TO.N,/REF*
X131445000Y-102235000D02*
X128270000Y-105410000D01*
X128270000Y-105410000D02*
X128270000Y-107442000D01*
X128270000Y-107442000D02*
X130358000Y-109530000D01*
X130358000Y-109530000D02*
X133675000Y-109530000D01*
G04 #@! TO.N,Net-(U3-Pad16)*
X139375000Y-111480000D02*
X140175000Y-111480000D01*
G04 #@! TO.N,Net-(U3-Pad17)*
X139375000Y-110830000D02*
X140175000Y-110830000D01*
G04 #@! TO.N,Net-(U3-Pad19)*
X139375000Y-109530000D02*
X140175000Y-109530000D01*
G04 #@! TO.N,Net-(U3-Pad20)*
X139375000Y-108880000D02*
X140175000Y-108880000D01*
G04 #@! TO.N,Net-(U3-Pad21)*
X139375000Y-108230000D02*
X140175000Y-108230000D01*
G04 #@! TO.N,/DIR*
X144018001Y-107950001D02*
X144780000Y-108712000D01*
X143648000Y-107580000D02*
X144018001Y-107950001D01*
X139375000Y-107580000D02*
X143648000Y-107580000D01*
D25*
G04 #@! TO.N,Net-(J2-Pad2)*
X179125000Y-110545000D02*
X179070000Y-110490000D01*
D24*
G04 #@! TO.N,/MOSI*
X128905000Y-113665000D02*
X129790000Y-112780000D01*
X129790000Y-112780000D02*
X133675000Y-112780000D01*
G04 #@! TO.N,/SCK*
X130810000Y-115570000D02*
X130810000Y-113792000D01*
X130810000Y-113792000D02*
X131172000Y-113430000D01*
X131172000Y-113430000D02*
X133675000Y-113430000D01*
G04 #@! TO.N,/CS*
X140100000Y-113430000D02*
X139375000Y-113430000D01*
X140970000Y-115570000D02*
X140970000Y-114300000D01*
X140970000Y-114300000D02*
X140100000Y-113430000D01*
D25*
G04 #@! TO.N,/SPEED_BUF*
X173990000Y-116205000D02*
X173990000Y-120015000D01*
D24*
G04 #@! TO.N,/RES*
X141990000Y-112780000D02*
X142240000Y-113030000D01*
X139375000Y-112780000D02*
X141990000Y-112780000D01*
D25*
G04 #@! TO.N,Net-(R5-Pad2)*
X122555000Y-80010000D02*
X117475000Y-80010000D01*
X124460000Y-78105000D02*
X122555000Y-80010000D01*
X127635000Y-78105000D02*
X124460000Y-78105000D01*
X133350000Y-81915000D02*
X131445000Y-81915000D01*
X131445000Y-81915000D02*
X127635000Y-78105000D01*
G04 #@! TD*
D26*
G04 #@! TO.N,GND*
G36*
X158484000Y-66599867D02*
X158484000Y-66990133D01*
X158633348Y-67350692D01*
X158909308Y-67626652D01*
X159269867Y-67776000D01*
X159660133Y-67776000D01*
X160020692Y-67626652D01*
X160296652Y-67350692D01*
X160446000Y-66990133D01*
X160446000Y-66599867D01*
X160402977Y-66496000D01*
X168527023Y-66496000D01*
X168484000Y-66599867D01*
X168484000Y-66990133D01*
X168633348Y-67350692D01*
X168909308Y-67626652D01*
X169269867Y-67776000D01*
X169660133Y-67776000D01*
X170020692Y-67626652D01*
X170296652Y-67350692D01*
X170446000Y-66990133D01*
X170446000Y-66599867D01*
X170402977Y-66496000D01*
X195759000Y-66496000D01*
X195759001Y-124639000D01*
X102056000Y-124639000D01*
X102056000Y-123539041D01*
X140848086Y-123539041D01*
X141087611Y-124045134D01*
X141502577Y-124421041D01*
X141890961Y-124581904D01*
X142113000Y-124459915D01*
X142113000Y-123317000D01*
X142367000Y-123317000D01*
X142367000Y-124459915D01*
X142589039Y-124581904D01*
X142977423Y-124421041D01*
X143392389Y-124045134D01*
X143631914Y-123539041D01*
X143510629Y-123317000D01*
X142367000Y-123317000D01*
X142113000Y-123317000D01*
X140969371Y-123317000D01*
X140848086Y-123539041D01*
X102056000Y-123539041D01*
X102056000Y-122840959D01*
X140848086Y-122840959D01*
X140969371Y-123063000D01*
X142113000Y-123063000D01*
X142113000Y-121920085D01*
X142367000Y-121920085D01*
X142367000Y-123063000D01*
X143510629Y-123063000D01*
X143631914Y-122840959D01*
X143392389Y-122334866D01*
X142977423Y-121958959D01*
X142589039Y-121798096D01*
X142367000Y-121920085D01*
X142113000Y-121920085D01*
X141890961Y-121798096D01*
X141502577Y-121958959D01*
X141087611Y-122334866D01*
X140848086Y-122840959D01*
X102056000Y-122840959D01*
X102056000Y-110897643D01*
X127127000Y-110897643D01*
X127127000Y-111352357D01*
X127301011Y-111772458D01*
X127622542Y-112093989D01*
X128042643Y-112268000D01*
X128497357Y-112268000D01*
X128611415Y-112220756D01*
X128860686Y-112470028D01*
X128890441Y-112514559D01*
X128901577Y-112522000D01*
X128677643Y-112522000D01*
X128257542Y-112696011D01*
X127936011Y-113017542D01*
X127762000Y-113437643D01*
X127762000Y-113892357D01*
X127936011Y-114312458D01*
X128257542Y-114633989D01*
X128677643Y-114808000D01*
X129132357Y-114808000D01*
X129552458Y-114633989D01*
X129873989Y-114312458D01*
X130048000Y-113892357D01*
X130048000Y-113437643D01*
X130000756Y-113323585D01*
X130010941Y-113313400D01*
X130534260Y-113313400D01*
X130469975Y-113377685D01*
X130425442Y-113407441D01*
X130395686Y-113451974D01*
X130395685Y-113451975D01*
X130307550Y-113583878D01*
X130266152Y-113792000D01*
X130276601Y-113844530D01*
X130276601Y-114553767D01*
X130162542Y-114601011D01*
X129841011Y-114922542D01*
X129667000Y-115342643D01*
X129667000Y-115797357D01*
X129841011Y-116217458D01*
X130162542Y-116538989D01*
X130582643Y-116713000D01*
X131037357Y-116713000D01*
X131457458Y-116538989D01*
X131778989Y-116217458D01*
X131953000Y-115797357D01*
X131953000Y-115342643D01*
X131778989Y-114922542D01*
X131457458Y-114601011D01*
X131343400Y-114553767D01*
X131343400Y-114012940D01*
X131392941Y-113963400D01*
X132938186Y-113963400D01*
X132976341Y-113988894D01*
X133125000Y-114018464D01*
X134225000Y-114018464D01*
X134373659Y-113988894D01*
X134499686Y-113904686D01*
X134583894Y-113778659D01*
X134613464Y-113630000D01*
X134613464Y-113230000D01*
X134588600Y-113105000D01*
X134613464Y-112980000D01*
X134613464Y-112663400D01*
X138436536Y-112663400D01*
X138436536Y-112980000D01*
X138461400Y-113105000D01*
X138436536Y-113230000D01*
X138436536Y-113630000D01*
X138466106Y-113778659D01*
X138550314Y-113904686D01*
X138676341Y-113988894D01*
X138825000Y-114018464D01*
X139925000Y-114018464D01*
X139932610Y-114016950D01*
X140436601Y-114520942D01*
X140436601Y-114553766D01*
X140322542Y-114601011D01*
X140001011Y-114922542D01*
X139827000Y-115342643D01*
X139827000Y-115797357D01*
X140001011Y-116217458D01*
X140322542Y-116538989D01*
X140742643Y-116713000D01*
X141197357Y-116713000D01*
X141617458Y-116538989D01*
X141938989Y-116217458D01*
X142113000Y-115797357D01*
X142113000Y-115342643D01*
X142109870Y-115335085D01*
X167729000Y-115335085D01*
X167729000Y-115804915D01*
X167908797Y-116238983D01*
X168241017Y-116571203D01*
X168675085Y-116751000D01*
X169144915Y-116751000D01*
X169578983Y-116571203D01*
X169911203Y-116238983D01*
X170019453Y-115977643D01*
X172847000Y-115977643D01*
X172847000Y-116432357D01*
X173021011Y-116852458D01*
X173342542Y-117173989D01*
X173380400Y-117189670D01*
X173380401Y-119030329D01*
X173342542Y-119046011D01*
X173021011Y-119367542D01*
X172847000Y-119787643D01*
X172847000Y-120242357D01*
X173021011Y-120662458D01*
X173342542Y-120983989D01*
X173762643Y-121158000D01*
X174217357Y-121158000D01*
X174637458Y-120983989D01*
X174958989Y-120662458D01*
X175133000Y-120242357D01*
X175133000Y-119801390D01*
X184459000Y-119801390D01*
X184459000Y-120748610D01*
X184821485Y-121623728D01*
X185491272Y-122293515D01*
X186366390Y-122656000D01*
X187313610Y-122656000D01*
X188188728Y-122293515D01*
X188858515Y-121623728D01*
X189221000Y-120748610D01*
X189221000Y-119801390D01*
X188858515Y-118926272D01*
X188188728Y-118256485D01*
X187313610Y-117894000D01*
X186366390Y-117894000D01*
X185491272Y-118256485D01*
X184821485Y-118926272D01*
X184459000Y-119801390D01*
X175133000Y-119801390D01*
X175133000Y-119787643D01*
X174958989Y-119367542D01*
X174637458Y-119046011D01*
X174599600Y-119030330D01*
X174599600Y-117189670D01*
X174637458Y-117173989D01*
X174958989Y-116852458D01*
X175133000Y-116432357D01*
X175133000Y-115977643D01*
X174964150Y-115570000D01*
X177865863Y-115570000D01*
X177957522Y-116030803D01*
X178218547Y-116421453D01*
X178609197Y-116682478D01*
X178953682Y-116751000D01*
X179186318Y-116751000D01*
X179530803Y-116682478D01*
X179921453Y-116421453D01*
X180182478Y-116030803D01*
X180274137Y-115570000D01*
X180182478Y-115109197D01*
X179921453Y-114718547D01*
X179530803Y-114457522D01*
X179186318Y-114389000D01*
X178953682Y-114389000D01*
X178609197Y-114457522D01*
X178218547Y-114718547D01*
X177957522Y-115109197D01*
X177865863Y-115570000D01*
X174964150Y-115570000D01*
X174958989Y-115557542D01*
X174637458Y-115236011D01*
X174217357Y-115062000D01*
X173762643Y-115062000D01*
X173342542Y-115236011D01*
X173021011Y-115557542D01*
X172847000Y-115977643D01*
X170019453Y-115977643D01*
X170091000Y-115804915D01*
X170091000Y-115335085D01*
X169911203Y-114901017D01*
X169578983Y-114568797D01*
X169144915Y-114389000D01*
X168675085Y-114389000D01*
X168241017Y-114568797D01*
X167908797Y-114901017D01*
X167729000Y-115335085D01*
X142109870Y-115335085D01*
X141938989Y-114922542D01*
X141617458Y-114601011D01*
X141503400Y-114553767D01*
X141503400Y-114352527D01*
X141513848Y-114300000D01*
X141503400Y-114247473D01*
X141503400Y-114247469D01*
X141472451Y-114091878D01*
X141354559Y-113915441D01*
X141310025Y-113885684D01*
X140737740Y-113313400D01*
X141079083Y-113313400D01*
X141238797Y-113698983D01*
X141571017Y-114031203D01*
X142005085Y-114211000D01*
X142474915Y-114211000D01*
X142908983Y-114031203D01*
X143241203Y-113698983D01*
X143421000Y-113264915D01*
X143421000Y-112865000D01*
X145496536Y-112865000D01*
X145496536Y-114465000D01*
X145526106Y-114613659D01*
X145610314Y-114739686D01*
X145736341Y-114823894D01*
X145885000Y-114853464D01*
X147485000Y-114853464D01*
X147633659Y-114823894D01*
X147759686Y-114739686D01*
X147843894Y-114613659D01*
X147873464Y-114465000D01*
X147873464Y-113665000D01*
X148020863Y-113665000D01*
X148112522Y-114125803D01*
X148373547Y-114516453D01*
X148764197Y-114777478D01*
X149108682Y-114846000D01*
X149341318Y-114846000D01*
X149685803Y-114777478D01*
X150076453Y-114516453D01*
X150337478Y-114125803D01*
X150429137Y-113665000D01*
X150560863Y-113665000D01*
X150652522Y-114125803D01*
X150913547Y-114516453D01*
X151304197Y-114777478D01*
X151648682Y-114846000D01*
X151881318Y-114846000D01*
X152225803Y-114777478D01*
X152616453Y-114516453D01*
X152877478Y-114125803D01*
X152969137Y-113665000D01*
X153100863Y-113665000D01*
X153192522Y-114125803D01*
X153453547Y-114516453D01*
X153844197Y-114777478D01*
X154188682Y-114846000D01*
X154421318Y-114846000D01*
X154765803Y-114777478D01*
X155156453Y-114516453D01*
X155417478Y-114125803D01*
X155509137Y-113665000D01*
X155640863Y-113665000D01*
X155732522Y-114125803D01*
X155993547Y-114516453D01*
X156384197Y-114777478D01*
X156728682Y-114846000D01*
X156961318Y-114846000D01*
X157305803Y-114777478D01*
X157696453Y-114516453D01*
X157957478Y-114125803D01*
X158049137Y-113665000D01*
X158180863Y-113665000D01*
X158272522Y-114125803D01*
X158533547Y-114516453D01*
X158924197Y-114777478D01*
X159268682Y-114846000D01*
X159501318Y-114846000D01*
X159845803Y-114777478D01*
X160236453Y-114516453D01*
X160497478Y-114125803D01*
X160589137Y-113665000D01*
X160720863Y-113665000D01*
X160812522Y-114125803D01*
X161073547Y-114516453D01*
X161464197Y-114777478D01*
X161808682Y-114846000D01*
X162041318Y-114846000D01*
X162385803Y-114777478D01*
X162776453Y-114516453D01*
X163037478Y-114125803D01*
X163129137Y-113665000D01*
X163037478Y-113204197D01*
X162954549Y-113080085D01*
X184239000Y-113080085D01*
X184239000Y-113549915D01*
X184418797Y-113983983D01*
X184751017Y-114316203D01*
X185185085Y-114496000D01*
X185654915Y-114496000D01*
X186088983Y-114316203D01*
X186421203Y-113983983D01*
X186601000Y-113549915D01*
X186601000Y-113080085D01*
X186421203Y-112646017D01*
X186088983Y-112313797D01*
X185654915Y-112134000D01*
X185185085Y-112134000D01*
X184751017Y-112313797D01*
X184418797Y-112646017D01*
X184239000Y-113080085D01*
X162954549Y-113080085D01*
X162776453Y-112813547D01*
X162385803Y-112552522D01*
X162041318Y-112484000D01*
X161808682Y-112484000D01*
X161464197Y-112552522D01*
X161073547Y-112813547D01*
X160812522Y-113204197D01*
X160720863Y-113665000D01*
X160589137Y-113665000D01*
X160497478Y-113204197D01*
X160236453Y-112813547D01*
X159845803Y-112552522D01*
X159501318Y-112484000D01*
X159268682Y-112484000D01*
X158924197Y-112552522D01*
X158533547Y-112813547D01*
X158272522Y-113204197D01*
X158180863Y-113665000D01*
X158049137Y-113665000D01*
X157957478Y-113204197D01*
X157696453Y-112813547D01*
X157305803Y-112552522D01*
X156961318Y-112484000D01*
X156728682Y-112484000D01*
X156384197Y-112552522D01*
X155993547Y-112813547D01*
X155732522Y-113204197D01*
X155640863Y-113665000D01*
X155509137Y-113665000D01*
X155417478Y-113204197D01*
X155156453Y-112813547D01*
X154765803Y-112552522D01*
X154421318Y-112484000D01*
X154188682Y-112484000D01*
X153844197Y-112552522D01*
X153453547Y-112813547D01*
X153192522Y-113204197D01*
X153100863Y-113665000D01*
X152969137Y-113665000D01*
X152877478Y-113204197D01*
X152616453Y-112813547D01*
X152225803Y-112552522D01*
X151881318Y-112484000D01*
X151648682Y-112484000D01*
X151304197Y-112552522D01*
X150913547Y-112813547D01*
X150652522Y-113204197D01*
X150560863Y-113665000D01*
X150429137Y-113665000D01*
X150337478Y-113204197D01*
X150076453Y-112813547D01*
X149685803Y-112552522D01*
X149341318Y-112484000D01*
X149108682Y-112484000D01*
X148764197Y-112552522D01*
X148373547Y-112813547D01*
X148112522Y-113204197D01*
X148020863Y-113665000D01*
X147873464Y-113665000D01*
X147873464Y-112865000D01*
X147843894Y-112716341D01*
X147759686Y-112590314D01*
X147633659Y-112506106D01*
X147485000Y-112476536D01*
X145885000Y-112476536D01*
X145736341Y-112506106D01*
X145610314Y-112590314D01*
X145526106Y-112716341D01*
X145496536Y-112865000D01*
X143421000Y-112865000D01*
X143421000Y-112795085D01*
X143241203Y-112361017D01*
X142908983Y-112028797D01*
X142474915Y-111849000D01*
X142005085Y-111849000D01*
X141571017Y-112028797D01*
X141353214Y-112246600D01*
X140695656Y-112246600D01*
X140718849Y-112130000D01*
X140677451Y-111921878D01*
X140599355Y-111805000D01*
X140677451Y-111688122D01*
X140718849Y-111480000D01*
X140677451Y-111271878D01*
X140599355Y-111155000D01*
X140677451Y-111038122D01*
X140718849Y-110830000D01*
X140677451Y-110621878D01*
X140560000Y-110446101D01*
X140560000Y-110438750D01*
X140401250Y-110280000D01*
X140086970Y-110280000D01*
X140073659Y-110271106D01*
X139993116Y-110255085D01*
X167729000Y-110255085D01*
X167729000Y-110724915D01*
X167908797Y-111158983D01*
X168241017Y-111491203D01*
X168675085Y-111671000D01*
X169144915Y-111671000D01*
X169578983Y-111491203D01*
X169911203Y-111158983D01*
X170091000Y-110724915D01*
X170091000Y-110490000D01*
X177865863Y-110490000D01*
X177957522Y-110950803D01*
X178218547Y-111341453D01*
X178609197Y-111602478D01*
X178953682Y-111671000D01*
X179186318Y-111671000D01*
X179530803Y-111602478D01*
X179921453Y-111341453D01*
X180182478Y-110950803D01*
X180274137Y-110490000D01*
X180238350Y-110310085D01*
X184239000Y-110310085D01*
X184239000Y-110779915D01*
X184418797Y-111213983D01*
X184751017Y-111546203D01*
X185185085Y-111726000D01*
X185654915Y-111726000D01*
X185729550Y-111695085D01*
X187079000Y-111695085D01*
X187079000Y-112164915D01*
X187258797Y-112598983D01*
X187591017Y-112931203D01*
X188025085Y-113111000D01*
X188494915Y-113111000D01*
X188928983Y-112931203D01*
X189261203Y-112598983D01*
X189441000Y-112164915D01*
X189441000Y-111695085D01*
X189261203Y-111261017D01*
X188928983Y-110928797D01*
X188494915Y-110749000D01*
X188025085Y-110749000D01*
X187591017Y-110928797D01*
X187258797Y-111261017D01*
X187079000Y-111695085D01*
X185729550Y-111695085D01*
X186088983Y-111546203D01*
X186421203Y-111213983D01*
X186601000Y-110779915D01*
X186601000Y-110310085D01*
X186542041Y-110167745D01*
X187431861Y-110167745D01*
X187505995Y-110413864D01*
X188043223Y-110606965D01*
X188613454Y-110579778D01*
X189014005Y-110413864D01*
X189088139Y-110167745D01*
X188260000Y-109339605D01*
X187431861Y-110167745D01*
X186542041Y-110167745D01*
X186421203Y-109876017D01*
X186088983Y-109543797D01*
X185654915Y-109364000D01*
X185185085Y-109364000D01*
X184751017Y-109543797D01*
X184418797Y-109876017D01*
X184239000Y-110310085D01*
X180238350Y-110310085D01*
X180182478Y-110029197D01*
X179921453Y-109638547D01*
X179530803Y-109377522D01*
X179186318Y-109309000D01*
X178953682Y-109309000D01*
X178609197Y-109377522D01*
X178218547Y-109638547D01*
X177957522Y-110029197D01*
X177865863Y-110490000D01*
X170091000Y-110490000D01*
X170091000Y-110255085D01*
X169911203Y-109821017D01*
X169578983Y-109488797D01*
X169144915Y-109309000D01*
X168675085Y-109309000D01*
X168241017Y-109488797D01*
X167908797Y-109821017D01*
X167729000Y-110255085D01*
X139993116Y-110255085D01*
X139925000Y-110241536D01*
X138825000Y-110241536D01*
X138676341Y-110271106D01*
X138663030Y-110280000D01*
X138348750Y-110280000D01*
X138190000Y-110438750D01*
X138190000Y-110506310D01*
X138286673Y-110739699D01*
X138436536Y-110889561D01*
X138436536Y-111030000D01*
X138461400Y-111155000D01*
X138436536Y-111280000D01*
X138436536Y-111596600D01*
X134717850Y-111596600D01*
X134701250Y-111580000D01*
X134556517Y-111580000D01*
X134584698Y-111568327D01*
X134763327Y-111389699D01*
X134814080Y-111267170D01*
X134860000Y-111221250D01*
X134860000Y-111088750D01*
X134814080Y-111042830D01*
X134763327Y-110920301D01*
X134584698Y-110741673D01*
X134556517Y-110730000D01*
X134701250Y-110730000D01*
X134770702Y-110660548D01*
X134914359Y-110564559D01*
X134944117Y-110520023D01*
X135595029Y-109869113D01*
X135639559Y-109839359D01*
X135669313Y-109794829D01*
X135669316Y-109794826D01*
X135757451Y-109662922D01*
X135765929Y-109620301D01*
X135788400Y-109507331D01*
X135788400Y-109507327D01*
X135798848Y-109454800D01*
X135788400Y-109402273D01*
X135788400Y-108764527D01*
X135798848Y-108712000D01*
X135788400Y-108659473D01*
X135788400Y-107463400D01*
X138436536Y-107463400D01*
X138436536Y-107780000D01*
X138461400Y-107905000D01*
X138436536Y-108030000D01*
X138436536Y-108430000D01*
X138461400Y-108555000D01*
X138436536Y-108680000D01*
X138436536Y-109080000D01*
X138461400Y-109205000D01*
X138436536Y-109330000D01*
X138436536Y-109470439D01*
X138286673Y-109620301D01*
X138190000Y-109853690D01*
X138190000Y-109921250D01*
X138348750Y-110080000D01*
X138663030Y-110080000D01*
X138676341Y-110088894D01*
X138825000Y-110118464D01*
X139925000Y-110118464D01*
X140073659Y-110088894D01*
X140086970Y-110080000D01*
X140401250Y-110080000D01*
X140560000Y-109921250D01*
X140560000Y-109913899D01*
X140677451Y-109738122D01*
X140718849Y-109530000D01*
X140677451Y-109321878D01*
X140599355Y-109205000D01*
X140677451Y-109088122D01*
X140718849Y-108880000D01*
X140677451Y-108671878D01*
X140599355Y-108555000D01*
X140677451Y-108438122D01*
X140718849Y-108230000D01*
X140695656Y-108113400D01*
X143427059Y-108113400D01*
X143677974Y-108364316D01*
X143677980Y-108364320D01*
X143684244Y-108370585D01*
X143637000Y-108484643D01*
X143637000Y-108939357D01*
X143811011Y-109359458D01*
X144132542Y-109680989D01*
X144552643Y-109855000D01*
X145007357Y-109855000D01*
X145427458Y-109680989D01*
X145748989Y-109359458D01*
X145923000Y-108939357D01*
X145923000Y-108484643D01*
X145748989Y-108064542D01*
X145427458Y-107743011D01*
X145007357Y-107569000D01*
X144552643Y-107569000D01*
X144438585Y-107616244D01*
X144432320Y-107609980D01*
X144432316Y-107609974D01*
X144362427Y-107540085D01*
X184239000Y-107540085D01*
X184239000Y-108009915D01*
X184418797Y-108443983D01*
X184751017Y-108776203D01*
X185185085Y-108956000D01*
X185654915Y-108956000D01*
X185685761Y-108943223D01*
X186813035Y-108943223D01*
X186840222Y-109513454D01*
X187006136Y-109914005D01*
X187252255Y-109988139D01*
X188080395Y-109160000D01*
X188439605Y-109160000D01*
X189267745Y-109988139D01*
X189513864Y-109914005D01*
X189706965Y-109376777D01*
X189679778Y-108806546D01*
X189513864Y-108405995D01*
X189267745Y-108331861D01*
X188439605Y-109160000D01*
X188080395Y-109160000D01*
X187252255Y-108331861D01*
X187006136Y-108405995D01*
X186813035Y-108943223D01*
X185685761Y-108943223D01*
X186088983Y-108776203D01*
X186421203Y-108443983D01*
X186542040Y-108152255D01*
X187431861Y-108152255D01*
X188260000Y-108980395D01*
X189088139Y-108152255D01*
X189014005Y-107906136D01*
X188476777Y-107713035D01*
X187906546Y-107740222D01*
X187505995Y-107906136D01*
X187431861Y-108152255D01*
X186542040Y-108152255D01*
X186601000Y-108009915D01*
X186601000Y-107540085D01*
X186421203Y-107106017D01*
X186088983Y-106773797D01*
X185654915Y-106594000D01*
X185185085Y-106594000D01*
X184751017Y-106773797D01*
X184418797Y-107106017D01*
X184239000Y-107540085D01*
X144362427Y-107540085D01*
X144062317Y-107239976D01*
X144032559Y-107195441D01*
X143856122Y-107077549D01*
X143700531Y-107046600D01*
X143700526Y-107046600D01*
X143648000Y-107036152D01*
X143595474Y-107046600D01*
X142627740Y-107046600D01*
X143215026Y-106459315D01*
X143259559Y-106429559D01*
X143377451Y-106253122D01*
X143408400Y-106097531D01*
X143408400Y-106097527D01*
X143418848Y-106045001D01*
X143418848Y-106045000D01*
X145480863Y-106045000D01*
X145572522Y-106505803D01*
X145833547Y-106896453D01*
X146224197Y-107157478D01*
X146568682Y-107226000D01*
X146801318Y-107226000D01*
X147145803Y-107157478D01*
X147536453Y-106896453D01*
X147797478Y-106505803D01*
X147889137Y-106045000D01*
X148020863Y-106045000D01*
X148112522Y-106505803D01*
X148373547Y-106896453D01*
X148764197Y-107157478D01*
X149108682Y-107226000D01*
X149341318Y-107226000D01*
X149685803Y-107157478D01*
X150076453Y-106896453D01*
X150337478Y-106505803D01*
X150429137Y-106045000D01*
X150560863Y-106045000D01*
X150652522Y-106505803D01*
X150913547Y-106896453D01*
X151304197Y-107157478D01*
X151648682Y-107226000D01*
X151881318Y-107226000D01*
X152225803Y-107157478D01*
X152616453Y-106896453D01*
X152877478Y-106505803D01*
X152943875Y-106172002D01*
X153034370Y-106172002D01*
X152913086Y-106394041D01*
X153152611Y-106900134D01*
X153567577Y-107276041D01*
X153955961Y-107436904D01*
X154178000Y-107314915D01*
X154178000Y-106172000D01*
X154158000Y-106172000D01*
X154158000Y-105918000D01*
X154178000Y-105918000D01*
X154178000Y-104775085D01*
X154432000Y-104775085D01*
X154432000Y-105918000D01*
X154452000Y-105918000D01*
X154452000Y-106172000D01*
X154432000Y-106172000D01*
X154432000Y-107314915D01*
X154654039Y-107436904D01*
X155042423Y-107276041D01*
X155457389Y-106900134D01*
X155696914Y-106394041D01*
X155575630Y-106172002D01*
X155666125Y-106172002D01*
X155732522Y-106505803D01*
X155993547Y-106896453D01*
X156384197Y-107157478D01*
X156728682Y-107226000D01*
X156961318Y-107226000D01*
X157305803Y-107157478D01*
X157696453Y-106896453D01*
X157957478Y-106505803D01*
X158049137Y-106045000D01*
X158180863Y-106045000D01*
X158272522Y-106505803D01*
X158533547Y-106896453D01*
X158924197Y-107157478D01*
X159268682Y-107226000D01*
X159501318Y-107226000D01*
X159845803Y-107157478D01*
X160236453Y-106896453D01*
X160497478Y-106505803D01*
X160589137Y-106045000D01*
X160720863Y-106045000D01*
X160812522Y-106505803D01*
X161073547Y-106896453D01*
X161464197Y-107157478D01*
X161808682Y-107226000D01*
X162041318Y-107226000D01*
X162385803Y-107157478D01*
X162776453Y-106896453D01*
X163037478Y-106505803D01*
X163129137Y-106045000D01*
X163082410Y-105810085D01*
X167729000Y-105810085D01*
X167729000Y-106279915D01*
X167908797Y-106713983D01*
X168241017Y-107046203D01*
X168675085Y-107226000D01*
X169144915Y-107226000D01*
X169578983Y-107046203D01*
X169911203Y-106713983D01*
X170091000Y-106279915D01*
X170091000Y-106045000D01*
X177865863Y-106045000D01*
X177957522Y-106505803D01*
X178218547Y-106896453D01*
X178609197Y-107157478D01*
X178953682Y-107226000D01*
X179186318Y-107226000D01*
X179530803Y-107157478D01*
X179921453Y-106896453D01*
X180182478Y-106505803D01*
X180274137Y-106045000D01*
X180182478Y-105584197D01*
X179921453Y-105193547D01*
X179530803Y-104932522D01*
X179186318Y-104864000D01*
X178953682Y-104864000D01*
X178609197Y-104932522D01*
X178218547Y-105193547D01*
X177957522Y-105584197D01*
X177865863Y-106045000D01*
X170091000Y-106045000D01*
X170091000Y-105810085D01*
X169911203Y-105376017D01*
X169578983Y-105043797D01*
X169144915Y-104864000D01*
X168675085Y-104864000D01*
X168241017Y-105043797D01*
X167908797Y-105376017D01*
X167729000Y-105810085D01*
X163082410Y-105810085D01*
X163037478Y-105584197D01*
X162776453Y-105193547D01*
X162385803Y-104932522D01*
X162041318Y-104864000D01*
X161808682Y-104864000D01*
X161464197Y-104932522D01*
X161073547Y-105193547D01*
X160812522Y-105584197D01*
X160720863Y-106045000D01*
X160589137Y-106045000D01*
X160497478Y-105584197D01*
X160236453Y-105193547D01*
X159845803Y-104932522D01*
X159501318Y-104864000D01*
X159268682Y-104864000D01*
X158924197Y-104932522D01*
X158533547Y-105193547D01*
X158272522Y-105584197D01*
X158180863Y-106045000D01*
X158049137Y-106045000D01*
X157957478Y-105584197D01*
X157696453Y-105193547D01*
X157305803Y-104932522D01*
X156961318Y-104864000D01*
X156728682Y-104864000D01*
X156384197Y-104932522D01*
X155993547Y-105193547D01*
X155732522Y-105584197D01*
X155666125Y-105917998D01*
X155575630Y-105917998D01*
X155696914Y-105695959D01*
X155457389Y-105189866D01*
X155042423Y-104813959D01*
X154936495Y-104770085D01*
X184239000Y-104770085D01*
X184239000Y-105239915D01*
X184418797Y-105673983D01*
X184751017Y-106006203D01*
X185185085Y-106186000D01*
X185654915Y-106186000D01*
X185729550Y-106155085D01*
X187079000Y-106155085D01*
X187079000Y-106624915D01*
X187258797Y-107058983D01*
X187591017Y-107391203D01*
X188025085Y-107571000D01*
X188494915Y-107571000D01*
X188928983Y-107391203D01*
X189261203Y-107058983D01*
X189441000Y-106624915D01*
X189441000Y-106155085D01*
X189261203Y-105721017D01*
X188928983Y-105388797D01*
X188494915Y-105209000D01*
X188025085Y-105209000D01*
X187591017Y-105388797D01*
X187258797Y-105721017D01*
X187079000Y-106155085D01*
X185729550Y-106155085D01*
X186088983Y-106006203D01*
X186421203Y-105673983D01*
X186601000Y-105239915D01*
X186601000Y-104770085D01*
X186421203Y-104336017D01*
X186088983Y-104003797D01*
X185654915Y-103824000D01*
X185185085Y-103824000D01*
X184751017Y-104003797D01*
X184418797Y-104336017D01*
X184239000Y-104770085D01*
X154936495Y-104770085D01*
X154654039Y-104653096D01*
X154432000Y-104775085D01*
X154178000Y-104775085D01*
X153955961Y-104653096D01*
X153567577Y-104813959D01*
X153152611Y-105189866D01*
X152913086Y-105695959D01*
X153034370Y-105917998D01*
X152943875Y-105917998D01*
X152877478Y-105584197D01*
X152616453Y-105193547D01*
X152225803Y-104932522D01*
X151881318Y-104864000D01*
X151648682Y-104864000D01*
X151304197Y-104932522D01*
X150913547Y-105193547D01*
X150652522Y-105584197D01*
X150560863Y-106045000D01*
X150429137Y-106045000D01*
X150337478Y-105584197D01*
X150076453Y-105193547D01*
X149685803Y-104932522D01*
X149341318Y-104864000D01*
X149108682Y-104864000D01*
X148764197Y-104932522D01*
X148373547Y-105193547D01*
X148112522Y-105584197D01*
X148020863Y-106045000D01*
X147889137Y-106045000D01*
X147797478Y-105584197D01*
X147536453Y-105193547D01*
X147145803Y-104932522D01*
X146801318Y-104864000D01*
X146568682Y-104864000D01*
X146224197Y-104932522D01*
X145833547Y-105193547D01*
X145572522Y-105584197D01*
X145480863Y-106045000D01*
X143418848Y-106045000D01*
X143408400Y-105992475D01*
X143408400Y-101435000D01*
X184231536Y-101435000D01*
X184231536Y-103035000D01*
X184261106Y-103183659D01*
X184345314Y-103309686D01*
X184471341Y-103393894D01*
X184620000Y-103423464D01*
X186220000Y-103423464D01*
X186368659Y-103393894D01*
X186381842Y-103385085D01*
X187079000Y-103385085D01*
X187079000Y-103854915D01*
X187258797Y-104288983D01*
X187591017Y-104621203D01*
X188025085Y-104801000D01*
X188494915Y-104801000D01*
X188928983Y-104621203D01*
X189261203Y-104288983D01*
X189441000Y-103854915D01*
X189441000Y-103385085D01*
X189261203Y-102951017D01*
X188928983Y-102618797D01*
X188494915Y-102439000D01*
X188025085Y-102439000D01*
X187591017Y-102618797D01*
X187258797Y-102951017D01*
X187079000Y-103385085D01*
X186381842Y-103385085D01*
X186494686Y-103309686D01*
X186578894Y-103183659D01*
X186608464Y-103035000D01*
X186608464Y-101435000D01*
X186578894Y-101286341D01*
X186494686Y-101160314D01*
X186368659Y-101076106D01*
X186220000Y-101046536D01*
X184620000Y-101046536D01*
X184471341Y-101076106D01*
X184345314Y-101160314D01*
X184261106Y-101286341D01*
X184231536Y-101435000D01*
X143408400Y-101435000D01*
X143408400Y-100076233D01*
X143522458Y-100028989D01*
X143843989Y-99707458D01*
X144018000Y-99287357D01*
X144018000Y-98832643D01*
X143843989Y-98412542D01*
X143522458Y-98091011D01*
X143102357Y-97917000D01*
X142647643Y-97917000D01*
X142227542Y-98091011D01*
X141906011Y-98412542D01*
X141732000Y-98832643D01*
X141732000Y-99287357D01*
X141906011Y-99707458D01*
X142227542Y-100028989D01*
X142341601Y-100076234D01*
X142341600Y-105824059D01*
X141769060Y-106396600D01*
X140417850Y-106396600D01*
X140401250Y-106380000D01*
X140086970Y-106380000D01*
X140073659Y-106371106D01*
X139925000Y-106341536D01*
X138825000Y-106341536D01*
X138676341Y-106371106D01*
X138663030Y-106380000D01*
X138348750Y-106380000D01*
X138332150Y-106396600D01*
X135307531Y-106396600D01*
X135255000Y-106386151D01*
X135202470Y-106396600D01*
X134717850Y-106396600D01*
X134701250Y-106380000D01*
X134386970Y-106380000D01*
X134373659Y-106371106D01*
X134225000Y-106341536D01*
X133125000Y-106341536D01*
X132976341Y-106371106D01*
X132963030Y-106380000D01*
X132648750Y-106380000D01*
X132490000Y-106538750D01*
X132490000Y-106589660D01*
X132240317Y-106339977D01*
X132210559Y-106295441D01*
X132034122Y-106177549D01*
X131878531Y-106146600D01*
X131878526Y-106146600D01*
X131826000Y-106136152D01*
X131822217Y-106136904D01*
X131778989Y-106032542D01*
X131700137Y-105953690D01*
X132490000Y-105953690D01*
X132490000Y-106021250D01*
X132648750Y-106180000D01*
X133548000Y-106180000D01*
X133548000Y-105603750D01*
X133802000Y-105603750D01*
X133802000Y-106180000D01*
X134701250Y-106180000D01*
X134860000Y-106021250D01*
X134860000Y-105953690D01*
X138190000Y-105953690D01*
X138190000Y-106021250D01*
X138348750Y-106180000D01*
X139248000Y-106180000D01*
X139248000Y-105603750D01*
X139502000Y-105603750D01*
X139502000Y-106180000D01*
X140401250Y-106180000D01*
X140560000Y-106021250D01*
X140560000Y-105953690D01*
X140463327Y-105720301D01*
X140284698Y-105541673D01*
X140051309Y-105445000D01*
X139660750Y-105445000D01*
X139502000Y-105603750D01*
X139248000Y-105603750D01*
X139089250Y-105445000D01*
X138698691Y-105445000D01*
X138465302Y-105541673D01*
X138286673Y-105720301D01*
X138190000Y-105953690D01*
X134860000Y-105953690D01*
X134763327Y-105720301D01*
X134584698Y-105541673D01*
X134351309Y-105445000D01*
X133960750Y-105445000D01*
X133802000Y-105603750D01*
X133548000Y-105603750D01*
X133389250Y-105445000D01*
X132998691Y-105445000D01*
X132765302Y-105541673D01*
X132586673Y-105720301D01*
X132490000Y-105953690D01*
X131700137Y-105953690D01*
X131457458Y-105711011D01*
X131037357Y-105537000D01*
X130582643Y-105537000D01*
X130162542Y-105711011D01*
X129841011Y-106032542D01*
X129667000Y-106452643D01*
X129667000Y-106907357D01*
X129841011Y-107327458D01*
X130162542Y-107648989D01*
X130582643Y-107823000D01*
X131037357Y-107823000D01*
X131457458Y-107648989D01*
X131749053Y-107357394D01*
X132311684Y-107920025D01*
X132341441Y-107964559D01*
X132517878Y-108082451D01*
X132621890Y-108103140D01*
X132648750Y-108130000D01*
X132963030Y-108130000D01*
X132976341Y-108138894D01*
X133125000Y-108168464D01*
X133822000Y-108168464D01*
X133822000Y-108291536D01*
X133125000Y-108291536D01*
X132976341Y-108321106D01*
X132963030Y-108330000D01*
X132648750Y-108330000D01*
X132490000Y-108488750D01*
X132490000Y-108556310D01*
X132532007Y-108657723D01*
X132522549Y-108671878D01*
X132481151Y-108880000D01*
X132504344Y-108996600D01*
X130578941Y-108996600D01*
X128803400Y-107221060D01*
X128803400Y-105630940D01*
X131103585Y-103330756D01*
X131217643Y-103378000D01*
X131672357Y-103378000D01*
X132092458Y-103203989D01*
X132413989Y-102882458D01*
X132588000Y-102462357D01*
X132588000Y-102007643D01*
X132413989Y-101587542D01*
X132092458Y-101266011D01*
X131672357Y-101092000D01*
X131217643Y-101092000D01*
X130797542Y-101266011D01*
X130476011Y-101587542D01*
X130302000Y-102007643D01*
X130302000Y-102462357D01*
X130349244Y-102576415D01*
X127929977Y-104995683D01*
X127885441Y-105025441D01*
X127767549Y-105201879D01*
X127736600Y-105357470D01*
X127736600Y-105357474D01*
X127726152Y-105410000D01*
X127736600Y-105462526D01*
X127736601Y-107389470D01*
X127726152Y-107442000D01*
X127736601Y-107494531D01*
X127767550Y-107650122D01*
X127885442Y-107826559D01*
X127929975Y-107856315D01*
X129943685Y-109870025D01*
X129973441Y-109914559D01*
X130149878Y-110032451D01*
X130305469Y-110063400D01*
X130305473Y-110063400D01*
X130358000Y-110073848D01*
X130410527Y-110063400D01*
X132504344Y-110063400D01*
X132481151Y-110180000D01*
X132522549Y-110388122D01*
X132532007Y-110402277D01*
X132490000Y-110503690D01*
X132490000Y-110571250D01*
X132648750Y-110730000D01*
X132793483Y-110730000D01*
X132765302Y-110741673D01*
X132586673Y-110920301D01*
X132535920Y-111042830D01*
X132490000Y-111088750D01*
X132490000Y-111221250D01*
X132535920Y-111267170D01*
X132586673Y-111389699D01*
X132765302Y-111568327D01*
X132793483Y-111580000D01*
X132648750Y-111580000D01*
X132632150Y-111596600D01*
X129495942Y-111596600D01*
X129365756Y-111466415D01*
X129413000Y-111352357D01*
X129413000Y-110897643D01*
X129238989Y-110477542D01*
X128917458Y-110156011D01*
X128497357Y-109982000D01*
X128042643Y-109982000D01*
X127622542Y-110156011D01*
X127301011Y-110477542D01*
X127127000Y-110897643D01*
X102056000Y-110897643D01*
X102056000Y-79757381D01*
X104140000Y-79757381D01*
X104140000Y-80262619D01*
X104333346Y-80729397D01*
X104690603Y-81086654D01*
X105157381Y-81280000D01*
X104690603Y-81473346D01*
X104333346Y-81830603D01*
X104140000Y-82297381D01*
X104140000Y-82802619D01*
X104333346Y-83269397D01*
X104690603Y-83626654D01*
X105157381Y-83820000D01*
X104690603Y-84013346D01*
X104333346Y-84370603D01*
X104140000Y-84837381D01*
X104140000Y-85342619D01*
X104333346Y-85809397D01*
X104690603Y-86166654D01*
X105157381Y-86360000D01*
X104690603Y-86553346D01*
X104333346Y-86910603D01*
X104140000Y-87377381D01*
X104140000Y-87882619D01*
X104333346Y-88349397D01*
X104690603Y-88706654D01*
X105157381Y-88900000D01*
X104690603Y-89093346D01*
X104333346Y-89450603D01*
X104140000Y-89917381D01*
X104140000Y-90422619D01*
X104333346Y-90889397D01*
X104690603Y-91246654D01*
X105157381Y-91440000D01*
X104690603Y-91633346D01*
X104333346Y-91990603D01*
X104140000Y-92457381D01*
X104140000Y-92962619D01*
X104333346Y-93429397D01*
X104690603Y-93786654D01*
X105157381Y-93980000D01*
X104690603Y-94173346D01*
X104333346Y-94530603D01*
X104140000Y-94997381D01*
X104140000Y-95502619D01*
X104333346Y-95969397D01*
X104690603Y-96326654D01*
X105157381Y-96520000D01*
X104690603Y-96713346D01*
X104333346Y-97070603D01*
X104140000Y-97537381D01*
X104140000Y-98042619D01*
X104333346Y-98509397D01*
X104690603Y-98866654D01*
X105157381Y-99060000D01*
X104690603Y-99253346D01*
X104333346Y-99610603D01*
X104140000Y-100077381D01*
X104140000Y-100582619D01*
X104333346Y-101049397D01*
X104690603Y-101406654D01*
X105157381Y-101600000D01*
X104690603Y-101793346D01*
X104333346Y-102150603D01*
X104140000Y-102617381D01*
X104140000Y-103122619D01*
X104333346Y-103589397D01*
X104690603Y-103946654D01*
X105157381Y-104140000D01*
X104690603Y-104333346D01*
X104333346Y-104690603D01*
X104140000Y-105157381D01*
X104140000Y-105662619D01*
X104333346Y-106129397D01*
X104690603Y-106486654D01*
X105157381Y-106680000D01*
X104690603Y-106873346D01*
X104333346Y-107230603D01*
X104140000Y-107697381D01*
X104140000Y-108202619D01*
X104333346Y-108669397D01*
X104690603Y-109026654D01*
X105157381Y-109220000D01*
X105662619Y-109220000D01*
X106129397Y-109026654D01*
X106486654Y-108669397D01*
X106680000Y-108202619D01*
X106680000Y-107697381D01*
X106486654Y-107230603D01*
X106129397Y-106873346D01*
X105662619Y-106680000D01*
X106129397Y-106486654D01*
X106486654Y-106129397D01*
X106680000Y-105662619D01*
X106680000Y-105157381D01*
X106486654Y-104690603D01*
X106129397Y-104333346D01*
X105662619Y-104140000D01*
X106129397Y-103946654D01*
X106486654Y-103589397D01*
X106680000Y-103122619D01*
X106680000Y-102617381D01*
X106486654Y-102150603D01*
X106129397Y-101793346D01*
X105662619Y-101600000D01*
X106129397Y-101406654D01*
X106486654Y-101049397D01*
X106680000Y-100582619D01*
X106680000Y-100077381D01*
X106486654Y-99610603D01*
X106129397Y-99253346D01*
X105662619Y-99060000D01*
X106129397Y-98866654D01*
X106486654Y-98509397D01*
X106680000Y-98042619D01*
X106680000Y-97537381D01*
X106486654Y-97070603D01*
X106129397Y-96713346D01*
X105662619Y-96520000D01*
X106129397Y-96326654D01*
X106486654Y-95969397D01*
X106680000Y-95502619D01*
X106680000Y-94997381D01*
X106486654Y-94530603D01*
X106129397Y-94173346D01*
X105662619Y-93980000D01*
X106129397Y-93786654D01*
X106486654Y-93429397D01*
X106680000Y-92962619D01*
X106680000Y-92457381D01*
X106486654Y-91990603D01*
X106129397Y-91633346D01*
X105662619Y-91440000D01*
X106129397Y-91246654D01*
X106486654Y-90889397D01*
X106680000Y-90422619D01*
X106680000Y-89917381D01*
X106486654Y-89450603D01*
X106129397Y-89093346D01*
X105662619Y-88900000D01*
X106129397Y-88706654D01*
X106486654Y-88349397D01*
X106680000Y-87882619D01*
X106680000Y-87377381D01*
X106486654Y-86910603D01*
X106129397Y-86553346D01*
X105662619Y-86360000D01*
X106129397Y-86166654D01*
X106486654Y-85809397D01*
X106680000Y-85342619D01*
X106680000Y-84837381D01*
X106486654Y-84370603D01*
X106129397Y-84013346D01*
X105662619Y-83820000D01*
X106129397Y-83626654D01*
X106486654Y-83269397D01*
X106680000Y-82802619D01*
X106680000Y-82297381D01*
X106486654Y-81830603D01*
X106129397Y-81473346D01*
X105662619Y-81280000D01*
X106129397Y-81086654D01*
X106486654Y-80729397D01*
X106680000Y-80262619D01*
X106680000Y-79782643D01*
X116332000Y-79782643D01*
X116332000Y-80237357D01*
X116506011Y-80657458D01*
X116827542Y-80978989D01*
X117247643Y-81153000D01*
X117702357Y-81153000D01*
X118122458Y-80978989D01*
X118443989Y-80657458D01*
X118459670Y-80619600D01*
X122494964Y-80619600D01*
X122555000Y-80631542D01*
X122615036Y-80619600D01*
X122615037Y-80619600D01*
X122792854Y-80584230D01*
X122994497Y-80449497D01*
X123028509Y-80398594D01*
X123669722Y-79757381D01*
X124460000Y-79757381D01*
X124460000Y-80262619D01*
X124653346Y-80729397D01*
X125010603Y-81086654D01*
X125477381Y-81280000D01*
X125010603Y-81473346D01*
X124653346Y-81830603D01*
X124460000Y-82297381D01*
X124460000Y-82802619D01*
X124653346Y-83269397D01*
X125010603Y-83626654D01*
X125477381Y-83820000D01*
X125010603Y-84013346D01*
X124653346Y-84370603D01*
X124460000Y-84837381D01*
X124460000Y-85342619D01*
X124653346Y-85809397D01*
X125010603Y-86166654D01*
X125477381Y-86360000D01*
X125010603Y-86553346D01*
X124653346Y-86910603D01*
X124460000Y-87377381D01*
X124460000Y-87882619D01*
X124653346Y-88349397D01*
X125010603Y-88706654D01*
X125477381Y-88900000D01*
X125010603Y-89093346D01*
X124653346Y-89450603D01*
X124460000Y-89917381D01*
X124460000Y-90422619D01*
X124653346Y-90889397D01*
X125010603Y-91246654D01*
X125477381Y-91440000D01*
X125010603Y-91633346D01*
X124653346Y-91990603D01*
X124460000Y-92457381D01*
X124460000Y-92962619D01*
X124653346Y-93429397D01*
X125010603Y-93786654D01*
X125477381Y-93980000D01*
X125010603Y-94173346D01*
X124653346Y-94530603D01*
X124460000Y-94997381D01*
X124460000Y-95502619D01*
X124653346Y-95969397D01*
X125010603Y-96326654D01*
X125477381Y-96520000D01*
X125010603Y-96713346D01*
X124653346Y-97070603D01*
X124460000Y-97537381D01*
X124460000Y-98042619D01*
X124653346Y-98509397D01*
X125010603Y-98866654D01*
X125477381Y-99060000D01*
X125010603Y-99253346D01*
X124653346Y-99610603D01*
X124460000Y-100077381D01*
X124460000Y-100582619D01*
X124653346Y-101049397D01*
X125010603Y-101406654D01*
X125477381Y-101600000D01*
X125010603Y-101793346D01*
X124653346Y-102150603D01*
X124460000Y-102617381D01*
X124460000Y-103122619D01*
X124653346Y-103589397D01*
X125010603Y-103946654D01*
X125477381Y-104140000D01*
X125010603Y-104333346D01*
X124653346Y-104690603D01*
X124460000Y-105157381D01*
X124460000Y-105662619D01*
X124653346Y-106129397D01*
X125010603Y-106486654D01*
X125477381Y-106680000D01*
X125010603Y-106873346D01*
X124653346Y-107230603D01*
X124460000Y-107697381D01*
X124460000Y-108202619D01*
X124653346Y-108669397D01*
X125010603Y-109026654D01*
X125477381Y-109220000D01*
X125982619Y-109220000D01*
X126449397Y-109026654D01*
X126806654Y-108669397D01*
X127000000Y-108202619D01*
X127000000Y-107697381D01*
X126806654Y-107230603D01*
X126449397Y-106873346D01*
X125982619Y-106680000D01*
X126449397Y-106486654D01*
X126806654Y-106129397D01*
X127000000Y-105662619D01*
X127000000Y-105157381D01*
X126806654Y-104690603D01*
X126449397Y-104333346D01*
X125982619Y-104140000D01*
X126449397Y-103946654D01*
X126806654Y-103589397D01*
X127000000Y-103122619D01*
X127000000Y-102617381D01*
X126806654Y-102150603D01*
X126449397Y-101793346D01*
X125982619Y-101600000D01*
X126449397Y-101406654D01*
X126806654Y-101049397D01*
X127000000Y-100582619D01*
X127000000Y-100077381D01*
X126806654Y-99610603D01*
X126449397Y-99253346D01*
X125982619Y-99060000D01*
X126449397Y-98866654D01*
X126806654Y-98509397D01*
X127000000Y-98042619D01*
X127000000Y-97537381D01*
X126806654Y-97070603D01*
X126449397Y-96713346D01*
X125982619Y-96520000D01*
X126449397Y-96326654D01*
X126806654Y-95969397D01*
X127000000Y-95502619D01*
X127000000Y-94997381D01*
X126918818Y-94801390D01*
X184459000Y-94801390D01*
X184459000Y-95748610D01*
X184821485Y-96623728D01*
X185491272Y-97293515D01*
X186366390Y-97656000D01*
X187313610Y-97656000D01*
X188188728Y-97293515D01*
X188858515Y-96623728D01*
X189221000Y-95748610D01*
X189221000Y-94801390D01*
X188858515Y-93926272D01*
X188188728Y-93256485D01*
X187313610Y-92894000D01*
X186366390Y-92894000D01*
X185491272Y-93256485D01*
X184821485Y-93926272D01*
X184459000Y-94801390D01*
X126918818Y-94801390D01*
X126806654Y-94530603D01*
X126449397Y-94173346D01*
X125982619Y-93980000D01*
X126449397Y-93786654D01*
X126806654Y-93429397D01*
X127000000Y-92962619D01*
X127000000Y-92457381D01*
X126806654Y-91990603D01*
X126449397Y-91633346D01*
X125982619Y-91440000D01*
X126449397Y-91246654D01*
X126806654Y-90889397D01*
X127000000Y-90422619D01*
X127000000Y-89917381D01*
X126806654Y-89450603D01*
X126776051Y-89420000D01*
X141236536Y-89420000D01*
X141236536Y-90920000D01*
X141266106Y-91068659D01*
X141350314Y-91194686D01*
X141476341Y-91278894D01*
X141625000Y-91308464D01*
X144125000Y-91308464D01*
X144273659Y-91278894D01*
X144399686Y-91194686D01*
X144483894Y-91068659D01*
X144513464Y-90920000D01*
X144513464Y-89420000D01*
X144483894Y-89271341D01*
X144399686Y-89145314D01*
X144273659Y-89061106D01*
X144125000Y-89031536D01*
X141625000Y-89031536D01*
X141476341Y-89061106D01*
X141350314Y-89145314D01*
X141266106Y-89271341D01*
X141236536Y-89420000D01*
X126776051Y-89420000D01*
X126449397Y-89093346D01*
X125982619Y-88900000D01*
X126449397Y-88706654D01*
X126806654Y-88349397D01*
X126963314Y-87971185D01*
X141032682Y-87971185D01*
X141046827Y-88042684D01*
X141305855Y-88519540D01*
X141727651Y-88860972D01*
X142248000Y-89015000D01*
X142748000Y-89015000D01*
X142748000Y-87757000D01*
X143002000Y-87757000D01*
X143002000Y-89015000D01*
X143502000Y-89015000D01*
X144022349Y-88860972D01*
X144444145Y-88519540D01*
X144504987Y-88407532D01*
X189272073Y-88407532D01*
X189370736Y-88674387D01*
X189980461Y-88900908D01*
X190630460Y-88876856D01*
X191119264Y-88674387D01*
X191217927Y-88407532D01*
X190245000Y-87434605D01*
X189272073Y-88407532D01*
X144504987Y-88407532D01*
X144703173Y-88042684D01*
X144717318Y-87971185D01*
X144594656Y-87757000D01*
X143002000Y-87757000D01*
X142748000Y-87757000D01*
X141155344Y-87757000D01*
X141032682Y-87971185D01*
X126963314Y-87971185D01*
X127000000Y-87882619D01*
X127000000Y-87377381D01*
X126963315Y-87288815D01*
X141032682Y-87288815D01*
X141155344Y-87503000D01*
X142748000Y-87503000D01*
X142748000Y-86245000D01*
X143002000Y-86245000D01*
X143002000Y-87503000D01*
X144594656Y-87503000D01*
X144717318Y-87288815D01*
X144703173Y-87217316D01*
X144444145Y-86740460D01*
X144022349Y-86399028D01*
X143502000Y-86245000D01*
X143002000Y-86245000D01*
X142748000Y-86245000D01*
X142248000Y-86245000D01*
X141727651Y-86399028D01*
X141305855Y-86740460D01*
X141046827Y-87217316D01*
X141032682Y-87288815D01*
X126963315Y-87288815D01*
X126806654Y-86910603D01*
X126449397Y-86553346D01*
X125982619Y-86360000D01*
X126449397Y-86166654D01*
X126806654Y-85809397D01*
X127000000Y-85342619D01*
X127000000Y-85090000D01*
X141221843Y-85090000D01*
X141309622Y-85531294D01*
X141559595Y-85905405D01*
X141933706Y-86155378D01*
X142263609Y-86221000D01*
X143486391Y-86221000D01*
X143816294Y-86155378D01*
X144190405Y-85905405D01*
X144287541Y-85760030D01*
X183404000Y-85760030D01*
X183404000Y-86209970D01*
X183576184Y-86625660D01*
X183894340Y-86943816D01*
X184310030Y-87116000D01*
X184759970Y-87116000D01*
X185063048Y-86990461D01*
X188599092Y-86990461D01*
X188623144Y-87640460D01*
X188825613Y-88129264D01*
X189092468Y-88227927D01*
X190065395Y-87255000D01*
X190424605Y-87255000D01*
X191397532Y-88227927D01*
X191664387Y-88129264D01*
X191890908Y-87519539D01*
X191866856Y-86869540D01*
X191664387Y-86380736D01*
X191397532Y-86282073D01*
X190424605Y-87255000D01*
X190065395Y-87255000D01*
X189092468Y-86282073D01*
X188825613Y-86380736D01*
X188599092Y-86990461D01*
X185063048Y-86990461D01*
X185175660Y-86943816D01*
X185493816Y-86625660D01*
X185666000Y-86209970D01*
X185666000Y-86102468D01*
X189272073Y-86102468D01*
X190245000Y-87075395D01*
X191217927Y-86102468D01*
X191119264Y-85835613D01*
X190509539Y-85609092D01*
X189859540Y-85633144D01*
X189370736Y-85835613D01*
X189272073Y-86102468D01*
X185666000Y-86102468D01*
X185666000Y-85760030D01*
X185493816Y-85344340D01*
X185225458Y-85075982D01*
X191669000Y-85075982D01*
X191669000Y-85874018D01*
X191974395Y-86611308D01*
X192538692Y-87175605D01*
X193275982Y-87481000D01*
X194074018Y-87481000D01*
X194811308Y-87175605D01*
X195375605Y-86611308D01*
X195681000Y-85874018D01*
X195681000Y-85075982D01*
X195375605Y-84338692D01*
X194811308Y-83774395D01*
X194074018Y-83469000D01*
X193275982Y-83469000D01*
X192538692Y-83774395D01*
X191974395Y-84338692D01*
X191669000Y-85075982D01*
X185225458Y-85075982D01*
X185175660Y-85026184D01*
X184759970Y-84854000D01*
X184310030Y-84854000D01*
X183894340Y-85026184D01*
X183576184Y-85344340D01*
X183404000Y-85760030D01*
X144287541Y-85760030D01*
X144440378Y-85531294D01*
X144528157Y-85090000D01*
X144440378Y-84648706D01*
X144190405Y-84274595D01*
X143816294Y-84024622D01*
X143486391Y-83959000D01*
X142263609Y-83959000D01*
X141933706Y-84024622D01*
X141559595Y-84274595D01*
X141309622Y-84648706D01*
X141221843Y-85090000D01*
X127000000Y-85090000D01*
X127000000Y-84837381D01*
X126806654Y-84370603D01*
X126449397Y-84013346D01*
X125982619Y-83820000D01*
X126449397Y-83626654D01*
X126606021Y-83470030D01*
X183404000Y-83470030D01*
X183404000Y-83919970D01*
X183576184Y-84335660D01*
X183894340Y-84653816D01*
X184310030Y-84826000D01*
X184759970Y-84826000D01*
X185175660Y-84653816D01*
X185493816Y-84335660D01*
X185666000Y-83919970D01*
X185666000Y-83470030D01*
X185493816Y-83054340D01*
X185175660Y-82736184D01*
X184759970Y-82564000D01*
X184310030Y-82564000D01*
X183894340Y-82736184D01*
X183576184Y-83054340D01*
X183404000Y-83470030D01*
X126606021Y-83470030D01*
X126806654Y-83269397D01*
X127000000Y-82802619D01*
X127000000Y-82297381D01*
X126806654Y-81830603D01*
X126449397Y-81473346D01*
X125982619Y-81280000D01*
X126449397Y-81086654D01*
X126806654Y-80729397D01*
X127000000Y-80262619D01*
X127000000Y-79757381D01*
X126806654Y-79290603D01*
X126449397Y-78933346D01*
X125982619Y-78740000D01*
X125477381Y-78740000D01*
X125010603Y-78933346D01*
X124653346Y-79290603D01*
X124460000Y-79757381D01*
X123669722Y-79757381D01*
X124712504Y-78714600D01*
X127382497Y-78714600D01*
X130971494Y-82303599D01*
X131005503Y-82354497D01*
X131056400Y-82388505D01*
X131207146Y-82489230D01*
X131445000Y-82536542D01*
X131505036Y-82524600D01*
X132365330Y-82524600D01*
X132381011Y-82562458D01*
X132702542Y-82883989D01*
X133122643Y-83058000D01*
X133577357Y-83058000D01*
X133997458Y-82883989D01*
X134318989Y-82562458D01*
X134493000Y-82142357D01*
X134493000Y-81687643D01*
X134318989Y-81267542D01*
X133997458Y-80946011D01*
X133577357Y-80772000D01*
X133122643Y-80772000D01*
X132702542Y-80946011D01*
X132381011Y-81267542D01*
X132365330Y-81305400D01*
X131697505Y-81305400D01*
X130167190Y-79775085D01*
X158204000Y-79775085D01*
X158204000Y-80244915D01*
X158383797Y-80678983D01*
X158716017Y-81011203D01*
X159150085Y-81191000D01*
X159619915Y-81191000D01*
X160053983Y-81011203D01*
X160386203Y-80678983D01*
X160566000Y-80244915D01*
X160566000Y-80010000D01*
X168340863Y-80010000D01*
X168432522Y-80470803D01*
X168693547Y-80861453D01*
X169084197Y-81122478D01*
X169428682Y-81191000D01*
X169661318Y-81191000D01*
X170005803Y-81122478D01*
X170396453Y-80861453D01*
X170657478Y-80470803D01*
X170749137Y-80010000D01*
X170657478Y-79549197D01*
X170396453Y-79158547D01*
X170005803Y-78897522D01*
X169661318Y-78829000D01*
X169428682Y-78829000D01*
X169084197Y-78897522D01*
X168693547Y-79158547D01*
X168432522Y-79549197D01*
X168340863Y-80010000D01*
X160566000Y-80010000D01*
X160566000Y-79775085D01*
X160386203Y-79341017D01*
X160053983Y-79008797D01*
X159619915Y-78829000D01*
X159150085Y-78829000D01*
X158716017Y-79008797D01*
X158383797Y-79341017D01*
X158204000Y-79775085D01*
X130167190Y-79775085D01*
X128108509Y-77716406D01*
X128074497Y-77665503D01*
X127872854Y-77530770D01*
X127695037Y-77495400D01*
X127695036Y-77495400D01*
X127635000Y-77483458D01*
X127574964Y-77495400D01*
X124520036Y-77495400D01*
X124460000Y-77483458D01*
X124399963Y-77495400D01*
X124222146Y-77530770D01*
X124020503Y-77665503D01*
X123986492Y-77716404D01*
X122302497Y-79400400D01*
X118459670Y-79400400D01*
X118443989Y-79362542D01*
X118122458Y-79041011D01*
X117702357Y-78867000D01*
X117247643Y-78867000D01*
X116827542Y-79041011D01*
X116506011Y-79362542D01*
X116332000Y-79782643D01*
X106680000Y-79782643D01*
X106680000Y-79757381D01*
X106486654Y-79290603D01*
X106129397Y-78933346D01*
X106009531Y-78883696D01*
X106217533Y-78797539D01*
X106302591Y-78542196D01*
X105410000Y-77649605D01*
X104517409Y-78542196D01*
X104602467Y-78797539D01*
X104823551Y-78878277D01*
X104690603Y-78933346D01*
X104333346Y-79290603D01*
X104140000Y-79757381D01*
X102056000Y-79757381D01*
X102056000Y-77231965D01*
X103874484Y-77231965D01*
X103900277Y-77837700D01*
X104082461Y-78277533D01*
X104337804Y-78362591D01*
X105230395Y-77470000D01*
X105589605Y-77470000D01*
X106482196Y-78362591D01*
X106737539Y-78277533D01*
X106945516Y-77708035D01*
X106919723Y-77102300D01*
X106737539Y-76662467D01*
X106572959Y-76607643D01*
X116332000Y-76607643D01*
X116332000Y-77062357D01*
X116506011Y-77482458D01*
X116827542Y-77803989D01*
X117247643Y-77978000D01*
X117702357Y-77978000D01*
X118122458Y-77803989D01*
X118443989Y-77482458D01*
X118459670Y-77444600D01*
X121570330Y-77444600D01*
X121586011Y-77482458D01*
X121907542Y-77803989D01*
X122327643Y-77978000D01*
X122782357Y-77978000D01*
X123202458Y-77803989D01*
X123523989Y-77482458D01*
X123698000Y-77062357D01*
X123698000Y-76607643D01*
X123595436Y-76360030D01*
X188224000Y-76360030D01*
X188224000Y-76809970D01*
X188396184Y-77225660D01*
X188714340Y-77543816D01*
X188862052Y-77605000D01*
X188714340Y-77666184D01*
X188396184Y-77984340D01*
X188224000Y-78400030D01*
X188224000Y-78849970D01*
X188396184Y-79265660D01*
X188714340Y-79583816D01*
X188862052Y-79645000D01*
X188714340Y-79706184D01*
X188396184Y-80024340D01*
X188224000Y-80440030D01*
X188224000Y-80889970D01*
X188396184Y-81305660D01*
X188714340Y-81623816D01*
X188862052Y-81685000D01*
X188714340Y-81746184D01*
X188396184Y-82064340D01*
X188224000Y-82480030D01*
X188224000Y-82929970D01*
X188396184Y-83345660D01*
X188714340Y-83663816D01*
X189130030Y-83836000D01*
X189579970Y-83836000D01*
X189995660Y-83663816D01*
X190313816Y-83345660D01*
X190486000Y-82929970D01*
X190486000Y-82635476D01*
X190494340Y-82643816D01*
X190910030Y-82816000D01*
X191359970Y-82816000D01*
X191775660Y-82643816D01*
X192093816Y-82325660D01*
X192266000Y-81909970D01*
X192266000Y-81460030D01*
X192093816Y-81044340D01*
X191775660Y-80726184D01*
X191627948Y-80665000D01*
X191775660Y-80603816D01*
X192093816Y-80285660D01*
X192266000Y-79869970D01*
X192266000Y-79420030D01*
X192093816Y-79004340D01*
X191775660Y-78686184D01*
X191627948Y-78625000D01*
X191775660Y-78563816D01*
X192093816Y-78245660D01*
X192266000Y-77829970D01*
X192266000Y-77380030D01*
X192093816Y-76964340D01*
X192059511Y-76930035D01*
X192244699Y-76853327D01*
X192423327Y-76674698D01*
X192520000Y-76441309D01*
X192520000Y-75850750D01*
X192361250Y-75692000D01*
X191262000Y-75692000D01*
X191262000Y-75712000D01*
X191008000Y-75712000D01*
X191008000Y-75692000D01*
X190988000Y-75692000D01*
X190988000Y-75438000D01*
X191008000Y-75438000D01*
X191008000Y-74338750D01*
X191262000Y-74338750D01*
X191262000Y-75438000D01*
X192361250Y-75438000D01*
X192520000Y-75279250D01*
X192520000Y-74688691D01*
X192423327Y-74455302D01*
X192244699Y-74276673D01*
X192011310Y-74180000D01*
X191420750Y-74180000D01*
X191262000Y-74338750D01*
X191008000Y-74338750D01*
X190849250Y-74180000D01*
X190258690Y-74180000D01*
X190025301Y-74276673D01*
X189846673Y-74455302D01*
X189750000Y-74688691D01*
X189750000Y-75279250D01*
X189908748Y-75437998D01*
X189750000Y-75437998D01*
X189750000Y-75524429D01*
X189579970Y-75454000D01*
X189130030Y-75454000D01*
X188714340Y-75626184D01*
X188396184Y-75944340D01*
X188224000Y-76360030D01*
X123595436Y-76360030D01*
X123523989Y-76187542D01*
X123202458Y-75866011D01*
X122782357Y-75692000D01*
X122327643Y-75692000D01*
X121907542Y-75866011D01*
X121586011Y-76187542D01*
X121570330Y-76225400D01*
X118459670Y-76225400D01*
X118443989Y-76187542D01*
X118122458Y-75866011D01*
X117702357Y-75692000D01*
X117247643Y-75692000D01*
X116827542Y-75866011D01*
X116506011Y-76187542D01*
X116332000Y-76607643D01*
X106572959Y-76607643D01*
X106482196Y-76577409D01*
X105589605Y-77470000D01*
X105230395Y-77470000D01*
X104337804Y-76577409D01*
X104082461Y-76662467D01*
X103874484Y-77231965D01*
X102056000Y-77231965D01*
X102056000Y-69597381D01*
X104140000Y-69597381D01*
X104140000Y-70102619D01*
X104333346Y-70569397D01*
X104690603Y-70926654D01*
X105157381Y-71120000D01*
X104690603Y-71313346D01*
X104333346Y-71670603D01*
X104140000Y-72137381D01*
X104140000Y-72642619D01*
X104333346Y-73109397D01*
X104690603Y-73466654D01*
X105157381Y-73660000D01*
X104690603Y-73853346D01*
X104333346Y-74210603D01*
X104140000Y-74677381D01*
X104140000Y-75182619D01*
X104333346Y-75649397D01*
X104690603Y-76006654D01*
X104810469Y-76056304D01*
X104602467Y-76142461D01*
X104517409Y-76397804D01*
X105410000Y-77290395D01*
X106302591Y-76397804D01*
X106217533Y-76142461D01*
X105996449Y-76061723D01*
X106129397Y-76006654D01*
X106486654Y-75649397D01*
X106680000Y-75182619D01*
X106680000Y-74677381D01*
X106486654Y-74210603D01*
X106343694Y-74067643D01*
X116332000Y-74067643D01*
X116332000Y-74522357D01*
X116506011Y-74942458D01*
X116827542Y-75263989D01*
X117247643Y-75438000D01*
X117702357Y-75438000D01*
X118122458Y-75263989D01*
X118443989Y-74942458D01*
X118459670Y-74904600D01*
X121570330Y-74904600D01*
X121586011Y-74942458D01*
X121907542Y-75263989D01*
X122327643Y-75438000D01*
X122782357Y-75438000D01*
X123202458Y-75263989D01*
X123523989Y-74942458D01*
X123619862Y-74710997D01*
X136059000Y-74710997D01*
X136059000Y-75149003D01*
X136226617Y-75553666D01*
X136536334Y-75863383D01*
X136940997Y-76031000D01*
X137379003Y-76031000D01*
X137783666Y-75863383D01*
X138093383Y-75553666D01*
X138261000Y-75149003D01*
X138261000Y-74710997D01*
X149394000Y-74710997D01*
X149394000Y-75149003D01*
X149561617Y-75553666D01*
X149871334Y-75863383D01*
X150275997Y-76031000D01*
X150714003Y-76031000D01*
X151118666Y-75863383D01*
X151428383Y-75553666D01*
X151596000Y-75149003D01*
X151596000Y-74710997D01*
X151428383Y-74306334D01*
X151118666Y-73996617D01*
X151055793Y-73970574D01*
X157754000Y-73970574D01*
X157754000Y-74619426D01*
X158002305Y-75218887D01*
X158461113Y-75677695D01*
X159060574Y-75926000D01*
X159709426Y-75926000D01*
X160308887Y-75677695D01*
X160767695Y-75218887D01*
X161016000Y-74619426D01*
X161016000Y-74099867D01*
X163484000Y-74099867D01*
X163484000Y-74490133D01*
X163633348Y-74850692D01*
X163909308Y-75126652D01*
X164269867Y-75276000D01*
X164660133Y-75276000D01*
X165020692Y-75126652D01*
X165296652Y-74850692D01*
X165446000Y-74490133D01*
X165446000Y-74099867D01*
X165392446Y-73970574D01*
X167914000Y-73970574D01*
X167914000Y-74619426D01*
X168162305Y-75218887D01*
X168621113Y-75677695D01*
X169220574Y-75926000D01*
X169869426Y-75926000D01*
X170468887Y-75677695D01*
X170927695Y-75218887D01*
X171176000Y-74619426D01*
X171176000Y-74330030D01*
X183404000Y-74330030D01*
X183404000Y-74779970D01*
X183576184Y-75195660D01*
X183894340Y-75513816D01*
X184310030Y-75686000D01*
X184759970Y-75686000D01*
X185175660Y-75513816D01*
X185493816Y-75195660D01*
X185666000Y-74779970D01*
X185666000Y-74330030D01*
X185493816Y-73914340D01*
X185175660Y-73596184D01*
X184759970Y-73424000D01*
X184310030Y-73424000D01*
X183894340Y-73596184D01*
X183576184Y-73914340D01*
X183404000Y-74330030D01*
X171176000Y-74330030D01*
X171176000Y-73970574D01*
X170927695Y-73371113D01*
X170468887Y-72912305D01*
X169869426Y-72664000D01*
X169220574Y-72664000D01*
X168621113Y-72912305D01*
X168162305Y-73371113D01*
X167914000Y-73970574D01*
X165392446Y-73970574D01*
X165296652Y-73739308D01*
X165020692Y-73463348D01*
X164660133Y-73314000D01*
X164269867Y-73314000D01*
X163909308Y-73463348D01*
X163633348Y-73739308D01*
X163484000Y-74099867D01*
X161016000Y-74099867D01*
X161016000Y-73970574D01*
X160767695Y-73371113D01*
X160308887Y-72912305D01*
X159709426Y-72664000D01*
X159060574Y-72664000D01*
X158461113Y-72912305D01*
X158002305Y-73371113D01*
X157754000Y-73970574D01*
X151055793Y-73970574D01*
X150714003Y-73829000D01*
X150275997Y-73829000D01*
X149871334Y-73996617D01*
X149561617Y-74306334D01*
X149394000Y-74710997D01*
X138261000Y-74710997D01*
X138093383Y-74306334D01*
X137783666Y-73996617D01*
X137379003Y-73829000D01*
X136940997Y-73829000D01*
X136536334Y-73996617D01*
X136226617Y-74306334D01*
X136059000Y-74710997D01*
X123619862Y-74710997D01*
X123698000Y-74522357D01*
X123698000Y-74067643D01*
X123523989Y-73647542D01*
X123202458Y-73326011D01*
X122782357Y-73152000D01*
X122327643Y-73152000D01*
X121907542Y-73326011D01*
X121586011Y-73647542D01*
X121570330Y-73685400D01*
X118459670Y-73685400D01*
X118443989Y-73647542D01*
X118122458Y-73326011D01*
X117702357Y-73152000D01*
X117247643Y-73152000D01*
X116827542Y-73326011D01*
X116506011Y-73647542D01*
X116332000Y-74067643D01*
X106343694Y-74067643D01*
X106129397Y-73853346D01*
X105662619Y-73660000D01*
X106129397Y-73466654D01*
X106486654Y-73109397D01*
X106680000Y-72642619D01*
X106680000Y-72170997D01*
X133519000Y-72170997D01*
X133519000Y-72609003D01*
X133686617Y-73013666D01*
X133996334Y-73323383D01*
X134400997Y-73491000D01*
X134839003Y-73491000D01*
X135204094Y-73339774D01*
X138929831Y-73339774D01*
X138994131Y-73577611D01*
X139502342Y-73757333D01*
X140040644Y-73728892D01*
X140405869Y-73577611D01*
X140470169Y-73339774D01*
X139700000Y-72569605D01*
X138929831Y-73339774D01*
X135204094Y-73339774D01*
X135243666Y-73323383D01*
X135553383Y-73013666D01*
X135721000Y-72609003D01*
X135721000Y-72192342D01*
X138332667Y-72192342D01*
X138361108Y-72730644D01*
X138512389Y-73095869D01*
X138750226Y-73160169D01*
X139520395Y-72390000D01*
X139879605Y-72390000D01*
X140649774Y-73160169D01*
X140887611Y-73095869D01*
X141067333Y-72587658D01*
X141045319Y-72170997D01*
X146854000Y-72170997D01*
X146854000Y-72609003D01*
X147021617Y-73013666D01*
X147331334Y-73323383D01*
X147735997Y-73491000D01*
X148174003Y-73491000D01*
X148539094Y-73339774D01*
X152264831Y-73339774D01*
X152329131Y-73577611D01*
X152837342Y-73757333D01*
X153375644Y-73728892D01*
X153740869Y-73577611D01*
X153805169Y-73339774D01*
X153035000Y-72569605D01*
X152264831Y-73339774D01*
X148539094Y-73339774D01*
X148578666Y-73323383D01*
X148888383Y-73013666D01*
X149056000Y-72609003D01*
X149056000Y-72192342D01*
X151667667Y-72192342D01*
X151696108Y-72730644D01*
X151847389Y-73095869D01*
X152085226Y-73160169D01*
X152855395Y-72390000D01*
X153214605Y-72390000D01*
X153984774Y-73160169D01*
X154222611Y-73095869D01*
X154402333Y-72587658D01*
X154373892Y-72049356D01*
X154370030Y-72040030D01*
X183404000Y-72040030D01*
X183404000Y-72489970D01*
X183576184Y-72905660D01*
X183894340Y-73223816D01*
X184310030Y-73396000D01*
X184759970Y-73396000D01*
X185175660Y-73223816D01*
X185493816Y-72905660D01*
X185666000Y-72489970D01*
X185666000Y-72147532D01*
X189272073Y-72147532D01*
X189370736Y-72414387D01*
X189980461Y-72640908D01*
X190630460Y-72616856D01*
X191119264Y-72414387D01*
X191133463Y-72375982D01*
X191669000Y-72375982D01*
X191669000Y-73174018D01*
X191974395Y-73911308D01*
X192538692Y-74475605D01*
X193275982Y-74781000D01*
X194074018Y-74781000D01*
X194811308Y-74475605D01*
X195375605Y-73911308D01*
X195681000Y-73174018D01*
X195681000Y-72375982D01*
X195375605Y-71638692D01*
X194811308Y-71074395D01*
X194074018Y-70769000D01*
X193275982Y-70769000D01*
X192538692Y-71074395D01*
X191974395Y-71638692D01*
X191669000Y-72375982D01*
X191133463Y-72375982D01*
X191217927Y-72147532D01*
X190245000Y-71174605D01*
X189272073Y-72147532D01*
X185666000Y-72147532D01*
X185666000Y-72040030D01*
X185493816Y-71624340D01*
X185175660Y-71306184D01*
X184759970Y-71134000D01*
X184310030Y-71134000D01*
X183894340Y-71306184D01*
X183576184Y-71624340D01*
X183404000Y-72040030D01*
X154370030Y-72040030D01*
X154222611Y-71684131D01*
X153984774Y-71619831D01*
X153214605Y-72390000D01*
X152855395Y-72390000D01*
X152085226Y-71619831D01*
X151847389Y-71684131D01*
X151667667Y-72192342D01*
X149056000Y-72192342D01*
X149056000Y-72170997D01*
X148888383Y-71766334D01*
X148578666Y-71456617D01*
X148539095Y-71440226D01*
X152264831Y-71440226D01*
X153035000Y-72210395D01*
X153805169Y-71440226D01*
X153740869Y-71202389D01*
X153232658Y-71022667D01*
X152694356Y-71051108D01*
X152329131Y-71202389D01*
X152264831Y-71440226D01*
X148539095Y-71440226D01*
X148174003Y-71289000D01*
X147735997Y-71289000D01*
X147331334Y-71456617D01*
X147021617Y-71766334D01*
X146854000Y-72170997D01*
X141045319Y-72170997D01*
X141038892Y-72049356D01*
X140887611Y-71684131D01*
X140649774Y-71619831D01*
X139879605Y-72390000D01*
X139520395Y-72390000D01*
X138750226Y-71619831D01*
X138512389Y-71684131D01*
X138332667Y-72192342D01*
X135721000Y-72192342D01*
X135721000Y-72170997D01*
X135553383Y-71766334D01*
X135243666Y-71456617D01*
X135204095Y-71440226D01*
X138929831Y-71440226D01*
X139700000Y-72210395D01*
X140470169Y-71440226D01*
X140405869Y-71202389D01*
X139897658Y-71022667D01*
X139359356Y-71051108D01*
X138994131Y-71202389D01*
X138929831Y-71440226D01*
X135204095Y-71440226D01*
X134839003Y-71289000D01*
X134400997Y-71289000D01*
X133996334Y-71456617D01*
X133686617Y-71766334D01*
X133519000Y-72170997D01*
X106680000Y-72170997D01*
X106680000Y-72137381D01*
X106486654Y-71670603D01*
X106129397Y-71313346D01*
X105662619Y-71120000D01*
X106129397Y-70926654D01*
X106486654Y-70569397D01*
X106495384Y-70548320D01*
X163311285Y-70548320D01*
X163440533Y-70841123D01*
X164140806Y-71109388D01*
X164890435Y-71089250D01*
X165489467Y-70841123D01*
X165538315Y-70730461D01*
X188599092Y-70730461D01*
X188623144Y-71380460D01*
X188825613Y-71869264D01*
X189092468Y-71967927D01*
X190065395Y-70995000D01*
X190424605Y-70995000D01*
X191397532Y-71967927D01*
X191664387Y-71869264D01*
X191890908Y-71259539D01*
X191866856Y-70609540D01*
X191664387Y-70120736D01*
X191397532Y-70022073D01*
X190424605Y-70995000D01*
X190065395Y-70995000D01*
X189092468Y-70022073D01*
X188825613Y-70120736D01*
X188599092Y-70730461D01*
X165538315Y-70730461D01*
X165618715Y-70548320D01*
X164465000Y-69394605D01*
X163311285Y-70548320D01*
X106495384Y-70548320D01*
X106680000Y-70102619D01*
X106680000Y-69597381D01*
X106486654Y-69130603D01*
X106455918Y-69099867D01*
X158484000Y-69099867D01*
X158484000Y-69490133D01*
X158633348Y-69850692D01*
X158909308Y-70126652D01*
X159269867Y-70276000D01*
X159660133Y-70276000D01*
X160020692Y-70126652D01*
X160296652Y-69850692D01*
X160446000Y-69490133D01*
X160446000Y-69099867D01*
X160359405Y-68890806D01*
X162570612Y-68890806D01*
X162590750Y-69640435D01*
X162838877Y-70239467D01*
X163131680Y-70368715D01*
X164285395Y-69215000D01*
X164644605Y-69215000D01*
X165798320Y-70368715D01*
X166091123Y-70239467D01*
X166359388Y-69539194D01*
X166347586Y-69099867D01*
X168484000Y-69099867D01*
X168484000Y-69490133D01*
X168633348Y-69850692D01*
X168909308Y-70126652D01*
X169269867Y-70276000D01*
X169660133Y-70276000D01*
X170020692Y-70126652D01*
X170296652Y-69850692D01*
X170300058Y-69842468D01*
X189272073Y-69842468D01*
X190245000Y-70815395D01*
X191217927Y-69842468D01*
X191119264Y-69575613D01*
X190509539Y-69349092D01*
X189859540Y-69373144D01*
X189370736Y-69575613D01*
X189272073Y-69842468D01*
X170300058Y-69842468D01*
X170446000Y-69490133D01*
X170446000Y-69099867D01*
X170296652Y-68739308D01*
X170020692Y-68463348D01*
X169660133Y-68314000D01*
X169269867Y-68314000D01*
X168909308Y-68463348D01*
X168633348Y-68739308D01*
X168484000Y-69099867D01*
X166347586Y-69099867D01*
X166339250Y-68789565D01*
X166091123Y-68190533D01*
X165798320Y-68061285D01*
X164644605Y-69215000D01*
X164285395Y-69215000D01*
X163131680Y-68061285D01*
X162838877Y-68190533D01*
X162570612Y-68890806D01*
X160359405Y-68890806D01*
X160296652Y-68739308D01*
X160020692Y-68463348D01*
X159660133Y-68314000D01*
X159269867Y-68314000D01*
X158909308Y-68463348D01*
X158633348Y-68739308D01*
X158484000Y-69099867D01*
X106455918Y-69099867D01*
X106129397Y-68773346D01*
X105662619Y-68580000D01*
X105157381Y-68580000D01*
X104690603Y-68773346D01*
X104333346Y-69130603D01*
X104140000Y-69597381D01*
X102056000Y-69597381D01*
X102056000Y-67881680D01*
X163311285Y-67881680D01*
X164465000Y-69035395D01*
X165618715Y-67881680D01*
X165489467Y-67588877D01*
X164789194Y-67320612D01*
X164039565Y-67340750D01*
X163440533Y-67588877D01*
X163311285Y-67881680D01*
X102056000Y-67881680D01*
X102056000Y-66496000D01*
X158527023Y-66496000D01*
X158484000Y-66599867D01*
X158484000Y-66599867D01*
G37*
X158484000Y-66599867D02*
X158484000Y-66990133D01*
X158633348Y-67350692D01*
X158909308Y-67626652D01*
X159269867Y-67776000D01*
X159660133Y-67776000D01*
X160020692Y-67626652D01*
X160296652Y-67350692D01*
X160446000Y-66990133D01*
X160446000Y-66599867D01*
X160402977Y-66496000D01*
X168527023Y-66496000D01*
X168484000Y-66599867D01*
X168484000Y-66990133D01*
X168633348Y-67350692D01*
X168909308Y-67626652D01*
X169269867Y-67776000D01*
X169660133Y-67776000D01*
X170020692Y-67626652D01*
X170296652Y-67350692D01*
X170446000Y-66990133D01*
X170446000Y-66599867D01*
X170402977Y-66496000D01*
X195759000Y-66496000D01*
X195759001Y-124639000D01*
X102056000Y-124639000D01*
X102056000Y-123539041D01*
X140848086Y-123539041D01*
X141087611Y-124045134D01*
X141502577Y-124421041D01*
X141890961Y-124581904D01*
X142113000Y-124459915D01*
X142113000Y-123317000D01*
X142367000Y-123317000D01*
X142367000Y-124459915D01*
X142589039Y-124581904D01*
X142977423Y-124421041D01*
X143392389Y-124045134D01*
X143631914Y-123539041D01*
X143510629Y-123317000D01*
X142367000Y-123317000D01*
X142113000Y-123317000D01*
X140969371Y-123317000D01*
X140848086Y-123539041D01*
X102056000Y-123539041D01*
X102056000Y-122840959D01*
X140848086Y-122840959D01*
X140969371Y-123063000D01*
X142113000Y-123063000D01*
X142113000Y-121920085D01*
X142367000Y-121920085D01*
X142367000Y-123063000D01*
X143510629Y-123063000D01*
X143631914Y-122840959D01*
X143392389Y-122334866D01*
X142977423Y-121958959D01*
X142589039Y-121798096D01*
X142367000Y-121920085D01*
X142113000Y-121920085D01*
X141890961Y-121798096D01*
X141502577Y-121958959D01*
X141087611Y-122334866D01*
X140848086Y-122840959D01*
X102056000Y-122840959D01*
X102056000Y-110897643D01*
X127127000Y-110897643D01*
X127127000Y-111352357D01*
X127301011Y-111772458D01*
X127622542Y-112093989D01*
X128042643Y-112268000D01*
X128497357Y-112268000D01*
X128611415Y-112220756D01*
X128860686Y-112470028D01*
X128890441Y-112514559D01*
X128901577Y-112522000D01*
X128677643Y-112522000D01*
X128257542Y-112696011D01*
X127936011Y-113017542D01*
X127762000Y-113437643D01*
X127762000Y-113892357D01*
X127936011Y-114312458D01*
X128257542Y-114633989D01*
X128677643Y-114808000D01*
X129132357Y-114808000D01*
X129552458Y-114633989D01*
X129873989Y-114312458D01*
X130048000Y-113892357D01*
X130048000Y-113437643D01*
X130000756Y-113323585D01*
X130010941Y-113313400D01*
X130534260Y-113313400D01*
X130469975Y-113377685D01*
X130425442Y-113407441D01*
X130395686Y-113451974D01*
X130395685Y-113451975D01*
X130307550Y-113583878D01*
X130266152Y-113792000D01*
X130276601Y-113844530D01*
X130276601Y-114553767D01*
X130162542Y-114601011D01*
X129841011Y-114922542D01*
X129667000Y-115342643D01*
X129667000Y-115797357D01*
X129841011Y-116217458D01*
X130162542Y-116538989D01*
X130582643Y-116713000D01*
X131037357Y-116713000D01*
X131457458Y-116538989D01*
X131778989Y-116217458D01*
X131953000Y-115797357D01*
X131953000Y-115342643D01*
X131778989Y-114922542D01*
X131457458Y-114601011D01*
X131343400Y-114553767D01*
X131343400Y-114012940D01*
X131392941Y-113963400D01*
X132938186Y-113963400D01*
X132976341Y-113988894D01*
X133125000Y-114018464D01*
X134225000Y-114018464D01*
X134373659Y-113988894D01*
X134499686Y-113904686D01*
X134583894Y-113778659D01*
X134613464Y-113630000D01*
X134613464Y-113230000D01*
X134588600Y-113105000D01*
X134613464Y-112980000D01*
X134613464Y-112663400D01*
X138436536Y-112663400D01*
X138436536Y-112980000D01*
X138461400Y-113105000D01*
X138436536Y-113230000D01*
X138436536Y-113630000D01*
X138466106Y-113778659D01*
X138550314Y-113904686D01*
X138676341Y-113988894D01*
X138825000Y-114018464D01*
X139925000Y-114018464D01*
X139932610Y-114016950D01*
X140436601Y-114520942D01*
X140436601Y-114553766D01*
X140322542Y-114601011D01*
X140001011Y-114922542D01*
X139827000Y-115342643D01*
X139827000Y-115797357D01*
X140001011Y-116217458D01*
X140322542Y-116538989D01*
X140742643Y-116713000D01*
X141197357Y-116713000D01*
X141617458Y-116538989D01*
X141938989Y-116217458D01*
X142113000Y-115797357D01*
X142113000Y-115342643D01*
X142109870Y-115335085D01*
X167729000Y-115335085D01*
X167729000Y-115804915D01*
X167908797Y-116238983D01*
X168241017Y-116571203D01*
X168675085Y-116751000D01*
X169144915Y-116751000D01*
X169578983Y-116571203D01*
X169911203Y-116238983D01*
X170019453Y-115977643D01*
X172847000Y-115977643D01*
X172847000Y-116432357D01*
X173021011Y-116852458D01*
X173342542Y-117173989D01*
X173380400Y-117189670D01*
X173380401Y-119030329D01*
X173342542Y-119046011D01*
X173021011Y-119367542D01*
X172847000Y-119787643D01*
X172847000Y-120242357D01*
X173021011Y-120662458D01*
X173342542Y-120983989D01*
X173762643Y-121158000D01*
X174217357Y-121158000D01*
X174637458Y-120983989D01*
X174958989Y-120662458D01*
X175133000Y-120242357D01*
X175133000Y-119801390D01*
X184459000Y-119801390D01*
X184459000Y-120748610D01*
X184821485Y-121623728D01*
X185491272Y-122293515D01*
X186366390Y-122656000D01*
X187313610Y-122656000D01*
X188188728Y-122293515D01*
X188858515Y-121623728D01*
X189221000Y-120748610D01*
X189221000Y-119801390D01*
X188858515Y-118926272D01*
X188188728Y-118256485D01*
X187313610Y-117894000D01*
X186366390Y-117894000D01*
X185491272Y-118256485D01*
X184821485Y-118926272D01*
X184459000Y-119801390D01*
X175133000Y-119801390D01*
X175133000Y-119787643D01*
X174958989Y-119367542D01*
X174637458Y-119046011D01*
X174599600Y-119030330D01*
X174599600Y-117189670D01*
X174637458Y-117173989D01*
X174958989Y-116852458D01*
X175133000Y-116432357D01*
X175133000Y-115977643D01*
X174964150Y-115570000D01*
X177865863Y-115570000D01*
X177957522Y-116030803D01*
X178218547Y-116421453D01*
X178609197Y-116682478D01*
X178953682Y-116751000D01*
X179186318Y-116751000D01*
X179530803Y-116682478D01*
X179921453Y-116421453D01*
X180182478Y-116030803D01*
X180274137Y-115570000D01*
X180182478Y-115109197D01*
X179921453Y-114718547D01*
X179530803Y-114457522D01*
X179186318Y-114389000D01*
X178953682Y-114389000D01*
X178609197Y-114457522D01*
X178218547Y-114718547D01*
X177957522Y-115109197D01*
X177865863Y-115570000D01*
X174964150Y-115570000D01*
X174958989Y-115557542D01*
X174637458Y-115236011D01*
X174217357Y-115062000D01*
X173762643Y-115062000D01*
X173342542Y-115236011D01*
X173021011Y-115557542D01*
X172847000Y-115977643D01*
X170019453Y-115977643D01*
X170091000Y-115804915D01*
X170091000Y-115335085D01*
X169911203Y-114901017D01*
X169578983Y-114568797D01*
X169144915Y-114389000D01*
X168675085Y-114389000D01*
X168241017Y-114568797D01*
X167908797Y-114901017D01*
X167729000Y-115335085D01*
X142109870Y-115335085D01*
X141938989Y-114922542D01*
X141617458Y-114601011D01*
X141503400Y-114553767D01*
X141503400Y-114352527D01*
X141513848Y-114300000D01*
X141503400Y-114247473D01*
X141503400Y-114247469D01*
X141472451Y-114091878D01*
X141354559Y-113915441D01*
X141310025Y-113885684D01*
X140737740Y-113313400D01*
X141079083Y-113313400D01*
X141238797Y-113698983D01*
X141571017Y-114031203D01*
X142005085Y-114211000D01*
X142474915Y-114211000D01*
X142908983Y-114031203D01*
X143241203Y-113698983D01*
X143421000Y-113264915D01*
X143421000Y-112865000D01*
X145496536Y-112865000D01*
X145496536Y-114465000D01*
X145526106Y-114613659D01*
X145610314Y-114739686D01*
X145736341Y-114823894D01*
X145885000Y-114853464D01*
X147485000Y-114853464D01*
X147633659Y-114823894D01*
X147759686Y-114739686D01*
X147843894Y-114613659D01*
X147873464Y-114465000D01*
X147873464Y-113665000D01*
X148020863Y-113665000D01*
X148112522Y-114125803D01*
X148373547Y-114516453D01*
X148764197Y-114777478D01*
X149108682Y-114846000D01*
X149341318Y-114846000D01*
X149685803Y-114777478D01*
X150076453Y-114516453D01*
X150337478Y-114125803D01*
X150429137Y-113665000D01*
X150560863Y-113665000D01*
X150652522Y-114125803D01*
X150913547Y-114516453D01*
X151304197Y-114777478D01*
X151648682Y-114846000D01*
X151881318Y-114846000D01*
X152225803Y-114777478D01*
X152616453Y-114516453D01*
X152877478Y-114125803D01*
X152969137Y-113665000D01*
X153100863Y-113665000D01*
X153192522Y-114125803D01*
X153453547Y-114516453D01*
X153844197Y-114777478D01*
X154188682Y-114846000D01*
X154421318Y-114846000D01*
X154765803Y-114777478D01*
X155156453Y-114516453D01*
X155417478Y-114125803D01*
X155509137Y-113665000D01*
X155640863Y-113665000D01*
X155732522Y-114125803D01*
X155993547Y-114516453D01*
X156384197Y-114777478D01*
X156728682Y-114846000D01*
X156961318Y-114846000D01*
X157305803Y-114777478D01*
X157696453Y-114516453D01*
X157957478Y-114125803D01*
X158049137Y-113665000D01*
X158180863Y-113665000D01*
X158272522Y-114125803D01*
X158533547Y-114516453D01*
X158924197Y-114777478D01*
X159268682Y-114846000D01*
X159501318Y-114846000D01*
X159845803Y-114777478D01*
X160236453Y-114516453D01*
X160497478Y-114125803D01*
X160589137Y-113665000D01*
X160720863Y-113665000D01*
X160812522Y-114125803D01*
X161073547Y-114516453D01*
X161464197Y-114777478D01*
X161808682Y-114846000D01*
X162041318Y-114846000D01*
X162385803Y-114777478D01*
X162776453Y-114516453D01*
X163037478Y-114125803D01*
X163129137Y-113665000D01*
X163037478Y-113204197D01*
X162954549Y-113080085D01*
X184239000Y-113080085D01*
X184239000Y-113549915D01*
X184418797Y-113983983D01*
X184751017Y-114316203D01*
X185185085Y-114496000D01*
X185654915Y-114496000D01*
X186088983Y-114316203D01*
X186421203Y-113983983D01*
X186601000Y-113549915D01*
X186601000Y-113080085D01*
X186421203Y-112646017D01*
X186088983Y-112313797D01*
X185654915Y-112134000D01*
X185185085Y-112134000D01*
X184751017Y-112313797D01*
X184418797Y-112646017D01*
X184239000Y-113080085D01*
X162954549Y-113080085D01*
X162776453Y-112813547D01*
X162385803Y-112552522D01*
X162041318Y-112484000D01*
X161808682Y-112484000D01*
X161464197Y-112552522D01*
X161073547Y-112813547D01*
X160812522Y-113204197D01*
X160720863Y-113665000D01*
X160589137Y-113665000D01*
X160497478Y-113204197D01*
X160236453Y-112813547D01*
X159845803Y-112552522D01*
X159501318Y-112484000D01*
X159268682Y-112484000D01*
X158924197Y-112552522D01*
X158533547Y-112813547D01*
X158272522Y-113204197D01*
X158180863Y-113665000D01*
X158049137Y-113665000D01*
X157957478Y-113204197D01*
X157696453Y-112813547D01*
X157305803Y-112552522D01*
X156961318Y-112484000D01*
X156728682Y-112484000D01*
X156384197Y-112552522D01*
X155993547Y-112813547D01*
X155732522Y-113204197D01*
X155640863Y-113665000D01*
X155509137Y-113665000D01*
X155417478Y-113204197D01*
X155156453Y-112813547D01*
X154765803Y-112552522D01*
X154421318Y-112484000D01*
X154188682Y-112484000D01*
X153844197Y-112552522D01*
X153453547Y-112813547D01*
X153192522Y-113204197D01*
X153100863Y-113665000D01*
X152969137Y-113665000D01*
X152877478Y-113204197D01*
X152616453Y-112813547D01*
X152225803Y-112552522D01*
X151881318Y-112484000D01*
X151648682Y-112484000D01*
X151304197Y-112552522D01*
X150913547Y-112813547D01*
X150652522Y-113204197D01*
X150560863Y-113665000D01*
X150429137Y-113665000D01*
X150337478Y-113204197D01*
X150076453Y-112813547D01*
X149685803Y-112552522D01*
X149341318Y-112484000D01*
X149108682Y-112484000D01*
X148764197Y-112552522D01*
X148373547Y-112813547D01*
X148112522Y-113204197D01*
X148020863Y-113665000D01*
X147873464Y-113665000D01*
X147873464Y-112865000D01*
X147843894Y-112716341D01*
X147759686Y-112590314D01*
X147633659Y-112506106D01*
X147485000Y-112476536D01*
X145885000Y-112476536D01*
X145736341Y-112506106D01*
X145610314Y-112590314D01*
X145526106Y-112716341D01*
X145496536Y-112865000D01*
X143421000Y-112865000D01*
X143421000Y-112795085D01*
X143241203Y-112361017D01*
X142908983Y-112028797D01*
X142474915Y-111849000D01*
X142005085Y-111849000D01*
X141571017Y-112028797D01*
X141353214Y-112246600D01*
X140695656Y-112246600D01*
X140718849Y-112130000D01*
X140677451Y-111921878D01*
X140599355Y-111805000D01*
X140677451Y-111688122D01*
X140718849Y-111480000D01*
X140677451Y-111271878D01*
X140599355Y-111155000D01*
X140677451Y-111038122D01*
X140718849Y-110830000D01*
X140677451Y-110621878D01*
X140560000Y-110446101D01*
X140560000Y-110438750D01*
X140401250Y-110280000D01*
X140086970Y-110280000D01*
X140073659Y-110271106D01*
X139993116Y-110255085D01*
X167729000Y-110255085D01*
X167729000Y-110724915D01*
X167908797Y-111158983D01*
X168241017Y-111491203D01*
X168675085Y-111671000D01*
X169144915Y-111671000D01*
X169578983Y-111491203D01*
X169911203Y-111158983D01*
X170091000Y-110724915D01*
X170091000Y-110490000D01*
X177865863Y-110490000D01*
X177957522Y-110950803D01*
X178218547Y-111341453D01*
X178609197Y-111602478D01*
X178953682Y-111671000D01*
X179186318Y-111671000D01*
X179530803Y-111602478D01*
X179921453Y-111341453D01*
X180182478Y-110950803D01*
X180274137Y-110490000D01*
X180238350Y-110310085D01*
X184239000Y-110310085D01*
X184239000Y-110779915D01*
X184418797Y-111213983D01*
X184751017Y-111546203D01*
X185185085Y-111726000D01*
X185654915Y-111726000D01*
X185729550Y-111695085D01*
X187079000Y-111695085D01*
X187079000Y-112164915D01*
X187258797Y-112598983D01*
X187591017Y-112931203D01*
X188025085Y-113111000D01*
X188494915Y-113111000D01*
X188928983Y-112931203D01*
X189261203Y-112598983D01*
X189441000Y-112164915D01*
X189441000Y-111695085D01*
X189261203Y-111261017D01*
X188928983Y-110928797D01*
X188494915Y-110749000D01*
X188025085Y-110749000D01*
X187591017Y-110928797D01*
X187258797Y-111261017D01*
X187079000Y-111695085D01*
X185729550Y-111695085D01*
X186088983Y-111546203D01*
X186421203Y-111213983D01*
X186601000Y-110779915D01*
X186601000Y-110310085D01*
X186542041Y-110167745D01*
X187431861Y-110167745D01*
X187505995Y-110413864D01*
X188043223Y-110606965D01*
X188613454Y-110579778D01*
X189014005Y-110413864D01*
X189088139Y-110167745D01*
X188260000Y-109339605D01*
X187431861Y-110167745D01*
X186542041Y-110167745D01*
X186421203Y-109876017D01*
X186088983Y-109543797D01*
X185654915Y-109364000D01*
X185185085Y-109364000D01*
X184751017Y-109543797D01*
X184418797Y-109876017D01*
X184239000Y-110310085D01*
X180238350Y-110310085D01*
X180182478Y-110029197D01*
X179921453Y-109638547D01*
X179530803Y-109377522D01*
X179186318Y-109309000D01*
X178953682Y-109309000D01*
X178609197Y-109377522D01*
X178218547Y-109638547D01*
X177957522Y-110029197D01*
X177865863Y-110490000D01*
X170091000Y-110490000D01*
X170091000Y-110255085D01*
X169911203Y-109821017D01*
X169578983Y-109488797D01*
X169144915Y-109309000D01*
X168675085Y-109309000D01*
X168241017Y-109488797D01*
X167908797Y-109821017D01*
X167729000Y-110255085D01*
X139993116Y-110255085D01*
X139925000Y-110241536D01*
X138825000Y-110241536D01*
X138676341Y-110271106D01*
X138663030Y-110280000D01*
X138348750Y-110280000D01*
X138190000Y-110438750D01*
X138190000Y-110506310D01*
X138286673Y-110739699D01*
X138436536Y-110889561D01*
X138436536Y-111030000D01*
X138461400Y-111155000D01*
X138436536Y-111280000D01*
X138436536Y-111596600D01*
X134717850Y-111596600D01*
X134701250Y-111580000D01*
X134556517Y-111580000D01*
X134584698Y-111568327D01*
X134763327Y-111389699D01*
X134814080Y-111267170D01*
X134860000Y-111221250D01*
X134860000Y-111088750D01*
X134814080Y-111042830D01*
X134763327Y-110920301D01*
X134584698Y-110741673D01*
X134556517Y-110730000D01*
X134701250Y-110730000D01*
X134770702Y-110660548D01*
X134914359Y-110564559D01*
X134944117Y-110520023D01*
X135595029Y-109869113D01*
X135639559Y-109839359D01*
X135669313Y-109794829D01*
X135669316Y-109794826D01*
X135757451Y-109662922D01*
X135765929Y-109620301D01*
X135788400Y-109507331D01*
X135788400Y-109507327D01*
X135798848Y-109454800D01*
X135788400Y-109402273D01*
X135788400Y-108764527D01*
X135798848Y-108712000D01*
X135788400Y-108659473D01*
X135788400Y-107463400D01*
X138436536Y-107463400D01*
X138436536Y-107780000D01*
X138461400Y-107905000D01*
X138436536Y-108030000D01*
X138436536Y-108430000D01*
X138461400Y-108555000D01*
X138436536Y-108680000D01*
X138436536Y-109080000D01*
X138461400Y-109205000D01*
X138436536Y-109330000D01*
X138436536Y-109470439D01*
X138286673Y-109620301D01*
X138190000Y-109853690D01*
X138190000Y-109921250D01*
X138348750Y-110080000D01*
X138663030Y-110080000D01*
X138676341Y-110088894D01*
X138825000Y-110118464D01*
X139925000Y-110118464D01*
X140073659Y-110088894D01*
X140086970Y-110080000D01*
X140401250Y-110080000D01*
X140560000Y-109921250D01*
X140560000Y-109913899D01*
X140677451Y-109738122D01*
X140718849Y-109530000D01*
X140677451Y-109321878D01*
X140599355Y-109205000D01*
X140677451Y-109088122D01*
X140718849Y-108880000D01*
X140677451Y-108671878D01*
X140599355Y-108555000D01*
X140677451Y-108438122D01*
X140718849Y-108230000D01*
X140695656Y-108113400D01*
X143427059Y-108113400D01*
X143677974Y-108364316D01*
X143677980Y-108364320D01*
X143684244Y-108370585D01*
X143637000Y-108484643D01*
X143637000Y-108939357D01*
X143811011Y-109359458D01*
X144132542Y-109680989D01*
X144552643Y-109855000D01*
X145007357Y-109855000D01*
X145427458Y-109680989D01*
X145748989Y-109359458D01*
X145923000Y-108939357D01*
X145923000Y-108484643D01*
X145748989Y-108064542D01*
X145427458Y-107743011D01*
X145007357Y-107569000D01*
X144552643Y-107569000D01*
X144438585Y-107616244D01*
X144432320Y-107609980D01*
X144432316Y-107609974D01*
X144362427Y-107540085D01*
X184239000Y-107540085D01*
X184239000Y-108009915D01*
X184418797Y-108443983D01*
X184751017Y-108776203D01*
X185185085Y-108956000D01*
X185654915Y-108956000D01*
X185685761Y-108943223D01*
X186813035Y-108943223D01*
X186840222Y-109513454D01*
X187006136Y-109914005D01*
X187252255Y-109988139D01*
X188080395Y-109160000D01*
X188439605Y-109160000D01*
X189267745Y-109988139D01*
X189513864Y-109914005D01*
X189706965Y-109376777D01*
X189679778Y-108806546D01*
X189513864Y-108405995D01*
X189267745Y-108331861D01*
X188439605Y-109160000D01*
X188080395Y-109160000D01*
X187252255Y-108331861D01*
X187006136Y-108405995D01*
X186813035Y-108943223D01*
X185685761Y-108943223D01*
X186088983Y-108776203D01*
X186421203Y-108443983D01*
X186542040Y-108152255D01*
X187431861Y-108152255D01*
X188260000Y-108980395D01*
X189088139Y-108152255D01*
X189014005Y-107906136D01*
X188476777Y-107713035D01*
X187906546Y-107740222D01*
X187505995Y-107906136D01*
X187431861Y-108152255D01*
X186542040Y-108152255D01*
X186601000Y-108009915D01*
X186601000Y-107540085D01*
X186421203Y-107106017D01*
X186088983Y-106773797D01*
X185654915Y-106594000D01*
X185185085Y-106594000D01*
X184751017Y-106773797D01*
X184418797Y-107106017D01*
X184239000Y-107540085D01*
X144362427Y-107540085D01*
X144062317Y-107239976D01*
X144032559Y-107195441D01*
X143856122Y-107077549D01*
X143700531Y-107046600D01*
X143700526Y-107046600D01*
X143648000Y-107036152D01*
X143595474Y-107046600D01*
X142627740Y-107046600D01*
X143215026Y-106459315D01*
X143259559Y-106429559D01*
X143377451Y-106253122D01*
X143408400Y-106097531D01*
X143408400Y-106097527D01*
X143418848Y-106045001D01*
X143418848Y-106045000D01*
X145480863Y-106045000D01*
X145572522Y-106505803D01*
X145833547Y-106896453D01*
X146224197Y-107157478D01*
X146568682Y-107226000D01*
X146801318Y-107226000D01*
X147145803Y-107157478D01*
X147536453Y-106896453D01*
X147797478Y-106505803D01*
X147889137Y-106045000D01*
X148020863Y-106045000D01*
X148112522Y-106505803D01*
X148373547Y-106896453D01*
X148764197Y-107157478D01*
X149108682Y-107226000D01*
X149341318Y-107226000D01*
X149685803Y-107157478D01*
X150076453Y-106896453D01*
X150337478Y-106505803D01*
X150429137Y-106045000D01*
X150560863Y-106045000D01*
X150652522Y-106505803D01*
X150913547Y-106896453D01*
X151304197Y-107157478D01*
X151648682Y-107226000D01*
X151881318Y-107226000D01*
X152225803Y-107157478D01*
X152616453Y-106896453D01*
X152877478Y-106505803D01*
X152943875Y-106172002D01*
X153034370Y-106172002D01*
X152913086Y-106394041D01*
X153152611Y-106900134D01*
X153567577Y-107276041D01*
X153955961Y-107436904D01*
X154178000Y-107314915D01*
X154178000Y-106172000D01*
X154158000Y-106172000D01*
X154158000Y-105918000D01*
X154178000Y-105918000D01*
X154178000Y-104775085D01*
X154432000Y-104775085D01*
X154432000Y-105918000D01*
X154452000Y-105918000D01*
X154452000Y-106172000D01*
X154432000Y-106172000D01*
X154432000Y-107314915D01*
X154654039Y-107436904D01*
X155042423Y-107276041D01*
X155457389Y-106900134D01*
X155696914Y-106394041D01*
X155575630Y-106172002D01*
X155666125Y-106172002D01*
X155732522Y-106505803D01*
X155993547Y-106896453D01*
X156384197Y-107157478D01*
X156728682Y-107226000D01*
X156961318Y-107226000D01*
X157305803Y-107157478D01*
X157696453Y-106896453D01*
X157957478Y-106505803D01*
X158049137Y-106045000D01*
X158180863Y-106045000D01*
X158272522Y-106505803D01*
X158533547Y-106896453D01*
X158924197Y-107157478D01*
X159268682Y-107226000D01*
X159501318Y-107226000D01*
X159845803Y-107157478D01*
X160236453Y-106896453D01*
X160497478Y-106505803D01*
X160589137Y-106045000D01*
X160720863Y-106045000D01*
X160812522Y-106505803D01*
X161073547Y-106896453D01*
X161464197Y-107157478D01*
X161808682Y-107226000D01*
X162041318Y-107226000D01*
X162385803Y-107157478D01*
X162776453Y-106896453D01*
X163037478Y-106505803D01*
X163129137Y-106045000D01*
X163082410Y-105810085D01*
X167729000Y-105810085D01*
X167729000Y-106279915D01*
X167908797Y-106713983D01*
X168241017Y-107046203D01*
X168675085Y-107226000D01*
X169144915Y-107226000D01*
X169578983Y-107046203D01*
X169911203Y-106713983D01*
X170091000Y-106279915D01*
X170091000Y-106045000D01*
X177865863Y-106045000D01*
X177957522Y-106505803D01*
X178218547Y-106896453D01*
X178609197Y-107157478D01*
X178953682Y-107226000D01*
X179186318Y-107226000D01*
X179530803Y-107157478D01*
X179921453Y-106896453D01*
X180182478Y-106505803D01*
X180274137Y-106045000D01*
X180182478Y-105584197D01*
X179921453Y-105193547D01*
X179530803Y-104932522D01*
X179186318Y-104864000D01*
X178953682Y-104864000D01*
X178609197Y-104932522D01*
X178218547Y-105193547D01*
X177957522Y-105584197D01*
X177865863Y-106045000D01*
X170091000Y-106045000D01*
X170091000Y-105810085D01*
X169911203Y-105376017D01*
X169578983Y-105043797D01*
X169144915Y-104864000D01*
X168675085Y-104864000D01*
X168241017Y-105043797D01*
X167908797Y-105376017D01*
X167729000Y-105810085D01*
X163082410Y-105810085D01*
X163037478Y-105584197D01*
X162776453Y-105193547D01*
X162385803Y-104932522D01*
X162041318Y-104864000D01*
X161808682Y-104864000D01*
X161464197Y-104932522D01*
X161073547Y-105193547D01*
X160812522Y-105584197D01*
X160720863Y-106045000D01*
X160589137Y-106045000D01*
X160497478Y-105584197D01*
X160236453Y-105193547D01*
X159845803Y-104932522D01*
X159501318Y-104864000D01*
X159268682Y-104864000D01*
X158924197Y-104932522D01*
X158533547Y-105193547D01*
X158272522Y-105584197D01*
X158180863Y-106045000D01*
X158049137Y-106045000D01*
X157957478Y-105584197D01*
X157696453Y-105193547D01*
X157305803Y-104932522D01*
X156961318Y-104864000D01*
X156728682Y-104864000D01*
X156384197Y-104932522D01*
X155993547Y-105193547D01*
X155732522Y-105584197D01*
X155666125Y-105917998D01*
X155575630Y-105917998D01*
X155696914Y-105695959D01*
X155457389Y-105189866D01*
X155042423Y-104813959D01*
X154936495Y-104770085D01*
X184239000Y-104770085D01*
X184239000Y-105239915D01*
X184418797Y-105673983D01*
X184751017Y-106006203D01*
X185185085Y-106186000D01*
X185654915Y-106186000D01*
X185729550Y-106155085D01*
X187079000Y-106155085D01*
X187079000Y-106624915D01*
X187258797Y-107058983D01*
X187591017Y-107391203D01*
X188025085Y-107571000D01*
X188494915Y-107571000D01*
X188928983Y-107391203D01*
X189261203Y-107058983D01*
X189441000Y-106624915D01*
X189441000Y-106155085D01*
X189261203Y-105721017D01*
X188928983Y-105388797D01*
X188494915Y-105209000D01*
X188025085Y-105209000D01*
X187591017Y-105388797D01*
X187258797Y-105721017D01*
X187079000Y-106155085D01*
X185729550Y-106155085D01*
X186088983Y-106006203D01*
X186421203Y-105673983D01*
X186601000Y-105239915D01*
X186601000Y-104770085D01*
X186421203Y-104336017D01*
X186088983Y-104003797D01*
X185654915Y-103824000D01*
X185185085Y-103824000D01*
X184751017Y-104003797D01*
X184418797Y-104336017D01*
X184239000Y-104770085D01*
X154936495Y-104770085D01*
X154654039Y-104653096D01*
X154432000Y-104775085D01*
X154178000Y-104775085D01*
X153955961Y-104653096D01*
X153567577Y-104813959D01*
X153152611Y-105189866D01*
X152913086Y-105695959D01*
X153034370Y-105917998D01*
X152943875Y-105917998D01*
X152877478Y-105584197D01*
X152616453Y-105193547D01*
X152225803Y-104932522D01*
X151881318Y-104864000D01*
X151648682Y-104864000D01*
X151304197Y-104932522D01*
X150913547Y-105193547D01*
X150652522Y-105584197D01*
X150560863Y-106045000D01*
X150429137Y-106045000D01*
X150337478Y-105584197D01*
X150076453Y-105193547D01*
X149685803Y-104932522D01*
X149341318Y-104864000D01*
X149108682Y-104864000D01*
X148764197Y-104932522D01*
X148373547Y-105193547D01*
X148112522Y-105584197D01*
X148020863Y-106045000D01*
X147889137Y-106045000D01*
X147797478Y-105584197D01*
X147536453Y-105193547D01*
X147145803Y-104932522D01*
X146801318Y-104864000D01*
X146568682Y-104864000D01*
X146224197Y-104932522D01*
X145833547Y-105193547D01*
X145572522Y-105584197D01*
X145480863Y-106045000D01*
X143418848Y-106045000D01*
X143408400Y-105992475D01*
X143408400Y-101435000D01*
X184231536Y-101435000D01*
X184231536Y-103035000D01*
X184261106Y-103183659D01*
X184345314Y-103309686D01*
X184471341Y-103393894D01*
X184620000Y-103423464D01*
X186220000Y-103423464D01*
X186368659Y-103393894D01*
X186381842Y-103385085D01*
X187079000Y-103385085D01*
X187079000Y-103854915D01*
X187258797Y-104288983D01*
X187591017Y-104621203D01*
X188025085Y-104801000D01*
X188494915Y-104801000D01*
X188928983Y-104621203D01*
X189261203Y-104288983D01*
X189441000Y-103854915D01*
X189441000Y-103385085D01*
X189261203Y-102951017D01*
X188928983Y-102618797D01*
X188494915Y-102439000D01*
X188025085Y-102439000D01*
X187591017Y-102618797D01*
X187258797Y-102951017D01*
X187079000Y-103385085D01*
X186381842Y-103385085D01*
X186494686Y-103309686D01*
X186578894Y-103183659D01*
X186608464Y-103035000D01*
X186608464Y-101435000D01*
X186578894Y-101286341D01*
X186494686Y-101160314D01*
X186368659Y-101076106D01*
X186220000Y-101046536D01*
X184620000Y-101046536D01*
X184471341Y-101076106D01*
X184345314Y-101160314D01*
X184261106Y-101286341D01*
X184231536Y-101435000D01*
X143408400Y-101435000D01*
X143408400Y-100076233D01*
X143522458Y-100028989D01*
X143843989Y-99707458D01*
X144018000Y-99287357D01*
X144018000Y-98832643D01*
X143843989Y-98412542D01*
X143522458Y-98091011D01*
X143102357Y-97917000D01*
X142647643Y-97917000D01*
X142227542Y-98091011D01*
X141906011Y-98412542D01*
X141732000Y-98832643D01*
X141732000Y-99287357D01*
X141906011Y-99707458D01*
X142227542Y-100028989D01*
X142341601Y-100076234D01*
X142341600Y-105824059D01*
X141769060Y-106396600D01*
X140417850Y-106396600D01*
X140401250Y-106380000D01*
X140086970Y-106380000D01*
X140073659Y-106371106D01*
X139925000Y-106341536D01*
X138825000Y-106341536D01*
X138676341Y-106371106D01*
X138663030Y-106380000D01*
X138348750Y-106380000D01*
X138332150Y-106396600D01*
X135307531Y-106396600D01*
X135255000Y-106386151D01*
X135202470Y-106396600D01*
X134717850Y-106396600D01*
X134701250Y-106380000D01*
X134386970Y-106380000D01*
X134373659Y-106371106D01*
X134225000Y-106341536D01*
X133125000Y-106341536D01*
X132976341Y-106371106D01*
X132963030Y-106380000D01*
X132648750Y-106380000D01*
X132490000Y-106538750D01*
X132490000Y-106589660D01*
X132240317Y-106339977D01*
X132210559Y-106295441D01*
X132034122Y-106177549D01*
X131878531Y-106146600D01*
X131878526Y-106146600D01*
X131826000Y-106136152D01*
X131822217Y-106136904D01*
X131778989Y-106032542D01*
X131700137Y-105953690D01*
X132490000Y-105953690D01*
X132490000Y-106021250D01*
X132648750Y-106180000D01*
X133548000Y-106180000D01*
X133548000Y-105603750D01*
X133802000Y-105603750D01*
X133802000Y-106180000D01*
X134701250Y-106180000D01*
X134860000Y-106021250D01*
X134860000Y-105953690D01*
X138190000Y-105953690D01*
X138190000Y-106021250D01*
X138348750Y-106180000D01*
X139248000Y-106180000D01*
X139248000Y-105603750D01*
X139502000Y-105603750D01*
X139502000Y-106180000D01*
X140401250Y-106180000D01*
X140560000Y-106021250D01*
X140560000Y-105953690D01*
X140463327Y-105720301D01*
X140284698Y-105541673D01*
X140051309Y-105445000D01*
X139660750Y-105445000D01*
X139502000Y-105603750D01*
X139248000Y-105603750D01*
X139089250Y-105445000D01*
X138698691Y-105445000D01*
X138465302Y-105541673D01*
X138286673Y-105720301D01*
X138190000Y-105953690D01*
X134860000Y-105953690D01*
X134763327Y-105720301D01*
X134584698Y-105541673D01*
X134351309Y-105445000D01*
X133960750Y-105445000D01*
X133802000Y-105603750D01*
X133548000Y-105603750D01*
X133389250Y-105445000D01*
X132998691Y-105445000D01*
X132765302Y-105541673D01*
X132586673Y-105720301D01*
X132490000Y-105953690D01*
X131700137Y-105953690D01*
X131457458Y-105711011D01*
X131037357Y-105537000D01*
X130582643Y-105537000D01*
X130162542Y-105711011D01*
X129841011Y-106032542D01*
X129667000Y-106452643D01*
X129667000Y-106907357D01*
X129841011Y-107327458D01*
X130162542Y-107648989D01*
X130582643Y-107823000D01*
X131037357Y-107823000D01*
X131457458Y-107648989D01*
X131749053Y-107357394D01*
X132311684Y-107920025D01*
X132341441Y-107964559D01*
X132517878Y-108082451D01*
X132621890Y-108103140D01*
X132648750Y-108130000D01*
X132963030Y-108130000D01*
X132976341Y-108138894D01*
X133125000Y-108168464D01*
X133822000Y-108168464D01*
X133822000Y-108291536D01*
X133125000Y-108291536D01*
X132976341Y-108321106D01*
X132963030Y-108330000D01*
X132648750Y-108330000D01*
X132490000Y-108488750D01*
X132490000Y-108556310D01*
X132532007Y-108657723D01*
X132522549Y-108671878D01*
X132481151Y-108880000D01*
X132504344Y-108996600D01*
X130578941Y-108996600D01*
X128803400Y-107221060D01*
X128803400Y-105630940D01*
X131103585Y-103330756D01*
X131217643Y-103378000D01*
X131672357Y-103378000D01*
X132092458Y-103203989D01*
X132413989Y-102882458D01*
X132588000Y-102462357D01*
X132588000Y-102007643D01*
X132413989Y-101587542D01*
X132092458Y-101266011D01*
X131672357Y-101092000D01*
X131217643Y-101092000D01*
X130797542Y-101266011D01*
X130476011Y-101587542D01*
X130302000Y-102007643D01*
X130302000Y-102462357D01*
X130349244Y-102576415D01*
X127929977Y-104995683D01*
X127885441Y-105025441D01*
X127767549Y-105201879D01*
X127736600Y-105357470D01*
X127736600Y-105357474D01*
X127726152Y-105410000D01*
X127736600Y-105462526D01*
X127736601Y-107389470D01*
X127726152Y-107442000D01*
X127736601Y-107494531D01*
X127767550Y-107650122D01*
X127885442Y-107826559D01*
X127929975Y-107856315D01*
X129943685Y-109870025D01*
X129973441Y-109914559D01*
X130149878Y-110032451D01*
X130305469Y-110063400D01*
X130305473Y-110063400D01*
X130358000Y-110073848D01*
X130410527Y-110063400D01*
X132504344Y-110063400D01*
X132481151Y-110180000D01*
X132522549Y-110388122D01*
X132532007Y-110402277D01*
X132490000Y-110503690D01*
X132490000Y-110571250D01*
X132648750Y-110730000D01*
X132793483Y-110730000D01*
X132765302Y-110741673D01*
X132586673Y-110920301D01*
X132535920Y-111042830D01*
X132490000Y-111088750D01*
X132490000Y-111221250D01*
X132535920Y-111267170D01*
X132586673Y-111389699D01*
X132765302Y-111568327D01*
X132793483Y-111580000D01*
X132648750Y-111580000D01*
X132632150Y-111596600D01*
X129495942Y-111596600D01*
X129365756Y-111466415D01*
X129413000Y-111352357D01*
X129413000Y-110897643D01*
X129238989Y-110477542D01*
X128917458Y-110156011D01*
X128497357Y-109982000D01*
X128042643Y-109982000D01*
X127622542Y-110156011D01*
X127301011Y-110477542D01*
X127127000Y-110897643D01*
X102056000Y-110897643D01*
X102056000Y-79757381D01*
X104140000Y-79757381D01*
X104140000Y-80262619D01*
X104333346Y-80729397D01*
X104690603Y-81086654D01*
X105157381Y-81280000D01*
X104690603Y-81473346D01*
X104333346Y-81830603D01*
X104140000Y-82297381D01*
X104140000Y-82802619D01*
X104333346Y-83269397D01*
X104690603Y-83626654D01*
X105157381Y-83820000D01*
X104690603Y-84013346D01*
X104333346Y-84370603D01*
X104140000Y-84837381D01*
X104140000Y-85342619D01*
X104333346Y-85809397D01*
X104690603Y-86166654D01*
X105157381Y-86360000D01*
X104690603Y-86553346D01*
X104333346Y-86910603D01*
X104140000Y-87377381D01*
X104140000Y-87882619D01*
X104333346Y-88349397D01*
X104690603Y-88706654D01*
X105157381Y-88900000D01*
X104690603Y-89093346D01*
X104333346Y-89450603D01*
X104140000Y-89917381D01*
X104140000Y-90422619D01*
X104333346Y-90889397D01*
X104690603Y-91246654D01*
X105157381Y-91440000D01*
X104690603Y-91633346D01*
X104333346Y-91990603D01*
X104140000Y-92457381D01*
X104140000Y-92962619D01*
X104333346Y-93429397D01*
X104690603Y-93786654D01*
X105157381Y-93980000D01*
X104690603Y-94173346D01*
X104333346Y-94530603D01*
X104140000Y-94997381D01*
X104140000Y-95502619D01*
X104333346Y-95969397D01*
X104690603Y-96326654D01*
X105157381Y-96520000D01*
X104690603Y-96713346D01*
X104333346Y-97070603D01*
X104140000Y-97537381D01*
X104140000Y-98042619D01*
X104333346Y-98509397D01*
X104690603Y-98866654D01*
X105157381Y-99060000D01*
X104690603Y-99253346D01*
X104333346Y-99610603D01*
X104140000Y-100077381D01*
X104140000Y-100582619D01*
X104333346Y-101049397D01*
X104690603Y-101406654D01*
X105157381Y-101600000D01*
X104690603Y-101793346D01*
X104333346Y-102150603D01*
X104140000Y-102617381D01*
X104140000Y-103122619D01*
X104333346Y-103589397D01*
X104690603Y-103946654D01*
X105157381Y-104140000D01*
X104690603Y-104333346D01*
X104333346Y-104690603D01*
X104140000Y-105157381D01*
X104140000Y-105662619D01*
X104333346Y-106129397D01*
X104690603Y-106486654D01*
X105157381Y-106680000D01*
X104690603Y-106873346D01*
X104333346Y-107230603D01*
X104140000Y-107697381D01*
X104140000Y-108202619D01*
X104333346Y-108669397D01*
X104690603Y-109026654D01*
X105157381Y-109220000D01*
X105662619Y-109220000D01*
X106129397Y-109026654D01*
X106486654Y-108669397D01*
X106680000Y-108202619D01*
X106680000Y-107697381D01*
X106486654Y-107230603D01*
X106129397Y-106873346D01*
X105662619Y-106680000D01*
X106129397Y-106486654D01*
X106486654Y-106129397D01*
X106680000Y-105662619D01*
X106680000Y-105157381D01*
X106486654Y-104690603D01*
X106129397Y-104333346D01*
X105662619Y-104140000D01*
X106129397Y-103946654D01*
X106486654Y-103589397D01*
X106680000Y-103122619D01*
X106680000Y-102617381D01*
X106486654Y-102150603D01*
X106129397Y-101793346D01*
X105662619Y-101600000D01*
X106129397Y-101406654D01*
X106486654Y-101049397D01*
X106680000Y-100582619D01*
X106680000Y-100077381D01*
X106486654Y-99610603D01*
X106129397Y-99253346D01*
X105662619Y-99060000D01*
X106129397Y-98866654D01*
X106486654Y-98509397D01*
X106680000Y-98042619D01*
X106680000Y-97537381D01*
X106486654Y-97070603D01*
X106129397Y-96713346D01*
X105662619Y-96520000D01*
X106129397Y-96326654D01*
X106486654Y-95969397D01*
X106680000Y-95502619D01*
X106680000Y-94997381D01*
X106486654Y-94530603D01*
X106129397Y-94173346D01*
X105662619Y-93980000D01*
X106129397Y-93786654D01*
X106486654Y-93429397D01*
X106680000Y-92962619D01*
X106680000Y-92457381D01*
X106486654Y-91990603D01*
X106129397Y-91633346D01*
X105662619Y-91440000D01*
X106129397Y-91246654D01*
X106486654Y-90889397D01*
X106680000Y-90422619D01*
X106680000Y-89917381D01*
X106486654Y-89450603D01*
X106129397Y-89093346D01*
X105662619Y-88900000D01*
X106129397Y-88706654D01*
X106486654Y-88349397D01*
X106680000Y-87882619D01*
X106680000Y-87377381D01*
X106486654Y-86910603D01*
X106129397Y-86553346D01*
X105662619Y-86360000D01*
X106129397Y-86166654D01*
X106486654Y-85809397D01*
X106680000Y-85342619D01*
X106680000Y-84837381D01*
X106486654Y-84370603D01*
X106129397Y-84013346D01*
X105662619Y-83820000D01*
X106129397Y-83626654D01*
X106486654Y-83269397D01*
X106680000Y-82802619D01*
X106680000Y-82297381D01*
X106486654Y-81830603D01*
X106129397Y-81473346D01*
X105662619Y-81280000D01*
X106129397Y-81086654D01*
X106486654Y-80729397D01*
X106680000Y-80262619D01*
X106680000Y-79782643D01*
X116332000Y-79782643D01*
X116332000Y-80237357D01*
X116506011Y-80657458D01*
X116827542Y-80978989D01*
X117247643Y-81153000D01*
X117702357Y-81153000D01*
X118122458Y-80978989D01*
X118443989Y-80657458D01*
X118459670Y-80619600D01*
X122494964Y-80619600D01*
X122555000Y-80631542D01*
X122615036Y-80619600D01*
X122615037Y-80619600D01*
X122792854Y-80584230D01*
X122994497Y-80449497D01*
X123028509Y-80398594D01*
X123669722Y-79757381D01*
X124460000Y-79757381D01*
X124460000Y-80262619D01*
X124653346Y-80729397D01*
X125010603Y-81086654D01*
X125477381Y-81280000D01*
X125010603Y-81473346D01*
X124653346Y-81830603D01*
X124460000Y-82297381D01*
X124460000Y-82802619D01*
X124653346Y-83269397D01*
X125010603Y-83626654D01*
X125477381Y-83820000D01*
X125010603Y-84013346D01*
X124653346Y-84370603D01*
X124460000Y-84837381D01*
X124460000Y-85342619D01*
X124653346Y-85809397D01*
X125010603Y-86166654D01*
X125477381Y-86360000D01*
X125010603Y-86553346D01*
X124653346Y-86910603D01*
X124460000Y-87377381D01*
X124460000Y-87882619D01*
X124653346Y-88349397D01*
X125010603Y-88706654D01*
X125477381Y-88900000D01*
X125010603Y-89093346D01*
X124653346Y-89450603D01*
X124460000Y-89917381D01*
X124460000Y-90422619D01*
X124653346Y-90889397D01*
X125010603Y-91246654D01*
X125477381Y-91440000D01*
X125010603Y-91633346D01*
X124653346Y-91990603D01*
X124460000Y-92457381D01*
X124460000Y-92962619D01*
X124653346Y-93429397D01*
X125010603Y-93786654D01*
X125477381Y-93980000D01*
X125010603Y-94173346D01*
X124653346Y-94530603D01*
X124460000Y-94997381D01*
X124460000Y-95502619D01*
X124653346Y-95969397D01*
X125010603Y-96326654D01*
X125477381Y-96520000D01*
X125010603Y-96713346D01*
X124653346Y-97070603D01*
X124460000Y-97537381D01*
X124460000Y-98042619D01*
X124653346Y-98509397D01*
X125010603Y-98866654D01*
X125477381Y-99060000D01*
X125010603Y-99253346D01*
X124653346Y-99610603D01*
X124460000Y-100077381D01*
X124460000Y-100582619D01*
X124653346Y-101049397D01*
X125010603Y-101406654D01*
X125477381Y-101600000D01*
X125010603Y-101793346D01*
X124653346Y-102150603D01*
X124460000Y-102617381D01*
X124460000Y-103122619D01*
X124653346Y-103589397D01*
X125010603Y-103946654D01*
X125477381Y-104140000D01*
X125010603Y-104333346D01*
X124653346Y-104690603D01*
X124460000Y-105157381D01*
X124460000Y-105662619D01*
X124653346Y-106129397D01*
X125010603Y-106486654D01*
X125477381Y-106680000D01*
X125010603Y-106873346D01*
X124653346Y-107230603D01*
X124460000Y-107697381D01*
X124460000Y-108202619D01*
X124653346Y-108669397D01*
X125010603Y-109026654D01*
X125477381Y-109220000D01*
X125982619Y-109220000D01*
X126449397Y-109026654D01*
X126806654Y-108669397D01*
X127000000Y-108202619D01*
X127000000Y-107697381D01*
X126806654Y-107230603D01*
X126449397Y-106873346D01*
X125982619Y-106680000D01*
X126449397Y-106486654D01*
X126806654Y-106129397D01*
X127000000Y-105662619D01*
X127000000Y-105157381D01*
X126806654Y-104690603D01*
X126449397Y-104333346D01*
X125982619Y-104140000D01*
X126449397Y-103946654D01*
X126806654Y-103589397D01*
X127000000Y-103122619D01*
X127000000Y-102617381D01*
X126806654Y-102150603D01*
X126449397Y-101793346D01*
X125982619Y-101600000D01*
X126449397Y-101406654D01*
X126806654Y-101049397D01*
X127000000Y-100582619D01*
X127000000Y-100077381D01*
X126806654Y-99610603D01*
X126449397Y-99253346D01*
X125982619Y-99060000D01*
X126449397Y-98866654D01*
X126806654Y-98509397D01*
X127000000Y-98042619D01*
X127000000Y-97537381D01*
X126806654Y-97070603D01*
X126449397Y-96713346D01*
X125982619Y-96520000D01*
X126449397Y-96326654D01*
X126806654Y-95969397D01*
X127000000Y-95502619D01*
X127000000Y-94997381D01*
X126918818Y-94801390D01*
X184459000Y-94801390D01*
X184459000Y-95748610D01*
X184821485Y-96623728D01*
X185491272Y-97293515D01*
X186366390Y-97656000D01*
X187313610Y-97656000D01*
X188188728Y-97293515D01*
X188858515Y-96623728D01*
X189221000Y-95748610D01*
X189221000Y-94801390D01*
X188858515Y-93926272D01*
X188188728Y-93256485D01*
X187313610Y-92894000D01*
X186366390Y-92894000D01*
X185491272Y-93256485D01*
X184821485Y-93926272D01*
X184459000Y-94801390D01*
X126918818Y-94801390D01*
X126806654Y-94530603D01*
X126449397Y-94173346D01*
X125982619Y-93980000D01*
X126449397Y-93786654D01*
X126806654Y-93429397D01*
X127000000Y-92962619D01*
X127000000Y-92457381D01*
X126806654Y-91990603D01*
X126449397Y-91633346D01*
X125982619Y-91440000D01*
X126449397Y-91246654D01*
X126806654Y-90889397D01*
X127000000Y-90422619D01*
X127000000Y-89917381D01*
X126806654Y-89450603D01*
X126776051Y-89420000D01*
X141236536Y-89420000D01*
X141236536Y-90920000D01*
X141266106Y-91068659D01*
X141350314Y-91194686D01*
X141476341Y-91278894D01*
X141625000Y-91308464D01*
X144125000Y-91308464D01*
X144273659Y-91278894D01*
X144399686Y-91194686D01*
X144483894Y-91068659D01*
X144513464Y-90920000D01*
X144513464Y-89420000D01*
X144483894Y-89271341D01*
X144399686Y-89145314D01*
X144273659Y-89061106D01*
X144125000Y-89031536D01*
X141625000Y-89031536D01*
X141476341Y-89061106D01*
X141350314Y-89145314D01*
X141266106Y-89271341D01*
X141236536Y-89420000D01*
X126776051Y-89420000D01*
X126449397Y-89093346D01*
X125982619Y-88900000D01*
X126449397Y-88706654D01*
X126806654Y-88349397D01*
X126963314Y-87971185D01*
X141032682Y-87971185D01*
X141046827Y-88042684D01*
X141305855Y-88519540D01*
X141727651Y-88860972D01*
X142248000Y-89015000D01*
X142748000Y-89015000D01*
X142748000Y-87757000D01*
X143002000Y-87757000D01*
X143002000Y-89015000D01*
X143502000Y-89015000D01*
X144022349Y-88860972D01*
X144444145Y-88519540D01*
X144504987Y-88407532D01*
X189272073Y-88407532D01*
X189370736Y-88674387D01*
X189980461Y-88900908D01*
X190630460Y-88876856D01*
X191119264Y-88674387D01*
X191217927Y-88407532D01*
X190245000Y-87434605D01*
X189272073Y-88407532D01*
X144504987Y-88407532D01*
X144703173Y-88042684D01*
X144717318Y-87971185D01*
X144594656Y-87757000D01*
X143002000Y-87757000D01*
X142748000Y-87757000D01*
X141155344Y-87757000D01*
X141032682Y-87971185D01*
X126963314Y-87971185D01*
X127000000Y-87882619D01*
X127000000Y-87377381D01*
X126963315Y-87288815D01*
X141032682Y-87288815D01*
X141155344Y-87503000D01*
X142748000Y-87503000D01*
X142748000Y-86245000D01*
X143002000Y-86245000D01*
X143002000Y-87503000D01*
X144594656Y-87503000D01*
X144717318Y-87288815D01*
X144703173Y-87217316D01*
X144444145Y-86740460D01*
X144022349Y-86399028D01*
X143502000Y-86245000D01*
X143002000Y-86245000D01*
X142748000Y-86245000D01*
X142248000Y-86245000D01*
X141727651Y-86399028D01*
X141305855Y-86740460D01*
X141046827Y-87217316D01*
X141032682Y-87288815D01*
X126963315Y-87288815D01*
X126806654Y-86910603D01*
X126449397Y-86553346D01*
X125982619Y-86360000D01*
X126449397Y-86166654D01*
X126806654Y-85809397D01*
X127000000Y-85342619D01*
X127000000Y-85090000D01*
X141221843Y-85090000D01*
X141309622Y-85531294D01*
X141559595Y-85905405D01*
X141933706Y-86155378D01*
X142263609Y-86221000D01*
X143486391Y-86221000D01*
X143816294Y-86155378D01*
X144190405Y-85905405D01*
X144287541Y-85760030D01*
X183404000Y-85760030D01*
X183404000Y-86209970D01*
X183576184Y-86625660D01*
X183894340Y-86943816D01*
X184310030Y-87116000D01*
X184759970Y-87116000D01*
X185063048Y-86990461D01*
X188599092Y-86990461D01*
X188623144Y-87640460D01*
X188825613Y-88129264D01*
X189092468Y-88227927D01*
X190065395Y-87255000D01*
X190424605Y-87255000D01*
X191397532Y-88227927D01*
X191664387Y-88129264D01*
X191890908Y-87519539D01*
X191866856Y-86869540D01*
X191664387Y-86380736D01*
X191397532Y-86282073D01*
X190424605Y-87255000D01*
X190065395Y-87255000D01*
X189092468Y-86282073D01*
X188825613Y-86380736D01*
X188599092Y-86990461D01*
X185063048Y-86990461D01*
X185175660Y-86943816D01*
X185493816Y-86625660D01*
X185666000Y-86209970D01*
X185666000Y-86102468D01*
X189272073Y-86102468D01*
X190245000Y-87075395D01*
X191217927Y-86102468D01*
X191119264Y-85835613D01*
X190509539Y-85609092D01*
X189859540Y-85633144D01*
X189370736Y-85835613D01*
X189272073Y-86102468D01*
X185666000Y-86102468D01*
X185666000Y-85760030D01*
X185493816Y-85344340D01*
X185225458Y-85075982D01*
X191669000Y-85075982D01*
X191669000Y-85874018D01*
X191974395Y-86611308D01*
X192538692Y-87175605D01*
X193275982Y-87481000D01*
X194074018Y-87481000D01*
X194811308Y-87175605D01*
X195375605Y-86611308D01*
X195681000Y-85874018D01*
X195681000Y-85075982D01*
X195375605Y-84338692D01*
X194811308Y-83774395D01*
X194074018Y-83469000D01*
X193275982Y-83469000D01*
X192538692Y-83774395D01*
X191974395Y-84338692D01*
X191669000Y-85075982D01*
X185225458Y-85075982D01*
X185175660Y-85026184D01*
X184759970Y-84854000D01*
X184310030Y-84854000D01*
X183894340Y-85026184D01*
X183576184Y-85344340D01*
X183404000Y-85760030D01*
X144287541Y-85760030D01*
X144440378Y-85531294D01*
X144528157Y-85090000D01*
X144440378Y-84648706D01*
X144190405Y-84274595D01*
X143816294Y-84024622D01*
X143486391Y-83959000D01*
X142263609Y-83959000D01*
X141933706Y-84024622D01*
X141559595Y-84274595D01*
X141309622Y-84648706D01*
X141221843Y-85090000D01*
X127000000Y-85090000D01*
X127000000Y-84837381D01*
X126806654Y-84370603D01*
X126449397Y-84013346D01*
X125982619Y-83820000D01*
X126449397Y-83626654D01*
X126606021Y-83470030D01*
X183404000Y-83470030D01*
X183404000Y-83919970D01*
X183576184Y-84335660D01*
X183894340Y-84653816D01*
X184310030Y-84826000D01*
X184759970Y-84826000D01*
X185175660Y-84653816D01*
X185493816Y-84335660D01*
X185666000Y-83919970D01*
X185666000Y-83470030D01*
X185493816Y-83054340D01*
X185175660Y-82736184D01*
X184759970Y-82564000D01*
X184310030Y-82564000D01*
X183894340Y-82736184D01*
X183576184Y-83054340D01*
X183404000Y-83470030D01*
X126606021Y-83470030D01*
X126806654Y-83269397D01*
X127000000Y-82802619D01*
X127000000Y-82297381D01*
X126806654Y-81830603D01*
X126449397Y-81473346D01*
X125982619Y-81280000D01*
X126449397Y-81086654D01*
X126806654Y-80729397D01*
X127000000Y-80262619D01*
X127000000Y-79757381D01*
X126806654Y-79290603D01*
X126449397Y-78933346D01*
X125982619Y-78740000D01*
X125477381Y-78740000D01*
X125010603Y-78933346D01*
X124653346Y-79290603D01*
X124460000Y-79757381D01*
X123669722Y-79757381D01*
X124712504Y-78714600D01*
X127382497Y-78714600D01*
X130971494Y-82303599D01*
X131005503Y-82354497D01*
X131056400Y-82388505D01*
X131207146Y-82489230D01*
X131445000Y-82536542D01*
X131505036Y-82524600D01*
X132365330Y-82524600D01*
X132381011Y-82562458D01*
X132702542Y-82883989D01*
X133122643Y-83058000D01*
X133577357Y-83058000D01*
X133997458Y-82883989D01*
X134318989Y-82562458D01*
X134493000Y-82142357D01*
X134493000Y-81687643D01*
X134318989Y-81267542D01*
X133997458Y-80946011D01*
X133577357Y-80772000D01*
X133122643Y-80772000D01*
X132702542Y-80946011D01*
X132381011Y-81267542D01*
X132365330Y-81305400D01*
X131697505Y-81305400D01*
X130167190Y-79775085D01*
X158204000Y-79775085D01*
X158204000Y-80244915D01*
X158383797Y-80678983D01*
X158716017Y-81011203D01*
X159150085Y-81191000D01*
X159619915Y-81191000D01*
X160053983Y-81011203D01*
X160386203Y-80678983D01*
X160566000Y-80244915D01*
X160566000Y-80010000D01*
X168340863Y-80010000D01*
X168432522Y-80470803D01*
X168693547Y-80861453D01*
X169084197Y-81122478D01*
X169428682Y-81191000D01*
X169661318Y-81191000D01*
X170005803Y-81122478D01*
X170396453Y-80861453D01*
X170657478Y-80470803D01*
X170749137Y-80010000D01*
X170657478Y-79549197D01*
X170396453Y-79158547D01*
X170005803Y-78897522D01*
X169661318Y-78829000D01*
X169428682Y-78829000D01*
X169084197Y-78897522D01*
X168693547Y-79158547D01*
X168432522Y-79549197D01*
X168340863Y-80010000D01*
X160566000Y-80010000D01*
X160566000Y-79775085D01*
X160386203Y-79341017D01*
X160053983Y-79008797D01*
X159619915Y-78829000D01*
X159150085Y-78829000D01*
X158716017Y-79008797D01*
X158383797Y-79341017D01*
X158204000Y-79775085D01*
X130167190Y-79775085D01*
X128108509Y-77716406D01*
X128074497Y-77665503D01*
X127872854Y-77530770D01*
X127695037Y-77495400D01*
X127695036Y-77495400D01*
X127635000Y-77483458D01*
X127574964Y-77495400D01*
X124520036Y-77495400D01*
X124460000Y-77483458D01*
X124399963Y-77495400D01*
X124222146Y-77530770D01*
X124020503Y-77665503D01*
X123986492Y-77716404D01*
X122302497Y-79400400D01*
X118459670Y-79400400D01*
X118443989Y-79362542D01*
X118122458Y-79041011D01*
X117702357Y-78867000D01*
X117247643Y-78867000D01*
X116827542Y-79041011D01*
X116506011Y-79362542D01*
X116332000Y-79782643D01*
X106680000Y-79782643D01*
X106680000Y-79757381D01*
X106486654Y-79290603D01*
X106129397Y-78933346D01*
X106009531Y-78883696D01*
X106217533Y-78797539D01*
X106302591Y-78542196D01*
X105410000Y-77649605D01*
X104517409Y-78542196D01*
X104602467Y-78797539D01*
X104823551Y-78878277D01*
X104690603Y-78933346D01*
X104333346Y-79290603D01*
X104140000Y-79757381D01*
X102056000Y-79757381D01*
X102056000Y-77231965D01*
X103874484Y-77231965D01*
X103900277Y-77837700D01*
X104082461Y-78277533D01*
X104337804Y-78362591D01*
X105230395Y-77470000D01*
X105589605Y-77470000D01*
X106482196Y-78362591D01*
X106737539Y-78277533D01*
X106945516Y-77708035D01*
X106919723Y-77102300D01*
X106737539Y-76662467D01*
X106572959Y-76607643D01*
X116332000Y-76607643D01*
X116332000Y-77062357D01*
X116506011Y-77482458D01*
X116827542Y-77803989D01*
X117247643Y-77978000D01*
X117702357Y-77978000D01*
X118122458Y-77803989D01*
X118443989Y-77482458D01*
X118459670Y-77444600D01*
X121570330Y-77444600D01*
X121586011Y-77482458D01*
X121907542Y-77803989D01*
X122327643Y-77978000D01*
X122782357Y-77978000D01*
X123202458Y-77803989D01*
X123523989Y-77482458D01*
X123698000Y-77062357D01*
X123698000Y-76607643D01*
X123595436Y-76360030D01*
X188224000Y-76360030D01*
X188224000Y-76809970D01*
X188396184Y-77225660D01*
X188714340Y-77543816D01*
X188862052Y-77605000D01*
X188714340Y-77666184D01*
X188396184Y-77984340D01*
X188224000Y-78400030D01*
X188224000Y-78849970D01*
X188396184Y-79265660D01*
X188714340Y-79583816D01*
X188862052Y-79645000D01*
X188714340Y-79706184D01*
X188396184Y-80024340D01*
X188224000Y-80440030D01*
X188224000Y-80889970D01*
X188396184Y-81305660D01*
X188714340Y-81623816D01*
X188862052Y-81685000D01*
X188714340Y-81746184D01*
X188396184Y-82064340D01*
X188224000Y-82480030D01*
X188224000Y-82929970D01*
X188396184Y-83345660D01*
X188714340Y-83663816D01*
X189130030Y-83836000D01*
X189579970Y-83836000D01*
X189995660Y-83663816D01*
X190313816Y-83345660D01*
X190486000Y-82929970D01*
X190486000Y-82635476D01*
X190494340Y-82643816D01*
X190910030Y-82816000D01*
X191359970Y-82816000D01*
X191775660Y-82643816D01*
X192093816Y-82325660D01*
X192266000Y-81909970D01*
X192266000Y-81460030D01*
X192093816Y-81044340D01*
X191775660Y-80726184D01*
X191627948Y-80665000D01*
X191775660Y-80603816D01*
X192093816Y-80285660D01*
X192266000Y-79869970D01*
X192266000Y-79420030D01*
X192093816Y-79004340D01*
X191775660Y-78686184D01*
X191627948Y-78625000D01*
X191775660Y-78563816D01*
X192093816Y-78245660D01*
X192266000Y-77829970D01*
X192266000Y-77380030D01*
X192093816Y-76964340D01*
X192059511Y-76930035D01*
X192244699Y-76853327D01*
X192423327Y-76674698D01*
X192520000Y-76441309D01*
X192520000Y-75850750D01*
X192361250Y-75692000D01*
X191262000Y-75692000D01*
X191262000Y-75712000D01*
X191008000Y-75712000D01*
X191008000Y-75692000D01*
X190988000Y-75692000D01*
X190988000Y-75438000D01*
X191008000Y-75438000D01*
X191008000Y-74338750D01*
X191262000Y-74338750D01*
X191262000Y-75438000D01*
X192361250Y-75438000D01*
X192520000Y-75279250D01*
X192520000Y-74688691D01*
X192423327Y-74455302D01*
X192244699Y-74276673D01*
X192011310Y-74180000D01*
X191420750Y-74180000D01*
X191262000Y-74338750D01*
X191008000Y-74338750D01*
X190849250Y-74180000D01*
X190258690Y-74180000D01*
X190025301Y-74276673D01*
X189846673Y-74455302D01*
X189750000Y-74688691D01*
X189750000Y-75279250D01*
X189908748Y-75437998D01*
X189750000Y-75437998D01*
X189750000Y-75524429D01*
X189579970Y-75454000D01*
X189130030Y-75454000D01*
X188714340Y-75626184D01*
X188396184Y-75944340D01*
X188224000Y-76360030D01*
X123595436Y-76360030D01*
X123523989Y-76187542D01*
X123202458Y-75866011D01*
X122782357Y-75692000D01*
X122327643Y-75692000D01*
X121907542Y-75866011D01*
X121586011Y-76187542D01*
X121570330Y-76225400D01*
X118459670Y-76225400D01*
X118443989Y-76187542D01*
X118122458Y-75866011D01*
X117702357Y-75692000D01*
X117247643Y-75692000D01*
X116827542Y-75866011D01*
X116506011Y-76187542D01*
X116332000Y-76607643D01*
X106572959Y-76607643D01*
X106482196Y-76577409D01*
X105589605Y-77470000D01*
X105230395Y-77470000D01*
X104337804Y-76577409D01*
X104082461Y-76662467D01*
X103874484Y-77231965D01*
X102056000Y-77231965D01*
X102056000Y-69597381D01*
X104140000Y-69597381D01*
X104140000Y-70102619D01*
X104333346Y-70569397D01*
X104690603Y-70926654D01*
X105157381Y-71120000D01*
X104690603Y-71313346D01*
X104333346Y-71670603D01*
X104140000Y-72137381D01*
X104140000Y-72642619D01*
X104333346Y-73109397D01*
X104690603Y-73466654D01*
X105157381Y-73660000D01*
X104690603Y-73853346D01*
X104333346Y-74210603D01*
X104140000Y-74677381D01*
X104140000Y-75182619D01*
X104333346Y-75649397D01*
X104690603Y-76006654D01*
X104810469Y-76056304D01*
X104602467Y-76142461D01*
X104517409Y-76397804D01*
X105410000Y-77290395D01*
X106302591Y-76397804D01*
X106217533Y-76142461D01*
X105996449Y-76061723D01*
X106129397Y-76006654D01*
X106486654Y-75649397D01*
X106680000Y-75182619D01*
X106680000Y-74677381D01*
X106486654Y-74210603D01*
X106343694Y-74067643D01*
X116332000Y-74067643D01*
X116332000Y-74522357D01*
X116506011Y-74942458D01*
X116827542Y-75263989D01*
X117247643Y-75438000D01*
X117702357Y-75438000D01*
X118122458Y-75263989D01*
X118443989Y-74942458D01*
X118459670Y-74904600D01*
X121570330Y-74904600D01*
X121586011Y-74942458D01*
X121907542Y-75263989D01*
X122327643Y-75438000D01*
X122782357Y-75438000D01*
X123202458Y-75263989D01*
X123523989Y-74942458D01*
X123619862Y-74710997D01*
X136059000Y-74710997D01*
X136059000Y-75149003D01*
X136226617Y-75553666D01*
X136536334Y-75863383D01*
X136940997Y-76031000D01*
X137379003Y-76031000D01*
X137783666Y-75863383D01*
X138093383Y-75553666D01*
X138261000Y-75149003D01*
X138261000Y-74710997D01*
X149394000Y-74710997D01*
X149394000Y-75149003D01*
X149561617Y-75553666D01*
X149871334Y-75863383D01*
X150275997Y-76031000D01*
X150714003Y-76031000D01*
X151118666Y-75863383D01*
X151428383Y-75553666D01*
X151596000Y-75149003D01*
X151596000Y-74710997D01*
X151428383Y-74306334D01*
X151118666Y-73996617D01*
X151055793Y-73970574D01*
X157754000Y-73970574D01*
X157754000Y-74619426D01*
X158002305Y-75218887D01*
X158461113Y-75677695D01*
X159060574Y-75926000D01*
X159709426Y-75926000D01*
X160308887Y-75677695D01*
X160767695Y-75218887D01*
X161016000Y-74619426D01*
X161016000Y-74099867D01*
X163484000Y-74099867D01*
X163484000Y-74490133D01*
X163633348Y-74850692D01*
X163909308Y-75126652D01*
X164269867Y-75276000D01*
X164660133Y-75276000D01*
X165020692Y-75126652D01*
X165296652Y-74850692D01*
X165446000Y-74490133D01*
X165446000Y-74099867D01*
X165392446Y-73970574D01*
X167914000Y-73970574D01*
X167914000Y-74619426D01*
X168162305Y-75218887D01*
X168621113Y-75677695D01*
X169220574Y-75926000D01*
X169869426Y-75926000D01*
X170468887Y-75677695D01*
X170927695Y-75218887D01*
X171176000Y-74619426D01*
X171176000Y-74330030D01*
X183404000Y-74330030D01*
X183404000Y-74779970D01*
X183576184Y-75195660D01*
X183894340Y-75513816D01*
X184310030Y-75686000D01*
X184759970Y-75686000D01*
X185175660Y-75513816D01*
X185493816Y-75195660D01*
X185666000Y-74779970D01*
X185666000Y-74330030D01*
X185493816Y-73914340D01*
X185175660Y-73596184D01*
X184759970Y-73424000D01*
X184310030Y-73424000D01*
X183894340Y-73596184D01*
X183576184Y-73914340D01*
X183404000Y-74330030D01*
X171176000Y-74330030D01*
X171176000Y-73970574D01*
X170927695Y-73371113D01*
X170468887Y-72912305D01*
X169869426Y-72664000D01*
X169220574Y-72664000D01*
X168621113Y-72912305D01*
X168162305Y-73371113D01*
X167914000Y-73970574D01*
X165392446Y-73970574D01*
X165296652Y-73739308D01*
X165020692Y-73463348D01*
X164660133Y-73314000D01*
X164269867Y-73314000D01*
X163909308Y-73463348D01*
X163633348Y-73739308D01*
X163484000Y-74099867D01*
X161016000Y-74099867D01*
X161016000Y-73970574D01*
X160767695Y-73371113D01*
X160308887Y-72912305D01*
X159709426Y-72664000D01*
X159060574Y-72664000D01*
X158461113Y-72912305D01*
X158002305Y-73371113D01*
X157754000Y-73970574D01*
X151055793Y-73970574D01*
X150714003Y-73829000D01*
X150275997Y-73829000D01*
X149871334Y-73996617D01*
X149561617Y-74306334D01*
X149394000Y-74710997D01*
X138261000Y-74710997D01*
X138093383Y-74306334D01*
X137783666Y-73996617D01*
X137379003Y-73829000D01*
X136940997Y-73829000D01*
X136536334Y-73996617D01*
X136226617Y-74306334D01*
X136059000Y-74710997D01*
X123619862Y-74710997D01*
X123698000Y-74522357D01*
X123698000Y-74067643D01*
X123523989Y-73647542D01*
X123202458Y-73326011D01*
X122782357Y-73152000D01*
X122327643Y-73152000D01*
X121907542Y-73326011D01*
X121586011Y-73647542D01*
X121570330Y-73685400D01*
X118459670Y-73685400D01*
X118443989Y-73647542D01*
X118122458Y-73326011D01*
X117702357Y-73152000D01*
X117247643Y-73152000D01*
X116827542Y-73326011D01*
X116506011Y-73647542D01*
X116332000Y-74067643D01*
X106343694Y-74067643D01*
X106129397Y-73853346D01*
X105662619Y-73660000D01*
X106129397Y-73466654D01*
X106486654Y-73109397D01*
X106680000Y-72642619D01*
X106680000Y-72170997D01*
X133519000Y-72170997D01*
X133519000Y-72609003D01*
X133686617Y-73013666D01*
X133996334Y-73323383D01*
X134400997Y-73491000D01*
X134839003Y-73491000D01*
X135204094Y-73339774D01*
X138929831Y-73339774D01*
X138994131Y-73577611D01*
X139502342Y-73757333D01*
X140040644Y-73728892D01*
X140405869Y-73577611D01*
X140470169Y-73339774D01*
X139700000Y-72569605D01*
X138929831Y-73339774D01*
X135204094Y-73339774D01*
X135243666Y-73323383D01*
X135553383Y-73013666D01*
X135721000Y-72609003D01*
X135721000Y-72192342D01*
X138332667Y-72192342D01*
X138361108Y-72730644D01*
X138512389Y-73095869D01*
X138750226Y-73160169D01*
X139520395Y-72390000D01*
X139879605Y-72390000D01*
X140649774Y-73160169D01*
X140887611Y-73095869D01*
X141067333Y-72587658D01*
X141045319Y-72170997D01*
X146854000Y-72170997D01*
X146854000Y-72609003D01*
X147021617Y-73013666D01*
X147331334Y-73323383D01*
X147735997Y-73491000D01*
X148174003Y-73491000D01*
X148539094Y-73339774D01*
X152264831Y-73339774D01*
X152329131Y-73577611D01*
X152837342Y-73757333D01*
X153375644Y-73728892D01*
X153740869Y-73577611D01*
X153805169Y-73339774D01*
X153035000Y-72569605D01*
X152264831Y-73339774D01*
X148539094Y-73339774D01*
X148578666Y-73323383D01*
X148888383Y-73013666D01*
X149056000Y-72609003D01*
X149056000Y-72192342D01*
X151667667Y-72192342D01*
X151696108Y-72730644D01*
X151847389Y-73095869D01*
X152085226Y-73160169D01*
X152855395Y-72390000D01*
X153214605Y-72390000D01*
X153984774Y-73160169D01*
X154222611Y-73095869D01*
X154402333Y-72587658D01*
X154373892Y-72049356D01*
X154370030Y-72040030D01*
X183404000Y-72040030D01*
X183404000Y-72489970D01*
X183576184Y-72905660D01*
X183894340Y-73223816D01*
X184310030Y-73396000D01*
X184759970Y-73396000D01*
X185175660Y-73223816D01*
X185493816Y-72905660D01*
X185666000Y-72489970D01*
X185666000Y-72147532D01*
X189272073Y-72147532D01*
X189370736Y-72414387D01*
X189980461Y-72640908D01*
X190630460Y-72616856D01*
X191119264Y-72414387D01*
X191133463Y-72375982D01*
X191669000Y-72375982D01*
X191669000Y-73174018D01*
X191974395Y-73911308D01*
X192538692Y-74475605D01*
X193275982Y-74781000D01*
X194074018Y-74781000D01*
X194811308Y-74475605D01*
X195375605Y-73911308D01*
X195681000Y-73174018D01*
X195681000Y-72375982D01*
X195375605Y-71638692D01*
X194811308Y-71074395D01*
X194074018Y-70769000D01*
X193275982Y-70769000D01*
X192538692Y-71074395D01*
X191974395Y-71638692D01*
X191669000Y-72375982D01*
X191133463Y-72375982D01*
X191217927Y-72147532D01*
X190245000Y-71174605D01*
X189272073Y-72147532D01*
X185666000Y-72147532D01*
X185666000Y-72040030D01*
X185493816Y-71624340D01*
X185175660Y-71306184D01*
X184759970Y-71134000D01*
X184310030Y-71134000D01*
X183894340Y-71306184D01*
X183576184Y-71624340D01*
X183404000Y-72040030D01*
X154370030Y-72040030D01*
X154222611Y-71684131D01*
X153984774Y-71619831D01*
X153214605Y-72390000D01*
X152855395Y-72390000D01*
X152085226Y-71619831D01*
X151847389Y-71684131D01*
X151667667Y-72192342D01*
X149056000Y-72192342D01*
X149056000Y-72170997D01*
X148888383Y-71766334D01*
X148578666Y-71456617D01*
X148539095Y-71440226D01*
X152264831Y-71440226D01*
X153035000Y-72210395D01*
X153805169Y-71440226D01*
X153740869Y-71202389D01*
X153232658Y-71022667D01*
X152694356Y-71051108D01*
X152329131Y-71202389D01*
X152264831Y-71440226D01*
X148539095Y-71440226D01*
X148174003Y-71289000D01*
X147735997Y-71289000D01*
X147331334Y-71456617D01*
X147021617Y-71766334D01*
X146854000Y-72170997D01*
X141045319Y-72170997D01*
X141038892Y-72049356D01*
X140887611Y-71684131D01*
X140649774Y-71619831D01*
X139879605Y-72390000D01*
X139520395Y-72390000D01*
X138750226Y-71619831D01*
X138512389Y-71684131D01*
X138332667Y-72192342D01*
X135721000Y-72192342D01*
X135721000Y-72170997D01*
X135553383Y-71766334D01*
X135243666Y-71456617D01*
X135204095Y-71440226D01*
X138929831Y-71440226D01*
X139700000Y-72210395D01*
X140470169Y-71440226D01*
X140405869Y-71202389D01*
X139897658Y-71022667D01*
X139359356Y-71051108D01*
X138994131Y-71202389D01*
X138929831Y-71440226D01*
X135204095Y-71440226D01*
X134839003Y-71289000D01*
X134400997Y-71289000D01*
X133996334Y-71456617D01*
X133686617Y-71766334D01*
X133519000Y-72170997D01*
X106680000Y-72170997D01*
X106680000Y-72137381D01*
X106486654Y-71670603D01*
X106129397Y-71313346D01*
X105662619Y-71120000D01*
X106129397Y-70926654D01*
X106486654Y-70569397D01*
X106495384Y-70548320D01*
X163311285Y-70548320D01*
X163440533Y-70841123D01*
X164140806Y-71109388D01*
X164890435Y-71089250D01*
X165489467Y-70841123D01*
X165538315Y-70730461D01*
X188599092Y-70730461D01*
X188623144Y-71380460D01*
X188825613Y-71869264D01*
X189092468Y-71967927D01*
X190065395Y-70995000D01*
X190424605Y-70995000D01*
X191397532Y-71967927D01*
X191664387Y-71869264D01*
X191890908Y-71259539D01*
X191866856Y-70609540D01*
X191664387Y-70120736D01*
X191397532Y-70022073D01*
X190424605Y-70995000D01*
X190065395Y-70995000D01*
X189092468Y-70022073D01*
X188825613Y-70120736D01*
X188599092Y-70730461D01*
X165538315Y-70730461D01*
X165618715Y-70548320D01*
X164465000Y-69394605D01*
X163311285Y-70548320D01*
X106495384Y-70548320D01*
X106680000Y-70102619D01*
X106680000Y-69597381D01*
X106486654Y-69130603D01*
X106455918Y-69099867D01*
X158484000Y-69099867D01*
X158484000Y-69490133D01*
X158633348Y-69850692D01*
X158909308Y-70126652D01*
X159269867Y-70276000D01*
X159660133Y-70276000D01*
X160020692Y-70126652D01*
X160296652Y-69850692D01*
X160446000Y-69490133D01*
X160446000Y-69099867D01*
X160359405Y-68890806D01*
X162570612Y-68890806D01*
X162590750Y-69640435D01*
X162838877Y-70239467D01*
X163131680Y-70368715D01*
X164285395Y-69215000D01*
X164644605Y-69215000D01*
X165798320Y-70368715D01*
X166091123Y-70239467D01*
X166359388Y-69539194D01*
X166347586Y-69099867D01*
X168484000Y-69099867D01*
X168484000Y-69490133D01*
X168633348Y-69850692D01*
X168909308Y-70126652D01*
X169269867Y-70276000D01*
X169660133Y-70276000D01*
X170020692Y-70126652D01*
X170296652Y-69850692D01*
X170300058Y-69842468D01*
X189272073Y-69842468D01*
X190245000Y-70815395D01*
X191217927Y-69842468D01*
X191119264Y-69575613D01*
X190509539Y-69349092D01*
X189859540Y-69373144D01*
X189370736Y-69575613D01*
X189272073Y-69842468D01*
X170300058Y-69842468D01*
X170446000Y-69490133D01*
X170446000Y-69099867D01*
X170296652Y-68739308D01*
X170020692Y-68463348D01*
X169660133Y-68314000D01*
X169269867Y-68314000D01*
X168909308Y-68463348D01*
X168633348Y-68739308D01*
X168484000Y-69099867D01*
X166347586Y-69099867D01*
X166339250Y-68789565D01*
X166091123Y-68190533D01*
X165798320Y-68061285D01*
X164644605Y-69215000D01*
X164285395Y-69215000D01*
X163131680Y-68061285D01*
X162838877Y-68190533D01*
X162570612Y-68890806D01*
X160359405Y-68890806D01*
X160296652Y-68739308D01*
X160020692Y-68463348D01*
X159660133Y-68314000D01*
X159269867Y-68314000D01*
X158909308Y-68463348D01*
X158633348Y-68739308D01*
X158484000Y-69099867D01*
X106455918Y-69099867D01*
X106129397Y-68773346D01*
X105662619Y-68580000D01*
X105157381Y-68580000D01*
X104690603Y-68773346D01*
X104333346Y-69130603D01*
X104140000Y-69597381D01*
X102056000Y-69597381D01*
X102056000Y-67881680D01*
X163311285Y-67881680D01*
X164465000Y-69035395D01*
X165618715Y-67881680D01*
X165489467Y-67588877D01*
X164789194Y-67320612D01*
X164039565Y-67340750D01*
X163440533Y-67588877D01*
X163311285Y-67881680D01*
X102056000Y-67881680D01*
X102056000Y-66496000D01*
X158527023Y-66496000D01*
X158484000Y-66599867D01*
G36*
X133547998Y-111541536D02*
X133512714Y-111541536D01*
X133547998Y-111506252D01*
X133547998Y-111541536D01*
X133547998Y-111541536D01*
G37*
X133547998Y-111541536D02*
X133512714Y-111541536D01*
X133547998Y-111506252D01*
X133547998Y-111541536D01*
G36*
X133837286Y-111541536D02*
X133802002Y-111541536D01*
X133802002Y-111506252D01*
X133837286Y-111541536D01*
X133837286Y-111541536D01*
G37*
X133837286Y-111541536D02*
X133802002Y-111541536D01*
X133802002Y-111506252D01*
X133837286Y-111541536D01*
G36*
X133802002Y-110803748D02*
X133802002Y-110768464D01*
X133837286Y-110768464D01*
X133802002Y-110803748D01*
X133802002Y-110803748D01*
G37*
X133802002Y-110803748D02*
X133802002Y-110768464D01*
X133837286Y-110768464D01*
X133802002Y-110803748D01*
G36*
X133547998Y-110803748D02*
X133512714Y-110768464D01*
X133547998Y-110768464D01*
X133547998Y-110803748D01*
X133547998Y-110803748D01*
G37*
X133547998Y-110803748D02*
X133512714Y-110768464D01*
X133547998Y-110768464D01*
X133547998Y-110803748D01*
G04 #@! TD*
M02*
